<mxfile host="app.diagrams.net" agent="Mozilla/5.0 (Macintosh; Intel Mac OS X 10_15_7) AppleWebKit/537.36 (KHTML, like Gecko) Chrome/130.0.0.0 Safari/537.36" version="24.8.3" pages="13">
  <diagram id="liHOl-BtEcwvhaPLeG9e" name="00 - agg">
    <mxGraphModel dx="782" dy="721" grid="1" gridSize="10" guides="1" tooltips="1" connect="1" arrows="1" fold="1" page="1" pageScale="1" pageWidth="1920" pageHeight="1200" math="0" shadow="0">
      <root>
        <mxCell id="V4j3wHTD7b7f1KHjWMv8-0" />
        <mxCell id="V4j3wHTD7b7f1KHjWMv8-1" parent="V4j3wHTD7b7f1KHjWMv8-0" />
        <mxCell id="alSGy9MTyjQ5v5AEetfq-0" value="Aggregates" style="rounded=0;whiteSpace=wrap;html=1;fillColor=#dae8fc;strokeColor=#6c8ebf;fontSize=18;fontStyle=1" parent="V4j3wHTD7b7f1KHjWMv8-1" vertex="1">
          <mxGeometry x="590" y="403.75" width="120" height="46" as="geometry" />
        </mxCell>
        <mxCell id="alSGy9MTyjQ5v5AEetfq-4" value="" style="shape=curlyBracket;whiteSpace=wrap;html=1;rounded=1;fontSize=18;" parent="V4j3wHTD7b7f1KHjWMv8-1" vertex="1">
          <mxGeometry x="710" y="380" width="20" height="93.5" as="geometry" />
        </mxCell>
        <mxCell id="alSGy9MTyjQ5v5AEetfq-5" value="Reduces many values down to one" style="rounded=0;whiteSpace=wrap;html=1;fontSize=14;" parent="V4j3wHTD7b7f1KHjWMv8-1" vertex="1">
          <mxGeometry x="740" y="380.5" width="250" height="43" as="geometry" />
        </mxCell>
        <mxCell id="alSGy9MTyjQ5v5AEetfq-6" value="Done by using &#39;aggregate functions&#39;" style="rounded=0;whiteSpace=wrap;html=1;fontSize=14;" parent="V4j3wHTD7b7f1KHjWMv8-1" vertex="1">
          <mxGeometry x="740" y="430.5" width="250" height="43" as="geometry" />
        </mxCell>
        <mxCell id="alSGy9MTyjQ5v5AEetfq-7" value="Grouping" style="rounded=0;whiteSpace=wrap;html=1;fillColor=#dae8fc;strokeColor=#6c8ebf;fontSize=18;fontStyle=1" parent="V4j3wHTD7b7f1KHjWMv8-1" vertex="1">
          <mxGeometry x="590" y="247" width="120" height="46" as="geometry" />
        </mxCell>
        <mxCell id="alSGy9MTyjQ5v5AEetfq-8" value="" style="shape=curlyBracket;whiteSpace=wrap;html=1;rounded=1;fontSize=18;" parent="V4j3wHTD7b7f1KHjWMv8-1" vertex="1">
          <mxGeometry x="710" y="200" width="20" height="140" as="geometry" />
        </mxCell>
        <mxCell id="alSGy9MTyjQ5v5AEetfq-9" value="Reduces many rows down to fewer rows" style="rounded=0;whiteSpace=wrap;html=1;fontSize=14;" parent="V4j3wHTD7b7f1KHjWMv8-1" vertex="1">
          <mxGeometry x="740" y="200.5" width="250" height="43" as="geometry" />
        </mxCell>
        <mxCell id="alSGy9MTyjQ5v5AEetfq-10" value="Done by using the &#39;GROUP BY&#39; keyword" style="rounded=0;whiteSpace=wrap;html=1;fontSize=14;" parent="V4j3wHTD7b7f1KHjWMv8-1" vertex="1">
          <mxGeometry x="740" y="248.5" width="250" height="43" as="geometry" />
        </mxCell>
        <mxCell id="alSGy9MTyjQ5v5AEetfq-11" value="Visualizing the result is key to use" style="rounded=0;whiteSpace=wrap;html=1;fontSize=14;" parent="V4j3wHTD7b7f1KHjWMv8-1" vertex="1">
          <mxGeometry x="740" y="297" width="250" height="43" as="geometry" />
        </mxCell>
      </root>
    </mxGraphModel>
  </diagram>
  <diagram id="p2oayo27gx8_uDqkos0n" name="01 - agg">
    <mxGraphModel dx="858" dy="529" grid="1" gridSize="10" guides="1" tooltips="1" connect="1" arrows="1" fold="1" page="1" pageScale="1" pageWidth="1920" pageHeight="1200" math="0" shadow="0">
      <root>
        <mxCell id="0" />
        <mxCell id="1" parent="0" />
        <mxCell id="oaX9xWAMN_a3emoz-8Rv-1" value="Database" style="rounded=0;whiteSpace=wrap;html=1;shadow=1;fontSize=22;fillColor=#d5e8d4;strokeColor=#82b366;" parent="1" vertex="1">
          <mxGeometry x="400" y="260" width="550" height="30" as="geometry" />
        </mxCell>
        <mxCell id="oaX9xWAMN_a3emoz-8Rv-2" value="" style="rounded=0;whiteSpace=wrap;html=1;shadow=1;fontSize=22;fillColor=#d5e8d4;strokeColor=#82b366;" parent="1" vertex="1">
          <mxGeometry x="400" y="290" width="550" height="400" as="geometry" />
        </mxCell>
        <mxCell id="oaX9xWAMN_a3emoz-8Rv-3" value="photos" style="rounded=0;whiteSpace=wrap;html=1;shadow=1;fontSize=20;fillColor=#ffe6cc;strokeColor=#d79b00;" parent="1" vertex="1">
          <mxGeometry x="415" y="305" width="245" height="25" as="geometry" />
        </mxCell>
        <mxCell id="oaX9xWAMN_a3emoz-8Rv-4" value="id" style="rounded=0;whiteSpace=wrap;html=1;shadow=1;fontSize=12;fillColor=#f5f5f5;strokeColor=#666666;fontColor=#333333;fontStyle=3" parent="1" vertex="1">
          <mxGeometry x="415" y="330" width="45" height="27" as="geometry" />
        </mxCell>
        <mxCell id="oaX9xWAMN_a3emoz-8Rv-5" value="url" style="rounded=0;whiteSpace=wrap;html=1;shadow=1;fontSize=12;fillColor=#f5f5f5;strokeColor=#666666;fontColor=#333333;fontStyle=3" parent="1" vertex="1">
          <mxGeometry x="460" y="330" width="130" height="27" as="geometry" />
        </mxCell>
        <mxCell id="oaX9xWAMN_a3emoz-8Rv-6" value="user_id" style="rounded=0;whiteSpace=wrap;html=1;shadow=1;fontSize=12;fillColor=#f5f5f5;strokeColor=#666666;fontColor=#333333;fontStyle=3" parent="1" vertex="1">
          <mxGeometry x="590" y="330" width="70" height="27" as="geometry" />
        </mxCell>
        <mxCell id="oaX9xWAMN_a3emoz-8Rv-7" value="users" style="rounded=0;whiteSpace=wrap;html=1;shadow=1;fontSize=20;fillColor=#ffe6cc;strokeColor=#d79b00;" parent="1" vertex="1">
          <mxGeometry x="760" y="305" width="180" height="25" as="geometry" />
        </mxCell>
        <mxCell id="oaX9xWAMN_a3emoz-8Rv-8" value="id" style="rounded=0;whiteSpace=wrap;html=1;shadow=1;fontSize=12;fillColor=#f5f5f5;strokeColor=#666666;fontColor=#333333;fontStyle=3" parent="1" vertex="1">
          <mxGeometry x="760" y="330" width="70" height="27" as="geometry" />
        </mxCell>
        <mxCell id="oaX9xWAMN_a3emoz-8Rv-9" value="username" style="rounded=0;whiteSpace=wrap;html=1;shadow=1;fontSize=12;fillColor=#f5f5f5;strokeColor=#666666;fontColor=#333333;fontStyle=3" parent="1" vertex="1">
          <mxGeometry x="830" y="330" width="110" height="27" as="geometry" />
        </mxCell>
        <mxCell id="oaX9xWAMN_a3emoz-8Rv-10" value="comments" style="rounded=0;whiteSpace=wrap;html=1;shadow=1;fontSize=20;fillColor=#ffe6cc;strokeColor=#d79b00;" parent="1" vertex="1">
          <mxGeometry x="415" y="520" width="335" height="25" as="geometry" />
        </mxCell>
        <mxCell id="oaX9xWAMN_a3emoz-8Rv-11" value="id" style="rounded=0;whiteSpace=wrap;html=1;shadow=1;fontSize=12;fillColor=#f5f5f5;strokeColor=#666666;fontColor=#333333;fontStyle=3" parent="1" vertex="1">
          <mxGeometry x="415" y="545" width="45" height="27" as="geometry" />
        </mxCell>
        <mxCell id="oaX9xWAMN_a3emoz-8Rv-12" value="1" style="rounded=0;whiteSpace=wrap;html=1;shadow=1;fontSize=11;fontStyle=0" parent="1" vertex="1">
          <mxGeometry x="760" y="357" width="70" height="27" as="geometry" />
        </mxCell>
        <mxCell id="oaX9xWAMN_a3emoz-8Rv-13" value="Reyna.Marvin" style="rounded=0;whiteSpace=wrap;html=1;shadow=1;fontSize=11;fontStyle=0" parent="1" vertex="1">
          <mxGeometry x="830" y="357" width="110" height="27" as="geometry" />
        </mxCell>
        <mxCell id="oaX9xWAMN_a3emoz-8Rv-14" value="2" style="rounded=0;whiteSpace=wrap;html=1;shadow=1;fontSize=11;fontStyle=0" parent="1" vertex="1">
          <mxGeometry x="760" y="384" width="70" height="27" as="geometry" />
        </mxCell>
        <mxCell id="oaX9xWAMN_a3emoz-8Rv-15" value="Micah.Cremin" style="rounded=0;whiteSpace=wrap;html=1;shadow=1;fontSize=11;fontStyle=0" parent="1" vertex="1">
          <mxGeometry x="830" y="384" width="110" height="27" as="geometry" />
        </mxCell>
        <mxCell id="oaX9xWAMN_a3emoz-8Rv-16" value="3" style="rounded=0;whiteSpace=wrap;html=1;shadow=1;fontSize=11;fontStyle=0" parent="1" vertex="1">
          <mxGeometry x="760" y="411" width="70" height="27" as="geometry" />
        </mxCell>
        <mxCell id="oaX9xWAMN_a3emoz-8Rv-17" value="Alfredo66" style="rounded=0;whiteSpace=wrap;html=1;shadow=1;fontSize=11;fontStyle=0" parent="1" vertex="1">
          <mxGeometry x="830" y="411" width="110" height="27" as="geometry" />
        </mxCell>
        <mxCell id="oaX9xWAMN_a3emoz-8Rv-18" value="4" style="rounded=0;whiteSpace=wrap;html=1;shadow=1;fontSize=11;fontStyle=0" parent="1" vertex="1">
          <mxGeometry x="760" y="438" width="70" height="27" as="geometry" />
        </mxCell>
        <mxCell id="oaX9xWAMN_a3emoz-8Rv-19" value="Gerard_Mitchell42" style="rounded=0;whiteSpace=wrap;html=1;shadow=1;fontSize=11;fontStyle=0" parent="1" vertex="1">
          <mxGeometry x="830" y="438" width="110" height="27" as="geometry" />
        </mxCell>
        <mxCell id="oaX9xWAMN_a3emoz-8Rv-20" value="5" style="rounded=0;whiteSpace=wrap;html=1;shadow=1;fontSize=11;fontStyle=0" parent="1" vertex="1">
          <mxGeometry x="760" y="465" width="70" height="27" as="geometry" />
        </mxCell>
        <mxCell id="oaX9xWAMN_a3emoz-8Rv-21" value="Frederique_Donnelly" style="rounded=0;whiteSpace=wrap;html=1;shadow=1;fontSize=11;fontStyle=0" parent="1" vertex="1">
          <mxGeometry x="830" y="465" width="110" height="27" as="geometry" />
        </mxCell>
        <mxCell id="oaX9xWAMN_a3emoz-8Rv-22" value="1" style="rounded=0;whiteSpace=wrap;html=1;shadow=1;fontSize=11;fontStyle=0" parent="1" vertex="1">
          <mxGeometry x="415" y="357" width="45" height="27" as="geometry" />
        </mxCell>
        <mxCell id="oaX9xWAMN_a3emoz-8Rv-23" value="&lt;p class=&quot;p1&quot; style=&quot;margin: 0px ; font-stretch: normal ; font-size: 12px ; line-height: normal ; font-family: &amp;#34;helvetica neue&amp;#34;&quot;&gt;https://santina.net&lt;/p&gt;" style="rounded=0;whiteSpace=wrap;html=1;shadow=1;fontSize=11;fontStyle=0" parent="1" vertex="1">
          <mxGeometry x="460" y="357" width="130" height="27" as="geometry" />
        </mxCell>
        <mxCell id="oaX9xWAMN_a3emoz-8Rv-24" value="3" style="rounded=0;whiteSpace=wrap;html=1;shadow=1;fontSize=11;fontStyle=0" parent="1" vertex="1">
          <mxGeometry x="590" y="357" width="70" height="27" as="geometry" />
        </mxCell>
        <mxCell id="oaX9xWAMN_a3emoz-8Rv-25" value="2" style="rounded=0;whiteSpace=wrap;html=1;shadow=1;fontSize=11;fontStyle=0" parent="1" vertex="1">
          <mxGeometry x="415" y="384" width="45" height="27" as="geometry" />
        </mxCell>
        <mxCell id="oaX9xWAMN_a3emoz-8Rv-26" value="&lt;p class=&quot;p1&quot; style=&quot;margin: 0px ; font-stretch: normal ; font-size: 12px ; line-height: normal ; font-family: &amp;#34;helvetica neue&amp;#34;&quot;&gt;https://alayna.net&lt;/p&gt;" style="rounded=0;whiteSpace=wrap;html=1;shadow=1;fontSize=11;fontStyle=0" parent="1" vertex="1">
          <mxGeometry x="460" y="384" width="130" height="27" as="geometry" />
        </mxCell>
        <mxCell id="oaX9xWAMN_a3emoz-8Rv-27" value="5" style="rounded=0;whiteSpace=wrap;html=1;shadow=1;fontSize=11;fontStyle=0" parent="1" vertex="1">
          <mxGeometry x="590" y="384" width="70" height="27" as="geometry" />
        </mxCell>
        <mxCell id="oaX9xWAMN_a3emoz-8Rv-28" style="edgeStyle=orthogonalEdgeStyle;rounded=0;orthogonalLoop=1;jettySize=auto;html=1;exitX=0.5;exitY=1;exitDx=0;exitDy=0;fontSize=11;" parent="1" source="oaX9xWAMN_a3emoz-8Rv-29" target="oaX9xWAMN_a3emoz-8Rv-32" edge="1">
          <mxGeometry relative="1" as="geometry" />
        </mxCell>
        <mxCell id="oaX9xWAMN_a3emoz-8Rv-29" value="3" style="rounded=0;whiteSpace=wrap;html=1;shadow=1;fontSize=11;fontStyle=0" parent="1" vertex="1">
          <mxGeometry x="415" y="411" width="45" height="27" as="geometry" />
        </mxCell>
        <mxCell id="oaX9xWAMN_a3emoz-8Rv-30" value="&lt;p class=&quot;p1&quot; style=&quot;margin: 0px ; font-stretch: normal ; font-size: 12px ; line-height: normal ; font-family: &amp;#34;helvetica neue&amp;#34;&quot;&gt;https://kailyn.name&lt;/p&gt;" style="rounded=0;whiteSpace=wrap;html=1;shadow=1;fontSize=11;fontStyle=0" parent="1" vertex="1">
          <mxGeometry x="460" y="411" width="130" height="27" as="geometry" />
        </mxCell>
        <mxCell id="oaX9xWAMN_a3emoz-8Rv-31" value="3" style="rounded=0;whiteSpace=wrap;html=1;shadow=1;fontSize=11;fontStyle=0" parent="1" vertex="1">
          <mxGeometry x="590" y="411" width="70" height="27" as="geometry" />
        </mxCell>
        <mxCell id="oaX9xWAMN_a3emoz-8Rv-32" value="20" style="rounded=0;whiteSpace=wrap;html=1;shadow=1;fontSize=11;fontStyle=0" parent="1" vertex="1">
          <mxGeometry x="415" y="456.5" width="45" height="27" as="geometry" />
        </mxCell>
        <mxCell id="oaX9xWAMN_a3emoz-8Rv-33" value="&lt;p class=&quot;p1&quot; style=&quot;margin: 0px ; font-stretch: normal ; font-size: 12px ; line-height: normal ; font-family: &amp;#34;helvetica neue&amp;#34;&quot;&gt;http://sasha.com&lt;/p&gt;" style="rounded=0;whiteSpace=wrap;html=1;shadow=1;fontSize=11;fontStyle=0" parent="1" vertex="1">
          <mxGeometry x="460" y="456.5" width="130" height="27" as="geometry" />
        </mxCell>
        <mxCell id="oaX9xWAMN_a3emoz-8Rv-34" value="3" style="rounded=0;whiteSpace=wrap;html=1;shadow=1;fontSize=11;fontStyle=0" parent="1" vertex="1">
          <mxGeometry x="590" y="456.5" width="70" height="27" as="geometry" />
        </mxCell>
        <mxCell id="oaX9xWAMN_a3emoz-8Rv-35" value="contents" style="rounded=0;whiteSpace=wrap;html=1;shadow=1;fontSize=12;fillColor=#f5f5f5;strokeColor=#666666;fontColor=#333333;fontStyle=3" parent="1" vertex="1">
          <mxGeometry x="460" y="545" width="180" height="27" as="geometry" />
        </mxCell>
        <mxCell id="oaX9xWAMN_a3emoz-8Rv-36" value="user_id" style="rounded=0;whiteSpace=wrap;html=1;shadow=1;fontSize=12;fillColor=#f5f5f5;strokeColor=#666666;fontColor=#333333;fontStyle=3" parent="1" vertex="1">
          <mxGeometry x="640" y="545" width="50" height="27" as="geometry" />
        </mxCell>
        <mxCell id="oaX9xWAMN_a3emoz-8Rv-37" value="photo_id" style="rounded=0;whiteSpace=wrap;html=1;shadow=1;fontSize=12;fillColor=#f5f5f5;strokeColor=#666666;fontColor=#333333;fontStyle=3" parent="1" vertex="1">
          <mxGeometry x="690" y="545" width="60" height="27" as="geometry" />
        </mxCell>
        <mxCell id="oaX9xWAMN_a3emoz-8Rv-38" value="1" style="rounded=0;whiteSpace=wrap;html=1;shadow=1;fontSize=11;fontStyle=0" parent="1" vertex="1">
          <mxGeometry x="415" y="572" width="45" height="27" as="geometry" />
        </mxCell>
        <mxCell id="oaX9xWAMN_a3emoz-8Rv-39" value="&lt;pre class=&quot;prettyprint linenums&quot;&gt;Quo velit iusto ducimus&lt;/pre&gt;" style="rounded=0;whiteSpace=wrap;html=1;shadow=1;fontSize=11;fontStyle=0" parent="1" vertex="1">
          <mxGeometry x="460" y="572" width="180" height="27" as="geometry" />
        </mxCell>
        <mxCell id="oaX9xWAMN_a3emoz-8Rv-40" value="2" style="rounded=0;whiteSpace=wrap;html=1;shadow=1;fontSize=11;fontStyle=0" parent="1" vertex="1">
          <mxGeometry x="640" y="572" width="50" height="27" as="geometry" />
        </mxCell>
        <mxCell id="oaX9xWAMN_a3emoz-8Rv-41" value="4" style="rounded=0;whiteSpace=wrap;html=1;shadow=1;fontSize=11;fontStyle=0" parent="1" vertex="1">
          <mxGeometry x="690" y="572" width="60" height="27" as="geometry" />
        </mxCell>
        <mxCell id="oaX9xWAMN_a3emoz-8Rv-42" style="edgeStyle=orthogonalEdgeStyle;rounded=0;orthogonalLoop=1;jettySize=auto;html=1;exitX=0.5;exitY=1;exitDx=0;exitDy=0;fontSize=11;" parent="1" source="oaX9xWAMN_a3emoz-8Rv-43" target="oaX9xWAMN_a3emoz-8Rv-47" edge="1">
          <mxGeometry relative="1" as="geometry" />
        </mxCell>
        <mxCell id="oaX9xWAMN_a3emoz-8Rv-43" value="2" style="rounded=0;whiteSpace=wrap;html=1;shadow=1;fontSize=11;fontStyle=0" parent="1" vertex="1">
          <mxGeometry x="415" y="599" width="45" height="27" as="geometry" />
        </mxCell>
        <mxCell id="oaX9xWAMN_a3emoz-8Rv-44" value="&lt;pre class=&quot;prettyprint linenums&quot;&gt;&lt;pre class=&quot;prettyprint linenums&quot;&gt;Non est totam&lt;/pre&gt;&lt;/pre&gt;" style="rounded=0;whiteSpace=wrap;html=1;shadow=1;fontSize=11;fontStyle=0" parent="1" vertex="1">
          <mxGeometry x="460" y="599" width="180" height="27" as="geometry" />
        </mxCell>
        <mxCell id="oaX9xWAMN_a3emoz-8Rv-45" value="5" style="rounded=0;whiteSpace=wrap;html=1;shadow=1;fontSize=11;fontStyle=0" parent="1" vertex="1">
          <mxGeometry x="640" y="599" width="50" height="27" as="geometry" />
        </mxCell>
        <mxCell id="oaX9xWAMN_a3emoz-8Rv-46" value="5" style="rounded=0;whiteSpace=wrap;html=1;shadow=1;fontSize=11;fontStyle=0" parent="1" vertex="1">
          <mxGeometry x="690" y="599" width="60" height="27" as="geometry" />
        </mxCell>
        <mxCell id="oaX9xWAMN_a3emoz-8Rv-47" value="100" style="rounded=0;whiteSpace=wrap;html=1;shadow=1;fontSize=11;fontStyle=0" parent="1" vertex="1">
          <mxGeometry x="415" y="650" width="45" height="27" as="geometry" />
        </mxCell>
        <mxCell id="oaX9xWAMN_a3emoz-8Rv-48" value="&lt;pre class=&quot;prettyprint linenums&quot;&gt;&lt;pre class=&quot;prettyprint linenums&quot;&gt;Minima dolorem reiciendis&lt;/pre&gt;&lt;/pre&gt;" style="rounded=0;whiteSpace=wrap;html=1;shadow=1;fontSize=11;fontStyle=0" parent="1" vertex="1">
          <mxGeometry x="460" y="650" width="180" height="27" as="geometry" />
        </mxCell>
        <mxCell id="oaX9xWAMN_a3emoz-8Rv-49" value="3" style="rounded=0;whiteSpace=wrap;html=1;shadow=1;fontSize=11;fontStyle=0" parent="1" vertex="1">
          <mxGeometry x="640" y="650" width="50" height="27" as="geometry" />
        </mxCell>
        <mxCell id="oaX9xWAMN_a3emoz-8Rv-50" value="3" style="rounded=0;whiteSpace=wrap;html=1;shadow=1;fontSize=11;fontStyle=0" parent="1" vertex="1">
          <mxGeometry x="690" y="650" width="60" height="27" as="geometry" />
        </mxCell>
      </root>
    </mxGraphModel>
  </diagram>
  <diagram id="HzThUvHBmv295ZPZgAvj" name="03 - g">
    <mxGraphModel dx="1502" dy="926" grid="1" gridSize="10" guides="1" tooltips="1" connect="1" arrows="1" fold="1" page="1" pageScale="1" pageWidth="1920" pageHeight="1200" math="0" shadow="0">
      <root>
        <mxCell id="0NpsMtk2O4MnUR7sIR6D-0" />
        <mxCell id="0NpsMtk2O4MnUR7sIR6D-1" parent="0NpsMtk2O4MnUR7sIR6D-0" />
        <mxCell id="0NpsMtk2O4MnUR7sIR6D-78" value="" style="rounded=0;whiteSpace=wrap;html=1;shadow=1;fontSize=22;fillColor=#d5e8d4;strokeColor=#82b366;" parent="0NpsMtk2O4MnUR7sIR6D-1" vertex="1">
          <mxGeometry x="970" y="290" width="430" height="440" as="geometry" />
        </mxCell>
        <mxCell id="0NpsMtk2O4MnUR7sIR6D-2" value="Database" style="rounded=0;whiteSpace=wrap;html=1;shadow=1;fontSize=22;fillColor=#d5e8d4;strokeColor=#82b366;" parent="0NpsMtk2O4MnUR7sIR6D-1" vertex="1">
          <mxGeometry x="400" y="357" width="360" height="30" as="geometry" />
        </mxCell>
        <mxCell id="0NpsMtk2O4MnUR7sIR6D-3" value="" style="rounded=0;whiteSpace=wrap;html=1;shadow=1;fontSize=22;fillColor=#d5e8d4;strokeColor=#82b366;" parent="0NpsMtk2O4MnUR7sIR6D-1" vertex="1">
          <mxGeometry x="400" y="387" width="360" height="270" as="geometry" />
        </mxCell>
        <mxCell id="0NpsMtk2O4MnUR7sIR6D-11" value="comments" style="rounded=0;whiteSpace=wrap;html=1;shadow=1;fontSize=20;fillColor=#ffe6cc;strokeColor=#d79b00;" parent="0NpsMtk2O4MnUR7sIR6D-1" vertex="1">
          <mxGeometry x="415" y="397" width="335" height="25" as="geometry" />
        </mxCell>
        <mxCell id="0NpsMtk2O4MnUR7sIR6D-12" value="id" style="rounded=0;whiteSpace=wrap;html=1;shadow=1;fontSize=12;fillColor=#f5f5f5;strokeColor=#666666;fontColor=#333333;fontStyle=3" parent="0NpsMtk2O4MnUR7sIR6D-1" vertex="1">
          <mxGeometry x="415" y="422" width="45" height="27" as="geometry" />
        </mxCell>
        <mxCell id="0NpsMtk2O4MnUR7sIR6D-36" value="contents" style="rounded=0;whiteSpace=wrap;html=1;shadow=1;fontSize=12;fillColor=#f5f5f5;strokeColor=#666666;fontColor=#333333;fontStyle=3" parent="0NpsMtk2O4MnUR7sIR6D-1" vertex="1">
          <mxGeometry x="460" y="422" width="180" height="27" as="geometry" />
        </mxCell>
        <mxCell id="0NpsMtk2O4MnUR7sIR6D-37" value="user_id" style="rounded=0;whiteSpace=wrap;html=1;shadow=1;fontSize=12;fillColor=#f5f5f5;strokeColor=#666666;fontColor=#333333;fontStyle=3" parent="0NpsMtk2O4MnUR7sIR6D-1" vertex="1">
          <mxGeometry x="640" y="422" width="50" height="27" as="geometry" />
        </mxCell>
        <mxCell id="0NpsMtk2O4MnUR7sIR6D-38" value="photo_id" style="rounded=0;whiteSpace=wrap;html=1;shadow=1;fontSize=12;fillColor=#f5f5f5;strokeColor=#666666;fontColor=#333333;fontStyle=3" parent="0NpsMtk2O4MnUR7sIR6D-1" vertex="1">
          <mxGeometry x="690" y="422" width="60" height="27" as="geometry" />
        </mxCell>
        <mxCell id="0NpsMtk2O4MnUR7sIR6D-74" style="edgeStyle=orthogonalEdgeStyle;rounded=0;orthogonalLoop=1;jettySize=auto;html=1;exitX=0.5;exitY=1;exitDx=0;exitDy=0;fontFamily=Helvetica;fontSize=16;fontColor=#000000;" parent="0NpsMtk2O4MnUR7sIR6D-1" source="0NpsMtk2O4MnUR7sIR6D-72" target="0NpsMtk2O4MnUR7sIR6D-73" edge="1">
          <mxGeometry relative="1" as="geometry" />
        </mxCell>
        <mxCell id="0NpsMtk2O4MnUR7sIR6D-72" value="GROUP BY user_id" style="rounded=0;whiteSpace=wrap;html=1;fontFamily=Helvetica;fontSize=16;fillColor=#f8cecc;strokeColor=#b85450;fontStyle=1" parent="0NpsMtk2O4MnUR7sIR6D-1" vertex="1">
          <mxGeometry x="780" y="422" width="180" height="47" as="geometry" />
        </mxCell>
        <mxCell id="0NpsMtk2O4MnUR7sIR6D-76" style="edgeStyle=orthogonalEdgeStyle;rounded=0;orthogonalLoop=1;jettySize=auto;html=1;exitX=0.5;exitY=1;exitDx=0;exitDy=0;fontFamily=Helvetica;fontSize=13;fontColor=#000000;" parent="0NpsMtk2O4MnUR7sIR6D-1" source="0NpsMtk2O4MnUR7sIR6D-73" target="0NpsMtk2O4MnUR7sIR6D-75" edge="1">
          <mxGeometry relative="1" as="geometry" />
        </mxCell>
        <mxCell id="0NpsMtk2O4MnUR7sIR6D-73" value="Find the set of all unique user_id&#39;s" style="rounded=0;whiteSpace=wrap;html=1;fontFamily=Helvetica;fontSize=13;fillColor=#dae8fc;strokeColor=#6c8ebf;fontStyle=0" parent="0NpsMtk2O4MnUR7sIR6D-1" vertex="1">
          <mxGeometry x="780" y="485" width="180" height="47" as="geometry" />
        </mxCell>
        <mxCell id="0NpsMtk2O4MnUR7sIR6D-75" value="Take each row and assign it to a group based on its user_id" style="rounded=0;whiteSpace=wrap;html=1;fontFamily=Helvetica;fontSize=13;fillColor=#dae8fc;strokeColor=#6c8ebf;fontStyle=0" parent="0NpsMtk2O4MnUR7sIR6D-1" vertex="1">
          <mxGeometry x="780" y="546" width="180" height="47" as="geometry" />
        </mxCell>
        <mxCell id="0NpsMtk2O4MnUR7sIR6D-77" value="Database" style="rounded=0;whiteSpace=wrap;html=1;shadow=1;fontSize=22;fillColor=#d5e8d4;strokeColor=#82b366;" parent="0NpsMtk2O4MnUR7sIR6D-1" vertex="1">
          <mxGeometry x="970" y="260" width="430" height="30" as="geometry" />
        </mxCell>
        <mxCell id="0NpsMtk2O4MnUR7sIR6D-79" value="grouped comments" style="rounded=0;whiteSpace=wrap;html=1;shadow=1;fontSize=20;fillColor=#ffe6cc;strokeColor=#d79b00;" parent="0NpsMtk2O4MnUR7sIR6D-1" vertex="1">
          <mxGeometry x="980" y="300" width="405" height="25" as="geometry" />
        </mxCell>
        <mxCell id="0NpsMtk2O4MnUR7sIR6D-112" value="GROUPED user_id" style="rounded=0;whiteSpace=wrap;html=1;shadow=1;fontSize=12;fillColor=#f5f5f5;strokeColor=#666666;fontColor=#333333;fontStyle=3" parent="0NpsMtk2O4MnUR7sIR6D-1" vertex="1">
          <mxGeometry x="980" y="325" width="70" height="32" as="geometry" />
        </mxCell>
        <mxCell id="0NpsMtk2O4MnUR7sIR6D-80" value="id" style="rounded=0;whiteSpace=wrap;html=1;shadow=1;fontSize=12;fillColor=#f8cecc;strokeColor=#b85450;fontStyle=3" parent="0NpsMtk2O4MnUR7sIR6D-1" vertex="1">
          <mxGeometry x="1050" y="325" width="45" height="32" as="geometry" />
        </mxCell>
        <mxCell id="0NpsMtk2O4MnUR7sIR6D-81" value="contents" style="rounded=0;whiteSpace=wrap;html=1;shadow=1;fontSize=12;fillColor=#f8cecc;strokeColor=#b85450;fontStyle=3" parent="0NpsMtk2O4MnUR7sIR6D-1" vertex="1">
          <mxGeometry x="1095" y="325" width="180" height="32" as="geometry" />
        </mxCell>
        <mxCell id="0NpsMtk2O4MnUR7sIR6D-82" value="user_id" style="rounded=0;whiteSpace=wrap;html=1;shadow=1;fontSize=12;fillColor=#f8cecc;strokeColor=#b85450;fontStyle=3" parent="0NpsMtk2O4MnUR7sIR6D-1" vertex="1">
          <mxGeometry x="1275" y="325" width="50" height="32" as="geometry" />
        </mxCell>
        <mxCell id="0NpsMtk2O4MnUR7sIR6D-83" value="photo_id" style="rounded=0;whiteSpace=wrap;html=1;shadow=1;fontSize=12;fillColor=#f8cecc;strokeColor=#b85450;fontStyle=3" parent="0NpsMtk2O4MnUR7sIR6D-1" vertex="1">
          <mxGeometry x="1325" y="325" width="60" height="32" as="geometry" />
        </mxCell>
        <mxCell id="PbU20spd4sZ-KGrsGKc5-0" value="1" style="rounded=0;whiteSpace=wrap;html=1;shadow=1;fontSize=23;fontStyle=0" parent="0NpsMtk2O4MnUR7sIR6D-1" vertex="1">
          <mxGeometry x="980" y="370" width="70" height="70" as="geometry" />
        </mxCell>
        <mxCell id="2rdDHWoz-TW_92nsm0s_-0" value="" style="group" parent="0NpsMtk2O4MnUR7sIR6D-1" vertex="1" connectable="0">
          <mxGeometry x="415" y="611" width="335" height="27" as="geometry" />
        </mxCell>
        <mxCell id="0NpsMtk2O4MnUR7sIR6D-64" value="7" style="rounded=0;whiteSpace=wrap;html=1;shadow=0;fontSize=11;fontStyle=0" parent="2rdDHWoz-TW_92nsm0s_-0" vertex="1">
          <mxGeometry width="45" height="27" as="geometry" />
        </mxCell>
        <mxCell id="0NpsMtk2O4MnUR7sIR6D-65" value="&lt;div class=&quot;prettyprint linenums&quot; style=&quot;font-size: 12px;&quot;&gt;&lt;div class=&quot;prettyprint linenums&quot; style=&quot;font-size: 12px;&quot;&gt;Non est totam&lt;/div&gt;&lt;/div&gt;" style="rounded=0;whiteSpace=wrap;html=1;shadow=0;fontSize=12;fontStyle=0;fontFamily=Helvetica;" parent="2rdDHWoz-TW_92nsm0s_-0" vertex="1">
          <mxGeometry x="45" width="180" height="27" as="geometry" />
        </mxCell>
        <mxCell id="0NpsMtk2O4MnUR7sIR6D-66" value="1" style="rounded=0;whiteSpace=wrap;html=1;shadow=0;fontSize=11;fontStyle=0;" parent="2rdDHWoz-TW_92nsm0s_-0" vertex="1">
          <mxGeometry x="225" width="50" height="27" as="geometry" />
        </mxCell>
        <mxCell id="0NpsMtk2O4MnUR7sIR6D-67" value="5" style="rounded=0;whiteSpace=wrap;html=1;shadow=0;fontSize=11;fontStyle=0;" parent="2rdDHWoz-TW_92nsm0s_-0" vertex="1">
          <mxGeometry x="275" width="60" height="27" as="geometry" />
        </mxCell>
        <mxCell id="2rdDHWoz-TW_92nsm0s_-1" value="" style="group" parent="0NpsMtk2O4MnUR7sIR6D-1" vertex="1" connectable="0">
          <mxGeometry x="415" y="584" width="335" height="27" as="geometry" />
        </mxCell>
        <mxCell id="0NpsMtk2O4MnUR7sIR6D-60" value="6" style="rounded=0;whiteSpace=wrap;html=1;shadow=0;fontSize=11;fontStyle=0" parent="2rdDHWoz-TW_92nsm0s_-1" vertex="1">
          <mxGeometry width="45" height="27" as="geometry" />
        </mxCell>
        <mxCell id="0NpsMtk2O4MnUR7sIR6D-61" value="&lt;div class=&quot;prettyprint linenums&quot; style=&quot;font-size: 12px;&quot;&gt;&lt;div class=&quot;prettyprint linenums&quot; style=&quot;font-size: 12px;&quot;&gt;&lt;span style=&quot;font-size: 12px; text-align: left; background-color: rgba(255, 255, 255, 0.075);&quot;&gt;Voluptas ab eius.&lt;/span&gt;&lt;br style=&quot;font-size: 12px;&quot;&gt;&lt;/div&gt;&lt;/div&gt;" style="rounded=0;whiteSpace=wrap;html=1;shadow=0;fontSize=12;fontStyle=0;fontFamily=Helvetica;" parent="2rdDHWoz-TW_92nsm0s_-1" vertex="1">
          <mxGeometry x="45" width="180" height="27" as="geometry" />
        </mxCell>
        <mxCell id="0NpsMtk2O4MnUR7sIR6D-62" value="2" style="rounded=0;whiteSpace=wrap;html=1;shadow=0;fontSize=11;fontStyle=0;" parent="2rdDHWoz-TW_92nsm0s_-1" vertex="1">
          <mxGeometry x="225" width="50" height="27" as="geometry" />
        </mxCell>
        <mxCell id="0NpsMtk2O4MnUR7sIR6D-63" value="5" style="rounded=0;whiteSpace=wrap;html=1;shadow=0;fontSize=11;fontStyle=0;" parent="2rdDHWoz-TW_92nsm0s_-1" vertex="1">
          <mxGeometry x="275" width="60" height="27" as="geometry" />
        </mxCell>
        <mxCell id="2rdDHWoz-TW_92nsm0s_-2" value="" style="group" parent="0NpsMtk2O4MnUR7sIR6D-1" vertex="1" connectable="0">
          <mxGeometry x="415" y="557" width="335" height="27" as="geometry" />
        </mxCell>
        <mxCell id="0NpsMtk2O4MnUR7sIR6D-39" value="5" style="rounded=0;whiteSpace=wrap;html=1;shadow=0;fontSize=11;fontStyle=0" parent="2rdDHWoz-TW_92nsm0s_-2" vertex="1">
          <mxGeometry width="45" height="27" as="geometry" />
        </mxCell>
        <mxCell id="0NpsMtk2O4MnUR7sIR6D-40" value="&lt;div class=&quot;prettyprint linenums&quot; style=&quot;font-size: 12px;&quot;&gt;Quo velit iusto ducimus&lt;/div&gt;" style="rounded=0;whiteSpace=wrap;html=1;shadow=0;fontSize=12;fontStyle=0;fontFamily=Helvetica;" parent="2rdDHWoz-TW_92nsm0s_-2" vertex="1">
          <mxGeometry x="45" width="180" height="27" as="geometry" />
        </mxCell>
        <mxCell id="0NpsMtk2O4MnUR7sIR6D-41" value="2" style="rounded=0;whiteSpace=wrap;html=1;shadow=0;fontSize=11;fontStyle=0" parent="2rdDHWoz-TW_92nsm0s_-2" vertex="1">
          <mxGeometry x="225" width="50" height="27" as="geometry" />
        </mxCell>
        <mxCell id="0NpsMtk2O4MnUR7sIR6D-42" value="4" style="rounded=0;whiteSpace=wrap;html=1;shadow=0;fontSize=11;fontStyle=0" parent="2rdDHWoz-TW_92nsm0s_-2" vertex="1">
          <mxGeometry x="275" width="60" height="27" as="geometry" />
        </mxCell>
        <mxCell id="2rdDHWoz-TW_92nsm0s_-3" value="" style="group" parent="0NpsMtk2O4MnUR7sIR6D-1" vertex="1" connectable="0">
          <mxGeometry x="415" y="530" width="335" height="27" as="geometry" />
        </mxCell>
        <mxCell id="0NpsMtk2O4MnUR7sIR6D-56" value="4" style="rounded=0;whiteSpace=wrap;html=1;shadow=0;fontSize=11;fontStyle=0" parent="2rdDHWoz-TW_92nsm0s_-3" vertex="1">
          <mxGeometry width="45" height="27" as="geometry" />
        </mxCell>
        <mxCell id="0NpsMtk2O4MnUR7sIR6D-57" value="&lt;div class=&quot;prettyprint linenums&quot; style=&quot;font-size: 12px;&quot;&gt;&lt;div class=&quot;prettyprint linenums&quot; style=&quot;font-size: 12px;&quot;&gt;&lt;span style=&quot;font-size: 12px; text-align: left; background-color: rgba(255, 255, 255, 0.075);&quot;&gt;Enim esse magni.&lt;/span&gt;&lt;br style=&quot;font-size: 12px;&quot;&gt;&lt;/div&gt;&lt;/div&gt;" style="rounded=0;whiteSpace=wrap;html=1;shadow=0;fontSize=12;fontStyle=0;fontFamily=Helvetica;" parent="2rdDHWoz-TW_92nsm0s_-3" vertex="1">
          <mxGeometry x="45" width="180" height="27" as="geometry" />
        </mxCell>
        <mxCell id="0NpsMtk2O4MnUR7sIR6D-58" value="3" style="rounded=0;whiteSpace=wrap;html=1;shadow=0;fontSize=11;fontStyle=0;" parent="2rdDHWoz-TW_92nsm0s_-3" vertex="1">
          <mxGeometry x="225" width="50" height="27" as="geometry" />
        </mxCell>
        <mxCell id="0NpsMtk2O4MnUR7sIR6D-59" value="5" style="rounded=0;whiteSpace=wrap;html=1;shadow=0;fontSize=11;fontStyle=0;" parent="2rdDHWoz-TW_92nsm0s_-3" vertex="1">
          <mxGeometry x="275" width="60" height="27" as="geometry" />
        </mxCell>
        <mxCell id="2rdDHWoz-TW_92nsm0s_-4" value="" style="group" parent="0NpsMtk2O4MnUR7sIR6D-1" vertex="1" connectable="0">
          <mxGeometry x="415" y="503" width="335" height="27" as="geometry" />
        </mxCell>
        <mxCell id="0NpsMtk2O4MnUR7sIR6D-52" value="3" style="rounded=0;whiteSpace=wrap;html=1;shadow=0;fontSize=11;fontStyle=0" parent="2rdDHWoz-TW_92nsm0s_-4" vertex="1">
          <mxGeometry width="45" height="27" as="geometry" />
        </mxCell>
        <mxCell id="0NpsMtk2O4MnUR7sIR6D-53" value="&lt;div class=&quot;prettyprint linenums&quot; style=&quot;font-size: 12px;&quot;&gt;&lt;div class=&quot;prettyprint linenums&quot; style=&quot;font-size: 12px;&quot;&gt;&lt;span style=&quot;font-size: 12px; text-align: left; background-color: rgba(255, 255, 255, 0.075);&quot;&gt;Et sit occaecati.&lt;/span&gt;&lt;br style=&quot;font-size: 12px;&quot;&gt;&lt;/div&gt;&lt;/div&gt;" style="rounded=0;whiteSpace=wrap;html=1;shadow=0;fontSize=12;fontStyle=0;fontFamily=Helvetica;" parent="2rdDHWoz-TW_92nsm0s_-4" vertex="1">
          <mxGeometry x="45" width="180" height="27" as="geometry" />
        </mxCell>
        <mxCell id="0NpsMtk2O4MnUR7sIR6D-54" value="5" style="rounded=0;whiteSpace=wrap;html=1;shadow=0;fontSize=11;fontStyle=0;" parent="2rdDHWoz-TW_92nsm0s_-4" vertex="1">
          <mxGeometry x="225" width="50" height="27" as="geometry" />
        </mxCell>
        <mxCell id="0NpsMtk2O4MnUR7sIR6D-55" value="5" style="rounded=0;whiteSpace=wrap;html=1;shadow=0;fontSize=11;fontStyle=0;" parent="2rdDHWoz-TW_92nsm0s_-4" vertex="1">
          <mxGeometry x="275" width="60" height="27" as="geometry" />
        </mxCell>
        <mxCell id="2rdDHWoz-TW_92nsm0s_-5" value="" style="group" parent="0NpsMtk2O4MnUR7sIR6D-1" vertex="1" connectable="0">
          <mxGeometry x="415" y="476" width="335" height="27" as="geometry" />
        </mxCell>
        <mxCell id="0NpsMtk2O4MnUR7sIR6D-68" value="2" style="rounded=0;whiteSpace=wrap;html=1;shadow=0;fontSize=11;fontStyle=0" parent="2rdDHWoz-TW_92nsm0s_-5" vertex="1">
          <mxGeometry width="45" height="27" as="geometry" />
        </mxCell>
        <mxCell id="0NpsMtk2O4MnUR7sIR6D-69" value="&lt;div class=&quot;prettyprint linenums&quot; style=&quot;font-size: 12px;&quot;&gt;&lt;div class=&quot;prettyprint linenums&quot; style=&quot;font-size: 12px;&quot;&gt;&lt;span style=&quot;font-size: 12px; text-align: left; background-color: rgba(255, 255, 255, 0.075);&quot;&gt;Sed cumque in et.&lt;/span&gt;&lt;br style=&quot;font-size: 12px;&quot;&gt;&lt;/div&gt;&lt;/div&gt;" style="rounded=0;whiteSpace=wrap;html=1;shadow=0;fontSize=12;fontStyle=0;fontFamily=Helvetica;" parent="2rdDHWoz-TW_92nsm0s_-5" vertex="1">
          <mxGeometry x="45" width="180" height="27" as="geometry" />
        </mxCell>
        <mxCell id="0NpsMtk2O4MnUR7sIR6D-70" value="3" style="rounded=0;whiteSpace=wrap;html=1;shadow=0;fontSize=11;fontStyle=0;" parent="2rdDHWoz-TW_92nsm0s_-5" vertex="1">
          <mxGeometry x="225" width="50" height="27" as="geometry" />
        </mxCell>
        <mxCell id="0NpsMtk2O4MnUR7sIR6D-71" value="5" style="rounded=0;whiteSpace=wrap;html=1;shadow=0;fontSize=11;fontStyle=0;" parent="2rdDHWoz-TW_92nsm0s_-5" vertex="1">
          <mxGeometry x="275" width="60" height="27" as="geometry" />
        </mxCell>
        <mxCell id="2rdDHWoz-TW_92nsm0s_-6" value="" style="group" parent="0NpsMtk2O4MnUR7sIR6D-1" vertex="1" connectable="0">
          <mxGeometry x="415" y="449" width="335" height="27" as="geometry" />
        </mxCell>
        <mxCell id="0NpsMtk2O4MnUR7sIR6D-44" value="1" style="rounded=0;whiteSpace=wrap;html=1;shadow=0;fontSize=11;fontStyle=0" parent="2rdDHWoz-TW_92nsm0s_-6" vertex="1">
          <mxGeometry width="45" height="27" as="geometry" />
        </mxCell>
        <mxCell id="0NpsMtk2O4MnUR7sIR6D-45" value="&lt;div class=&quot;prettyprint linenums&quot; style=&quot;font-size: 12px;&quot;&gt;&lt;div class=&quot;prettyprint linenums&quot; style=&quot;font-size: 12px;&quot;&gt;Non est totam&lt;/div&gt;&lt;/div&gt;" style="rounded=0;whiteSpace=wrap;html=1;shadow=0;fontSize=12;fontStyle=0;fontFamily=Helvetica;" parent="2rdDHWoz-TW_92nsm0s_-6" vertex="1">
          <mxGeometry x="45" width="180" height="27" as="geometry" />
        </mxCell>
        <mxCell id="0NpsMtk2O4MnUR7sIR6D-46" value="1" style="rounded=0;whiteSpace=wrap;html=1;shadow=0;fontSize=11;fontStyle=0;" parent="2rdDHWoz-TW_92nsm0s_-6" vertex="1">
          <mxGeometry x="225" width="50" height="27" as="geometry" />
        </mxCell>
        <mxCell id="0NpsMtk2O4MnUR7sIR6D-47" value="5" style="rounded=0;whiteSpace=wrap;html=1;shadow=0;fontSize=11;fontStyle=0;" parent="2rdDHWoz-TW_92nsm0s_-6" vertex="1">
          <mxGeometry x="275" width="60" height="27" as="geometry" />
        </mxCell>
        <mxCell id="c1_NJU9EGhH1qleXz14v-0" value="2" style="rounded=0;whiteSpace=wrap;html=1;shadow=1;fontSize=23;fontStyle=0" parent="0NpsMtk2O4MnUR7sIR6D-1" vertex="1">
          <mxGeometry x="980" y="454.5" width="70" height="70" as="geometry" />
        </mxCell>
        <mxCell id="c1_NJU9EGhH1qleXz14v-1" value="3" style="rounded=0;whiteSpace=wrap;html=1;shadow=1;fontSize=23;fontStyle=0" parent="0NpsMtk2O4MnUR7sIR6D-1" vertex="1">
          <mxGeometry x="980" y="546" width="70" height="70" as="geometry" />
        </mxCell>
        <mxCell id="c1_NJU9EGhH1qleXz14v-3" value="5" style="rounded=0;whiteSpace=wrap;html=1;shadow=1;fontSize=23;fontStyle=0" parent="0NpsMtk2O4MnUR7sIR6D-1" vertex="1">
          <mxGeometry x="980" y="630" width="70" height="70" as="geometry" />
        </mxCell>
      </root>
    </mxGraphModel>
  </diagram>
  <diagram id="nRX1MvmqMRulxeGSMYLV" name="04 - agg">
    <mxGraphModel dx="858" dy="529" grid="1" gridSize="10" guides="1" tooltips="1" connect="1" arrows="1" fold="1" page="1" pageScale="1" pageWidth="1920" pageHeight="1200" math="0" shadow="0">
      <root>
        <mxCell id="vg5UXhjyVgInLVrk6Ae7-0" />
        <mxCell id="vg5UXhjyVgInLVrk6Ae7-1" parent="vg5UXhjyVgInLVrk6Ae7-0" />
        <mxCell id="vg5UXhjyVgInLVrk6Ae7-10" style="edgeStyle=orthogonalEdgeStyle;rounded=0;orthogonalLoop=1;jettySize=auto;html=1;exitX=1;exitY=0.5;exitDx=0;exitDy=0;fontFamily=Helvetica;fontSize=17;fontColor=#000000;" parent="vg5UXhjyVgInLVrk6Ae7-1" source="vg5UXhjyVgInLVrk6Ae7-2" target="vg5UXhjyVgInLVrk6Ae7-9" edge="1">
          <mxGeometry relative="1" as="geometry" />
        </mxCell>
        <mxCell id="vg5UXhjyVgInLVrk6Ae7-2" value="COUNT()" style="rounded=0;whiteSpace=wrap;html=1;fontFamily=Helvetica;fontSize=23;fontStyle=1;fillColor=#dae8fc;strokeColor=#6c8ebf;shadow=1;" parent="vg5UXhjyVgInLVrk6Ae7-1" vertex="1">
          <mxGeometry x="500" y="290" width="170" height="60" as="geometry" />
        </mxCell>
        <mxCell id="vg5UXhjyVgInLVrk6Ae7-5" value="SUM()" style="rounded=0;whiteSpace=wrap;html=1;fontFamily=Helvetica;fontSize=23;fontStyle=1;fillColor=#dae8fc;strokeColor=#6c8ebf;shadow=1;" parent="vg5UXhjyVgInLVrk6Ae7-1" vertex="1">
          <mxGeometry x="500" y="360" width="170" height="60" as="geometry" />
        </mxCell>
        <mxCell id="vg5UXhjyVgInLVrk6Ae7-6" value="AVG()" style="rounded=0;whiteSpace=wrap;html=1;fontFamily=Helvetica;fontSize=23;fontStyle=1;fillColor=#dae8fc;strokeColor=#6c8ebf;shadow=1;" parent="vg5UXhjyVgInLVrk6Ae7-1" vertex="1">
          <mxGeometry x="500" y="430" width="170" height="60" as="geometry" />
        </mxCell>
        <mxCell id="vg5UXhjyVgInLVrk6Ae7-7" value="MIN()" style="rounded=0;whiteSpace=wrap;html=1;fontFamily=Helvetica;fontSize=23;fontStyle=1;fillColor=#dae8fc;strokeColor=#6c8ebf;shadow=1;" parent="vg5UXhjyVgInLVrk6Ae7-1" vertex="1">
          <mxGeometry x="500" y="500" width="170" height="60" as="geometry" />
        </mxCell>
        <mxCell id="vg5UXhjyVgInLVrk6Ae7-8" value="MAX()" style="rounded=0;whiteSpace=wrap;html=1;fontFamily=Helvetica;fontSize=23;fontStyle=1;fillColor=#dae8fc;strokeColor=#6c8ebf;shadow=1;" parent="vg5UXhjyVgInLVrk6Ae7-1" vertex="1">
          <mxGeometry x="500" y="570" width="170" height="60" as="geometry" />
        </mxCell>
        <mxCell id="vg5UXhjyVgInLVrk6Ae7-9" value="Returns the number of values in a group of values" style="rounded=0;whiteSpace=wrap;html=1;fontFamily=Helvetica;fontSize=17;fontStyle=0;shadow=0;" parent="vg5UXhjyVgInLVrk6Ae7-1" vertex="1">
          <mxGeometry x="700" y="290" width="400" height="60" as="geometry" />
        </mxCell>
        <mxCell id="vg5UXhjyVgInLVrk6Ae7-11" style="edgeStyle=orthogonalEdgeStyle;rounded=0;orthogonalLoop=1;jettySize=auto;html=1;exitX=1;exitY=0.5;exitDx=0;exitDy=0;fontFamily=Helvetica;fontSize=17;fontColor=#000000;" parent="vg5UXhjyVgInLVrk6Ae7-1" target="vg5UXhjyVgInLVrk6Ae7-12" edge="1">
          <mxGeometry relative="1" as="geometry">
            <mxPoint x="670" y="390" as="sourcePoint" />
          </mxGeometry>
        </mxCell>
        <mxCell id="vg5UXhjyVgInLVrk6Ae7-12" value="Finds the &lt;b&gt;sum&lt;/b&gt; of a group of numbers" style="rounded=0;whiteSpace=wrap;html=1;fontFamily=Helvetica;fontSize=17;fontStyle=0;shadow=0;" parent="vg5UXhjyVgInLVrk6Ae7-1" vertex="1">
          <mxGeometry x="700" y="360" width="400" height="60" as="geometry" />
        </mxCell>
        <mxCell id="vg5UXhjyVgInLVrk6Ae7-13" style="edgeStyle=orthogonalEdgeStyle;rounded=0;orthogonalLoop=1;jettySize=auto;html=1;exitX=1;exitY=0.5;exitDx=0;exitDy=0;fontFamily=Helvetica;fontSize=17;fontColor=#000000;" parent="vg5UXhjyVgInLVrk6Ae7-1" target="vg5UXhjyVgInLVrk6Ae7-14" edge="1">
          <mxGeometry relative="1" as="geometry">
            <mxPoint x="670" y="460" as="sourcePoint" />
          </mxGeometry>
        </mxCell>
        <mxCell id="vg5UXhjyVgInLVrk6Ae7-14" value="Finds the &lt;b&gt;average&lt;/b&gt; of a group of numbers" style="rounded=0;whiteSpace=wrap;html=1;fontFamily=Helvetica;fontSize=17;fontStyle=0;shadow=0;" parent="vg5UXhjyVgInLVrk6Ae7-1" vertex="1">
          <mxGeometry x="700" y="430" width="400" height="60" as="geometry" />
        </mxCell>
        <mxCell id="vg5UXhjyVgInLVrk6Ae7-15" style="edgeStyle=orthogonalEdgeStyle;rounded=0;orthogonalLoop=1;jettySize=auto;html=1;exitX=1;exitY=0.5;exitDx=0;exitDy=0;fontFamily=Helvetica;fontSize=17;fontColor=#000000;" parent="vg5UXhjyVgInLVrk6Ae7-1" target="vg5UXhjyVgInLVrk6Ae7-16" edge="1">
          <mxGeometry relative="1" as="geometry">
            <mxPoint x="670" y="530" as="sourcePoint" />
          </mxGeometry>
        </mxCell>
        <mxCell id="vg5UXhjyVgInLVrk6Ae7-16" value="Returns the &lt;b&gt;minimum&lt;/b&gt; value from a group of numbers" style="rounded=0;whiteSpace=wrap;html=1;fontFamily=Helvetica;fontSize=17;fontStyle=0;shadow=0;" parent="vg5UXhjyVgInLVrk6Ae7-1" vertex="1">
          <mxGeometry x="700" y="500" width="400" height="60" as="geometry" />
        </mxCell>
        <mxCell id="vg5UXhjyVgInLVrk6Ae7-17" style="edgeStyle=orthogonalEdgeStyle;rounded=0;orthogonalLoop=1;jettySize=auto;html=1;exitX=1;exitY=0.5;exitDx=0;exitDy=0;fontFamily=Helvetica;fontSize=17;fontColor=#000000;" parent="vg5UXhjyVgInLVrk6Ae7-1" target="vg5UXhjyVgInLVrk6Ae7-18" edge="1">
          <mxGeometry relative="1" as="geometry">
            <mxPoint x="670" y="600" as="sourcePoint" />
          </mxGeometry>
        </mxCell>
        <mxCell id="vg5UXhjyVgInLVrk6Ae7-18" value="Returns the &lt;b&gt;maximum&lt;/b&gt; value from a group of numbers" style="rounded=0;whiteSpace=wrap;html=1;fontFamily=Helvetica;fontSize=17;fontStyle=0;shadow=0;" parent="vg5UXhjyVgInLVrk6Ae7-1" vertex="1">
          <mxGeometry x="700" y="570" width="400" height="60" as="geometry" />
        </mxCell>
      </root>
    </mxGraphModel>
  </diagram>
  <diagram id="LRRlnSxlbMTGGeYsDjdb" name="05 - agg">
    <mxGraphModel dx="782" dy="721" grid="1" gridSize="10" guides="1" tooltips="1" connect="1" arrows="1" fold="1" page="1" pageScale="1" pageWidth="1920" pageHeight="1200" math="0" shadow="0">
      <root>
        <mxCell id="S4kUBRraSZilIcSoKLcY-0" />
        <mxCell id="S4kUBRraSZilIcSoKLcY-1" parent="S4kUBRraSZilIcSoKLcY-0" />
        <mxCell id="NZcpIWPApgXZocb2puaa-0" value="" style="rounded=0;whiteSpace=wrap;html=1;shadow=1;fontSize=22;fillColor=#d5e8d4;strokeColor=#82b366;" parent="S4kUBRraSZilIcSoKLcY-1" vertex="1">
          <mxGeometry x="690" y="310" width="550" height="440" as="geometry" />
        </mxCell>
        <mxCell id="NZcpIWPApgXZocb2puaa-1" value="Database" style="rounded=0;whiteSpace=wrap;html=1;shadow=1;fontSize=22;fillColor=#d5e8d4;strokeColor=#82b366;" parent="S4kUBRraSZilIcSoKLcY-1" vertex="1">
          <mxGeometry x="690" y="280" width="550" height="30" as="geometry" />
        </mxCell>
        <mxCell id="NZcpIWPApgXZocb2puaa-2" value="grouped comments" style="rounded=0;whiteSpace=wrap;html=1;shadow=1;fontSize=20;fillColor=#ffe6cc;strokeColor=#d79b00;" parent="S4kUBRraSZilIcSoKLcY-1" vertex="1">
          <mxGeometry x="700" y="320" width="520" height="25" as="geometry" />
        </mxCell>
        <mxCell id="NZcpIWPApgXZocb2puaa-3" value="GROUP&lt;br&gt;photo_id" style="rounded=0;whiteSpace=wrap;html=1;shadow=1;fontSize=12;fillColor=#f5f5f5;strokeColor=#666666;fontColor=#333333;fontStyle=3" parent="S4kUBRraSZilIcSoKLcY-1" vertex="1">
          <mxGeometry x="700" y="345" width="70" height="32" as="geometry" />
        </mxCell>
        <mxCell id="NZcpIWPApgXZocb2puaa-4" value="id" style="rounded=0;whiteSpace=wrap;html=1;shadow=1;fontSize=12;fillColor=#f8cecc;strokeColor=#b85450;fontStyle=3" parent="S4kUBRraSZilIcSoKLcY-1" vertex="1">
          <mxGeometry x="770" y="345" width="45" height="32" as="geometry" />
        </mxCell>
        <mxCell id="NZcpIWPApgXZocb2puaa-5" value="contents" style="rounded=0;whiteSpace=wrap;html=1;shadow=1;fontSize=12;fillColor=#f8cecc;strokeColor=#b85450;fontStyle=3" parent="S4kUBRraSZilIcSoKLcY-1" vertex="1">
          <mxGeometry x="815" y="345" width="180" height="32" as="geometry" />
        </mxCell>
        <mxCell id="NZcpIWPApgXZocb2puaa-6" value="user_id" style="rounded=0;whiteSpace=wrap;html=1;shadow=1;fontSize=12;fillColor=#f8cecc;strokeColor=#b85450;fontStyle=3" parent="S4kUBRraSZilIcSoKLcY-1" vertex="1">
          <mxGeometry x="995" y="345" width="50" height="32" as="geometry" />
        </mxCell>
        <mxCell id="NZcpIWPApgXZocb2puaa-7" value="photo_id" style="rounded=0;whiteSpace=wrap;html=1;shadow=1;fontSize=12;fillColor=#f8cecc;strokeColor=#b85450;fontStyle=3" parent="S4kUBRraSZilIcSoKLcY-1" vertex="1">
          <mxGeometry x="1045" y="345" width="60" height="32" as="geometry" />
        </mxCell>
        <mxCell id="NZcpIWPApgXZocb2puaa-8" value="1" style="rounded=0;whiteSpace=wrap;html=1;shadow=1;fontSize=23;fontStyle=0" parent="S4kUBRraSZilIcSoKLcY-1" vertex="1">
          <mxGeometry x="700" y="390" width="70" height="70" as="geometry" />
        </mxCell>
        <mxCell id="NZcpIWPApgXZocb2puaa-9" value="" style="group" parent="S4kUBRraSZilIcSoKLcY-1" vertex="1" connectable="0">
          <mxGeometry x="770" y="417" width="335" height="27" as="geometry" />
        </mxCell>
        <mxCell id="NZcpIWPApgXZocb2puaa-10" value="7" style="rounded=0;whiteSpace=wrap;html=1;shadow=0;fontSize=11;fontStyle=0" parent="NZcpIWPApgXZocb2puaa-9" vertex="1">
          <mxGeometry width="45" height="27" as="geometry" />
        </mxCell>
        <mxCell id="NZcpIWPApgXZocb2puaa-11" value="&lt;div class=&quot;prettyprint linenums&quot; style=&quot;font-size: 12px;&quot;&gt;&lt;div class=&quot;prettyprint linenums&quot; style=&quot;font-size: 12px;&quot;&gt;Non est totam&lt;/div&gt;&lt;/div&gt;" style="rounded=0;whiteSpace=wrap;html=1;shadow=0;fontSize=12;fontStyle=0;fontFamily=Helvetica;" parent="NZcpIWPApgXZocb2puaa-9" vertex="1">
          <mxGeometry x="45" width="180" height="27" as="geometry" />
        </mxCell>
        <mxCell id="NZcpIWPApgXZocb2puaa-12" value="1" style="rounded=0;whiteSpace=wrap;html=1;shadow=0;fontSize=11;fontStyle=0;" parent="NZcpIWPApgXZocb2puaa-9" vertex="1">
          <mxGeometry x="225" width="50" height="27" as="geometry" />
        </mxCell>
        <mxCell id="NZcpIWPApgXZocb2puaa-13" value="5" style="rounded=0;whiteSpace=wrap;html=1;shadow=0;fontSize=11;fontStyle=0;" parent="NZcpIWPApgXZocb2puaa-9" vertex="1">
          <mxGeometry x="275" width="60" height="27" as="geometry" />
        </mxCell>
        <mxCell id="NZcpIWPApgXZocb2puaa-14" value="" style="group" parent="S4kUBRraSZilIcSoKLcY-1" vertex="1" connectable="0">
          <mxGeometry x="770" y="501.5" width="335" height="27" as="geometry" />
        </mxCell>
        <mxCell id="NZcpIWPApgXZocb2puaa-15" value="6" style="rounded=0;whiteSpace=wrap;html=1;shadow=0;fontSize=11;fontStyle=0" parent="NZcpIWPApgXZocb2puaa-14" vertex="1">
          <mxGeometry width="45" height="27" as="geometry" />
        </mxCell>
        <mxCell id="NZcpIWPApgXZocb2puaa-16" value="&lt;div class=&quot;prettyprint linenums&quot; style=&quot;font-size: 12px;&quot;&gt;&lt;div class=&quot;prettyprint linenums&quot; style=&quot;font-size: 12px;&quot;&gt;&lt;span style=&quot;font-size: 12px; text-align: left; background-color: rgba(255, 255, 255, 0.075);&quot;&gt;Voluptas ab eius.&lt;/span&gt;&lt;br style=&quot;font-size: 12px;&quot;&gt;&lt;/div&gt;&lt;/div&gt;" style="rounded=0;whiteSpace=wrap;html=1;shadow=0;fontSize=12;fontStyle=0;fontFamily=Helvetica;" parent="NZcpIWPApgXZocb2puaa-14" vertex="1">
          <mxGeometry x="45" width="180" height="27" as="geometry" />
        </mxCell>
        <mxCell id="NZcpIWPApgXZocb2puaa-17" value="2" style="rounded=0;whiteSpace=wrap;html=1;shadow=0;fontSize=11;fontStyle=0;" parent="NZcpIWPApgXZocb2puaa-14" vertex="1">
          <mxGeometry x="225" width="50" height="27" as="geometry" />
        </mxCell>
        <mxCell id="NZcpIWPApgXZocb2puaa-18" value="5" style="rounded=0;whiteSpace=wrap;html=1;shadow=0;fontSize=11;fontStyle=0;" parent="NZcpIWPApgXZocb2puaa-14" vertex="1">
          <mxGeometry x="275" width="60" height="27" as="geometry" />
        </mxCell>
        <mxCell id="NZcpIWPApgXZocb2puaa-19" value="" style="group" parent="S4kUBRraSZilIcSoKLcY-1" vertex="1" connectable="0">
          <mxGeometry x="770" y="474.5" width="335" height="27" as="geometry" />
        </mxCell>
        <mxCell id="NZcpIWPApgXZocb2puaa-20" value="5" style="rounded=0;whiteSpace=wrap;html=1;shadow=0;fontSize=11;fontStyle=0" parent="NZcpIWPApgXZocb2puaa-19" vertex="1">
          <mxGeometry width="45" height="27" as="geometry" />
        </mxCell>
        <mxCell id="NZcpIWPApgXZocb2puaa-21" value="&lt;div class=&quot;prettyprint linenums&quot; style=&quot;font-size: 12px;&quot;&gt;Quo velit iusto ducimus&lt;/div&gt;" style="rounded=0;whiteSpace=wrap;html=1;shadow=0;fontSize=12;fontStyle=0;fontFamily=Helvetica;" parent="NZcpIWPApgXZocb2puaa-19" vertex="1">
          <mxGeometry x="45" width="180" height="27" as="geometry" />
        </mxCell>
        <mxCell id="NZcpIWPApgXZocb2puaa-22" value="2" style="rounded=0;whiteSpace=wrap;html=1;shadow=0;fontSize=11;fontStyle=0" parent="NZcpIWPApgXZocb2puaa-19" vertex="1">
          <mxGeometry x="225" width="50" height="27" as="geometry" />
        </mxCell>
        <mxCell id="NZcpIWPApgXZocb2puaa-23" value="4" style="rounded=0;whiteSpace=wrap;html=1;shadow=0;fontSize=11;fontStyle=0" parent="NZcpIWPApgXZocb2puaa-19" vertex="1">
          <mxGeometry x="275" width="60" height="27" as="geometry" />
        </mxCell>
        <mxCell id="NZcpIWPApgXZocb2puaa-24" value="" style="group" parent="S4kUBRraSZilIcSoKLcY-1" vertex="1" connectable="0">
          <mxGeometry x="770" y="597" width="335" height="27" as="geometry" />
        </mxCell>
        <mxCell id="NZcpIWPApgXZocb2puaa-25" value="4" style="rounded=0;whiteSpace=wrap;html=1;shadow=0;fontSize=11;fontStyle=0" parent="NZcpIWPApgXZocb2puaa-24" vertex="1">
          <mxGeometry width="45" height="27" as="geometry" />
        </mxCell>
        <mxCell id="NZcpIWPApgXZocb2puaa-26" value="&lt;div class=&quot;prettyprint linenums&quot; style=&quot;font-size: 12px;&quot;&gt;&lt;div class=&quot;prettyprint linenums&quot; style=&quot;font-size: 12px;&quot;&gt;&lt;span style=&quot;font-size: 12px; text-align: left; background-color: rgba(255, 255, 255, 0.075);&quot;&gt;Enim esse magni.&lt;/span&gt;&lt;br style=&quot;font-size: 12px;&quot;&gt;&lt;/div&gt;&lt;/div&gt;" style="rounded=0;whiteSpace=wrap;html=1;shadow=0;fontSize=12;fontStyle=0;fontFamily=Helvetica;" parent="NZcpIWPApgXZocb2puaa-24" vertex="1">
          <mxGeometry x="45" width="180" height="27" as="geometry" />
        </mxCell>
        <mxCell id="NZcpIWPApgXZocb2puaa-27" value="3" style="rounded=0;whiteSpace=wrap;html=1;shadow=0;fontSize=11;fontStyle=0;" parent="NZcpIWPApgXZocb2puaa-24" vertex="1">
          <mxGeometry x="225" width="50" height="27" as="geometry" />
        </mxCell>
        <mxCell id="NZcpIWPApgXZocb2puaa-28" value="5" style="rounded=0;whiteSpace=wrap;html=1;shadow=0;fontSize=11;fontStyle=0;" parent="NZcpIWPApgXZocb2puaa-24" vertex="1">
          <mxGeometry x="275" width="60" height="27" as="geometry" />
        </mxCell>
        <mxCell id="NZcpIWPApgXZocb2puaa-29" value="" style="group" parent="S4kUBRraSZilIcSoKLcY-1" vertex="1" connectable="0">
          <mxGeometry x="770" y="650" width="335" height="27" as="geometry" />
        </mxCell>
        <mxCell id="NZcpIWPApgXZocb2puaa-30" value="3" style="rounded=0;whiteSpace=wrap;html=1;shadow=0;fontSize=11;fontStyle=0" parent="NZcpIWPApgXZocb2puaa-29" vertex="1">
          <mxGeometry width="45" height="27" as="geometry" />
        </mxCell>
        <mxCell id="NZcpIWPApgXZocb2puaa-31" value="&lt;div class=&quot;prettyprint linenums&quot; style=&quot;font-size: 12px;&quot;&gt;&lt;div class=&quot;prettyprint linenums&quot; style=&quot;font-size: 12px;&quot;&gt;&lt;span style=&quot;font-size: 12px; text-align: left; background-color: rgba(255, 255, 255, 0.075);&quot;&gt;Et sit occaecati.&lt;/span&gt;&lt;br style=&quot;font-size: 12px;&quot;&gt;&lt;/div&gt;&lt;/div&gt;" style="rounded=0;whiteSpace=wrap;html=1;shadow=0;fontSize=12;fontStyle=0;fontFamily=Helvetica;" parent="NZcpIWPApgXZocb2puaa-29" vertex="1">
          <mxGeometry x="45" width="180" height="27" as="geometry" />
        </mxCell>
        <mxCell id="NZcpIWPApgXZocb2puaa-32" value="5" style="rounded=0;whiteSpace=wrap;html=1;shadow=0;fontSize=11;fontStyle=0;" parent="NZcpIWPApgXZocb2puaa-29" vertex="1">
          <mxGeometry x="225" width="50" height="27" as="geometry" />
        </mxCell>
        <mxCell id="NZcpIWPApgXZocb2puaa-33" value="5" style="rounded=0;whiteSpace=wrap;html=1;shadow=0;fontSize=11;fontStyle=0;" parent="NZcpIWPApgXZocb2puaa-29" vertex="1">
          <mxGeometry x="275" width="60" height="27" as="geometry" />
        </mxCell>
        <mxCell id="NZcpIWPApgXZocb2puaa-34" value="" style="group" parent="S4kUBRraSZilIcSoKLcY-1" vertex="1" connectable="0">
          <mxGeometry x="770" y="570" width="335" height="27" as="geometry" />
        </mxCell>
        <mxCell id="NZcpIWPApgXZocb2puaa-35" value="2" style="rounded=0;whiteSpace=wrap;html=1;shadow=0;fontSize=11;fontStyle=0" parent="NZcpIWPApgXZocb2puaa-34" vertex="1">
          <mxGeometry width="45" height="27" as="geometry" />
        </mxCell>
        <mxCell id="NZcpIWPApgXZocb2puaa-36" value="&lt;div class=&quot;prettyprint linenums&quot; style=&quot;font-size: 12px;&quot;&gt;&lt;div class=&quot;prettyprint linenums&quot; style=&quot;font-size: 12px;&quot;&gt;&lt;span style=&quot;font-size: 12px; text-align: left; background-color: rgba(255, 255, 255, 0.075);&quot;&gt;Sed cumque in et.&lt;/span&gt;&lt;br style=&quot;font-size: 12px;&quot;&gt;&lt;/div&gt;&lt;/div&gt;" style="rounded=0;whiteSpace=wrap;html=1;shadow=0;fontSize=12;fontStyle=0;fontFamily=Helvetica;" parent="NZcpIWPApgXZocb2puaa-34" vertex="1">
          <mxGeometry x="45" width="180" height="27" as="geometry" />
        </mxCell>
        <mxCell id="NZcpIWPApgXZocb2puaa-37" value="3" style="rounded=0;whiteSpace=wrap;html=1;shadow=0;fontSize=11;fontStyle=0;" parent="NZcpIWPApgXZocb2puaa-34" vertex="1">
          <mxGeometry x="225" width="50" height="27" as="geometry" />
        </mxCell>
        <mxCell id="NZcpIWPApgXZocb2puaa-38" value="5" style="rounded=0;whiteSpace=wrap;html=1;shadow=0;fontSize=11;fontStyle=0;" parent="NZcpIWPApgXZocb2puaa-34" vertex="1">
          <mxGeometry x="275" width="60" height="27" as="geometry" />
        </mxCell>
        <mxCell id="NZcpIWPApgXZocb2puaa-39" value="" style="group" parent="S4kUBRraSZilIcSoKLcY-1" vertex="1" connectable="0">
          <mxGeometry x="770" y="390" width="335" height="27" as="geometry" />
        </mxCell>
        <mxCell id="NZcpIWPApgXZocb2puaa-40" value="1" style="rounded=0;whiteSpace=wrap;html=1;shadow=0;fontSize=11;fontStyle=0" parent="NZcpIWPApgXZocb2puaa-39" vertex="1">
          <mxGeometry width="45" height="27" as="geometry" />
        </mxCell>
        <mxCell id="NZcpIWPApgXZocb2puaa-41" value="&lt;div class=&quot;prettyprint linenums&quot; style=&quot;font-size: 12px;&quot;&gt;&lt;div class=&quot;prettyprint linenums&quot; style=&quot;font-size: 12px;&quot;&gt;Non est totam&lt;/div&gt;&lt;/div&gt;" style="rounded=0;whiteSpace=wrap;html=1;shadow=0;fontSize=12;fontStyle=0;fontFamily=Helvetica;" parent="NZcpIWPApgXZocb2puaa-39" vertex="1">
          <mxGeometry x="45" width="180" height="27" as="geometry" />
        </mxCell>
        <mxCell id="NZcpIWPApgXZocb2puaa-42" value="1" style="rounded=0;whiteSpace=wrap;html=1;shadow=0;fontSize=11;fontStyle=0;" parent="NZcpIWPApgXZocb2puaa-39" vertex="1">
          <mxGeometry x="225" width="50" height="27" as="geometry" />
        </mxCell>
        <mxCell id="NZcpIWPApgXZocb2puaa-43" value="5" style="rounded=0;whiteSpace=wrap;html=1;shadow=0;fontSize=11;fontStyle=0;" parent="NZcpIWPApgXZocb2puaa-39" vertex="1">
          <mxGeometry x="275" width="60" height="27" as="geometry" />
        </mxCell>
        <mxCell id="NZcpIWPApgXZocb2puaa-44" value="2" style="rounded=0;whiteSpace=wrap;html=1;shadow=1;fontSize=23;fontStyle=0" parent="S4kUBRraSZilIcSoKLcY-1" vertex="1">
          <mxGeometry x="700" y="474.5" width="70" height="70" as="geometry" />
        </mxCell>
        <mxCell id="NZcpIWPApgXZocb2puaa-45" value="3" style="rounded=0;whiteSpace=wrap;html=1;shadow=1;fontSize=23;fontStyle=0" parent="S4kUBRraSZilIcSoKLcY-1" vertex="1">
          <mxGeometry x="700" y="566" width="70" height="70" as="geometry" />
        </mxCell>
        <mxCell id="NZcpIWPApgXZocb2puaa-46" value="5" style="rounded=0;whiteSpace=wrap;html=1;shadow=1;fontSize=23;fontStyle=0" parent="S4kUBRraSZilIcSoKLcY-1" vertex="1">
          <mxGeometry x="700" y="650" width="70" height="70" as="geometry" />
        </mxCell>
        <mxCell id="NZcpIWPApgXZocb2puaa-47" value="COUNT(id)" style="rounded=0;whiteSpace=wrap;html=1;shadow=1;fontSize=12;fillColor=#f5f5f5;strokeColor=#666666;fontColor=#333333;fontStyle=3" parent="S4kUBRraSZilIcSoKLcY-1" vertex="1">
          <mxGeometry x="1105" y="345" width="115" height="32" as="geometry" />
        </mxCell>
        <mxCell id="NZcpIWPApgXZocb2puaa-48" value="2" style="rounded=0;whiteSpace=wrap;html=1;shadow=0;fontSize=11;fontStyle=0;" parent="S4kUBRraSZilIcSoKLcY-1" vertex="1">
          <mxGeometry x="1105" y="390" width="115" height="54" as="geometry" />
        </mxCell>
        <mxCell id="NZcpIWPApgXZocb2puaa-54" value="1" style="rounded=0;whiteSpace=wrap;html=1;shadow=0;fontSize=11;fontStyle=0;" parent="S4kUBRraSZilIcSoKLcY-1" vertex="1">
          <mxGeometry x="1105" y="650" width="115" height="27" as="geometry" />
        </mxCell>
        <mxCell id="t_KV4l3YusP4BFcXfIkt-0" value="2" style="rounded=0;whiteSpace=wrap;html=1;shadow=0;fontSize=11;fontStyle=0;" parent="S4kUBRraSZilIcSoKLcY-1" vertex="1">
          <mxGeometry x="1105" y="474.5" width="115" height="54" as="geometry" />
        </mxCell>
        <mxCell id="t_KV4l3YusP4BFcXfIkt-1" value="2" style="rounded=0;whiteSpace=wrap;html=1;shadow=0;fontSize=11;fontStyle=0;" parent="S4kUBRraSZilIcSoKLcY-1" vertex="1">
          <mxGeometry x="1105" y="570" width="115" height="54" as="geometry" />
        </mxCell>
      </root>
    </mxGraphModel>
  </diagram>
  <diagram id="doBceWSTRQLeLv34x85D" name="06 - agg">
    <mxGraphModel dx="1502" dy="926" grid="1" gridSize="10" guides="1" tooltips="1" connect="1" arrows="1" fold="1" page="1" pageScale="1" pageWidth="1920" pageHeight="1200" math="0" shadow="0">
      <root>
        <mxCell id="qoZp44pRUg1mvCNyi3_d-0" />
        <mxCell id="qoZp44pRUg1mvCNyi3_d-1" parent="qoZp44pRUg1mvCNyi3_d-0" />
        <mxCell id="37snNz1Il1lQRJ-gbBLm-1" value="Database" style="rounded=0;whiteSpace=wrap;html=1;shadow=1;fontSize=22;fillColor=#d5e8d4;strokeColor=#82b366;" parent="qoZp44pRUg1mvCNyi3_d-1" vertex="1">
          <mxGeometry x="400" y="357" width="360" height="30" as="geometry" />
        </mxCell>
        <mxCell id="37snNz1Il1lQRJ-gbBLm-2" value="" style="rounded=0;whiteSpace=wrap;html=1;shadow=1;fontSize=22;fillColor=#d5e8d4;strokeColor=#82b366;" parent="qoZp44pRUg1mvCNyi3_d-1" vertex="1">
          <mxGeometry x="400" y="387" width="360" height="270" as="geometry" />
        </mxCell>
        <mxCell id="37snNz1Il1lQRJ-gbBLm-3" value="comments" style="rounded=0;whiteSpace=wrap;html=1;shadow=1;fontSize=20;fillColor=#ffe6cc;strokeColor=#d79b00;" parent="qoZp44pRUg1mvCNyi3_d-1" vertex="1">
          <mxGeometry x="415" y="397" width="335" height="25" as="geometry" />
        </mxCell>
        <mxCell id="37snNz1Il1lQRJ-gbBLm-4" value="id" style="rounded=0;whiteSpace=wrap;html=1;shadow=1;fontSize=12;fillColor=#f5f5f5;strokeColor=#666666;fontColor=#333333;fontStyle=3" parent="qoZp44pRUg1mvCNyi3_d-1" vertex="1">
          <mxGeometry x="415" y="422" width="45" height="27" as="geometry" />
        </mxCell>
        <mxCell id="37snNz1Il1lQRJ-gbBLm-5" value="contents" style="rounded=0;whiteSpace=wrap;html=1;shadow=1;fontSize=12;fillColor=#f5f5f5;strokeColor=#666666;fontColor=#333333;fontStyle=3" parent="qoZp44pRUg1mvCNyi3_d-1" vertex="1">
          <mxGeometry x="460" y="422" width="180" height="27" as="geometry" />
        </mxCell>
        <mxCell id="37snNz1Il1lQRJ-gbBLm-6" value="user_id" style="rounded=0;whiteSpace=wrap;html=1;shadow=1;fontSize=12;fillColor=#f5f5f5;strokeColor=#666666;fontColor=#333333;fontStyle=3" parent="qoZp44pRUg1mvCNyi3_d-1" vertex="1">
          <mxGeometry x="640" y="422" width="50" height="27" as="geometry" />
        </mxCell>
        <mxCell id="37snNz1Il1lQRJ-gbBLm-7" value="photo_id" style="rounded=0;whiteSpace=wrap;html=1;shadow=1;fontSize=12;fillColor=#f5f5f5;strokeColor=#666666;fontColor=#333333;fontStyle=3" parent="qoZp44pRUg1mvCNyi3_d-1" vertex="1">
          <mxGeometry x="690" y="422" width="60" height="27" as="geometry" />
        </mxCell>
        <mxCell id="37snNz1Il1lQRJ-gbBLm-21" value="" style="group" parent="qoZp44pRUg1mvCNyi3_d-1" vertex="1" connectable="0">
          <mxGeometry x="415" y="611" width="335" height="27" as="geometry" />
        </mxCell>
        <mxCell id="37snNz1Il1lQRJ-gbBLm-22" value="7" style="rounded=0;whiteSpace=wrap;html=1;shadow=0;fontSize=11;fontStyle=0" parent="37snNz1Il1lQRJ-gbBLm-21" vertex="1">
          <mxGeometry width="45" height="27" as="geometry" />
        </mxCell>
        <mxCell id="37snNz1Il1lQRJ-gbBLm-23" value="&lt;div class=&quot;prettyprint linenums&quot; style=&quot;font-size: 12px;&quot;&gt;&lt;div class=&quot;prettyprint linenums&quot; style=&quot;font-size: 12px;&quot;&gt;Non est totam&lt;/div&gt;&lt;/div&gt;" style="rounded=0;whiteSpace=wrap;html=1;shadow=0;fontSize=12;fontStyle=0;fontFamily=Helvetica;" parent="37snNz1Il1lQRJ-gbBLm-21" vertex="1">
          <mxGeometry x="45" width="180" height="27" as="geometry" />
        </mxCell>
        <mxCell id="37snNz1Il1lQRJ-gbBLm-24" value="1" style="rounded=0;whiteSpace=wrap;html=1;shadow=0;fontSize=11;fontStyle=0;" parent="37snNz1Il1lQRJ-gbBLm-21" vertex="1">
          <mxGeometry x="225" width="50" height="27" as="geometry" />
        </mxCell>
        <mxCell id="37snNz1Il1lQRJ-gbBLm-25" value="5" style="rounded=0;whiteSpace=wrap;html=1;shadow=0;fontSize=11;fontStyle=0;" parent="37snNz1Il1lQRJ-gbBLm-21" vertex="1">
          <mxGeometry x="275" width="60" height="27" as="geometry" />
        </mxCell>
        <mxCell id="37snNz1Il1lQRJ-gbBLm-26" value="" style="group" parent="qoZp44pRUg1mvCNyi3_d-1" vertex="1" connectable="0">
          <mxGeometry x="415" y="584" width="335" height="27" as="geometry" />
        </mxCell>
        <mxCell id="37snNz1Il1lQRJ-gbBLm-27" value="6" style="rounded=0;whiteSpace=wrap;html=1;shadow=0;fontSize=11;fontStyle=0" parent="37snNz1Il1lQRJ-gbBLm-26" vertex="1">
          <mxGeometry width="45" height="27" as="geometry" />
        </mxCell>
        <mxCell id="37snNz1Il1lQRJ-gbBLm-28" value="&lt;div class=&quot;prettyprint linenums&quot; style=&quot;font-size: 12px;&quot;&gt;&lt;div class=&quot;prettyprint linenums&quot; style=&quot;font-size: 12px;&quot;&gt;&lt;span style=&quot;font-size: 12px; text-align: left; background-color: rgba(255, 255, 255, 0.075);&quot;&gt;Voluptas ab eius.&lt;/span&gt;&lt;br style=&quot;font-size: 12px;&quot;&gt;&lt;/div&gt;&lt;/div&gt;" style="rounded=0;whiteSpace=wrap;html=1;shadow=0;fontSize=12;fontStyle=0;fontFamily=Helvetica;" parent="37snNz1Il1lQRJ-gbBLm-26" vertex="1">
          <mxGeometry x="45" width="180" height="27" as="geometry" />
        </mxCell>
        <mxCell id="37snNz1Il1lQRJ-gbBLm-29" value="2" style="rounded=0;whiteSpace=wrap;html=1;shadow=0;fontSize=11;fontStyle=0;" parent="37snNz1Il1lQRJ-gbBLm-26" vertex="1">
          <mxGeometry x="225" width="50" height="27" as="geometry" />
        </mxCell>
        <mxCell id="37snNz1Il1lQRJ-gbBLm-30" value="5" style="rounded=0;whiteSpace=wrap;html=1;shadow=0;fontSize=11;fontStyle=0;" parent="37snNz1Il1lQRJ-gbBLm-26" vertex="1">
          <mxGeometry x="275" width="60" height="27" as="geometry" />
        </mxCell>
        <mxCell id="37snNz1Il1lQRJ-gbBLm-31" value="" style="group" parent="qoZp44pRUg1mvCNyi3_d-1" vertex="1" connectable="0">
          <mxGeometry x="415" y="557" width="335" height="27" as="geometry" />
        </mxCell>
        <mxCell id="37snNz1Il1lQRJ-gbBLm-32" value="5" style="rounded=0;whiteSpace=wrap;html=1;shadow=0;fontSize=11;fontStyle=0" parent="37snNz1Il1lQRJ-gbBLm-31" vertex="1">
          <mxGeometry width="45" height="27" as="geometry" />
        </mxCell>
        <mxCell id="37snNz1Il1lQRJ-gbBLm-33" value="&lt;div class=&quot;prettyprint linenums&quot; style=&quot;font-size: 12px;&quot;&gt;Quo velit iusto ducimus&lt;/div&gt;" style="rounded=0;whiteSpace=wrap;html=1;shadow=0;fontSize=12;fontStyle=0;fontFamily=Helvetica;" parent="37snNz1Il1lQRJ-gbBLm-31" vertex="1">
          <mxGeometry x="45" width="180" height="27" as="geometry" />
        </mxCell>
        <mxCell id="37snNz1Il1lQRJ-gbBLm-34" value="2" style="rounded=0;whiteSpace=wrap;html=1;shadow=0;fontSize=11;fontStyle=0" parent="37snNz1Il1lQRJ-gbBLm-31" vertex="1">
          <mxGeometry x="225" width="50" height="27" as="geometry" />
        </mxCell>
        <mxCell id="37snNz1Il1lQRJ-gbBLm-35" value="4" style="rounded=0;whiteSpace=wrap;html=1;shadow=0;fontSize=11;fontStyle=0" parent="37snNz1Il1lQRJ-gbBLm-31" vertex="1">
          <mxGeometry x="275" width="60" height="27" as="geometry" />
        </mxCell>
        <mxCell id="37snNz1Il1lQRJ-gbBLm-36" value="" style="group" parent="qoZp44pRUg1mvCNyi3_d-1" vertex="1" connectable="0">
          <mxGeometry x="415" y="530" width="335" height="27" as="geometry" />
        </mxCell>
        <mxCell id="37snNz1Il1lQRJ-gbBLm-37" value="4" style="rounded=0;whiteSpace=wrap;html=1;shadow=0;fontSize=11;fontStyle=0" parent="37snNz1Il1lQRJ-gbBLm-36" vertex="1">
          <mxGeometry width="45" height="27" as="geometry" />
        </mxCell>
        <mxCell id="37snNz1Il1lQRJ-gbBLm-38" value="&lt;div class=&quot;prettyprint linenums&quot; style=&quot;font-size: 12px;&quot;&gt;&lt;div class=&quot;prettyprint linenums&quot; style=&quot;font-size: 12px;&quot;&gt;&lt;span style=&quot;font-size: 12px; text-align: left; background-color: rgba(255, 255, 255, 0.075);&quot;&gt;Enim esse magni.&lt;/span&gt;&lt;br style=&quot;font-size: 12px;&quot;&gt;&lt;/div&gt;&lt;/div&gt;" style="rounded=0;whiteSpace=wrap;html=1;shadow=0;fontSize=12;fontStyle=0;fontFamily=Helvetica;" parent="37snNz1Il1lQRJ-gbBLm-36" vertex="1">
          <mxGeometry x="45" width="180" height="27" as="geometry" />
        </mxCell>
        <mxCell id="37snNz1Il1lQRJ-gbBLm-39" value="3" style="rounded=0;whiteSpace=wrap;html=1;shadow=0;fontSize=11;fontStyle=0;" parent="37snNz1Il1lQRJ-gbBLm-36" vertex="1">
          <mxGeometry x="225" width="50" height="27" as="geometry" />
        </mxCell>
        <mxCell id="37snNz1Il1lQRJ-gbBLm-40" value="5" style="rounded=0;whiteSpace=wrap;html=1;shadow=0;fontSize=11;fontStyle=0;" parent="37snNz1Il1lQRJ-gbBLm-36" vertex="1">
          <mxGeometry x="275" width="60" height="27" as="geometry" />
        </mxCell>
        <mxCell id="37snNz1Il1lQRJ-gbBLm-41" value="" style="group" parent="qoZp44pRUg1mvCNyi3_d-1" vertex="1" connectable="0">
          <mxGeometry x="415" y="503" width="335" height="27" as="geometry" />
        </mxCell>
        <mxCell id="37snNz1Il1lQRJ-gbBLm-42" value="3" style="rounded=0;whiteSpace=wrap;html=1;shadow=0;fontSize=11;fontStyle=0" parent="37snNz1Il1lQRJ-gbBLm-41" vertex="1">
          <mxGeometry width="45" height="27" as="geometry" />
        </mxCell>
        <mxCell id="37snNz1Il1lQRJ-gbBLm-43" value="&lt;div class=&quot;prettyprint linenums&quot; style=&quot;font-size: 12px;&quot;&gt;&lt;div class=&quot;prettyprint linenums&quot; style=&quot;font-size: 12px;&quot;&gt;&lt;span style=&quot;font-size: 12px; text-align: left; background-color: rgba(255, 255, 255, 0.075);&quot;&gt;Et sit occaecati.&lt;/span&gt;&lt;br style=&quot;font-size: 12px;&quot;&gt;&lt;/div&gt;&lt;/div&gt;" style="rounded=0;whiteSpace=wrap;html=1;shadow=0;fontSize=12;fontStyle=0;fontFamily=Helvetica;" parent="37snNz1Il1lQRJ-gbBLm-41" vertex="1">
          <mxGeometry x="45" width="180" height="27" as="geometry" />
        </mxCell>
        <mxCell id="37snNz1Il1lQRJ-gbBLm-44" value="5" style="rounded=0;whiteSpace=wrap;html=1;shadow=0;fontSize=11;fontStyle=0;" parent="37snNz1Il1lQRJ-gbBLm-41" vertex="1">
          <mxGeometry x="225" width="50" height="27" as="geometry" />
        </mxCell>
        <mxCell id="37snNz1Il1lQRJ-gbBLm-45" value="5" style="rounded=0;whiteSpace=wrap;html=1;shadow=0;fontSize=11;fontStyle=0;" parent="37snNz1Il1lQRJ-gbBLm-41" vertex="1">
          <mxGeometry x="275" width="60" height="27" as="geometry" />
        </mxCell>
        <mxCell id="37snNz1Il1lQRJ-gbBLm-46" value="" style="group" parent="qoZp44pRUg1mvCNyi3_d-1" vertex="1" connectable="0">
          <mxGeometry x="415" y="476" width="335" height="27" as="geometry" />
        </mxCell>
        <mxCell id="37snNz1Il1lQRJ-gbBLm-47" value="2" style="rounded=0;whiteSpace=wrap;html=1;shadow=0;fontSize=11;fontStyle=0" parent="37snNz1Il1lQRJ-gbBLm-46" vertex="1">
          <mxGeometry width="45" height="27" as="geometry" />
        </mxCell>
        <mxCell id="37snNz1Il1lQRJ-gbBLm-48" value="&lt;div class=&quot;prettyprint linenums&quot; style=&quot;font-size: 12px;&quot;&gt;&lt;div class=&quot;prettyprint linenums&quot; style=&quot;font-size: 12px;&quot;&gt;&lt;span style=&quot;font-size: 12px; text-align: left; background-color: rgba(255, 255, 255, 0.075);&quot;&gt;Sed cumque in et.&lt;/span&gt;&lt;br style=&quot;font-size: 12px;&quot;&gt;&lt;/div&gt;&lt;/div&gt;" style="rounded=0;whiteSpace=wrap;html=1;shadow=0;fontSize=12;fontStyle=0;fontFamily=Helvetica;" parent="37snNz1Il1lQRJ-gbBLm-46" vertex="1">
          <mxGeometry x="45" width="180" height="27" as="geometry" />
        </mxCell>
        <mxCell id="37snNz1Il1lQRJ-gbBLm-49" value="3" style="rounded=0;whiteSpace=wrap;html=1;shadow=0;fontSize=11;fontStyle=0;" parent="37snNz1Il1lQRJ-gbBLm-46" vertex="1">
          <mxGeometry x="225" width="50" height="27" as="geometry" />
        </mxCell>
        <mxCell id="37snNz1Il1lQRJ-gbBLm-50" value="5" style="rounded=0;whiteSpace=wrap;html=1;shadow=0;fontSize=11;fontStyle=0;" parent="37snNz1Il1lQRJ-gbBLm-46" vertex="1">
          <mxGeometry x="275" width="60" height="27" as="geometry" />
        </mxCell>
        <mxCell id="37snNz1Il1lQRJ-gbBLm-51" value="" style="group" parent="qoZp44pRUg1mvCNyi3_d-1" vertex="1" connectable="0">
          <mxGeometry x="415" y="449" width="335" height="27" as="geometry" />
        </mxCell>
        <mxCell id="37snNz1Il1lQRJ-gbBLm-52" value="1" style="rounded=0;whiteSpace=wrap;html=1;shadow=0;fontSize=11;fontStyle=0" parent="37snNz1Il1lQRJ-gbBLm-51" vertex="1">
          <mxGeometry width="45" height="27" as="geometry" />
        </mxCell>
        <mxCell id="37snNz1Il1lQRJ-gbBLm-53" value="&lt;div class=&quot;prettyprint linenums&quot; style=&quot;font-size: 12px;&quot;&gt;&lt;div class=&quot;prettyprint linenums&quot; style=&quot;font-size: 12px;&quot;&gt;Non est totam&lt;/div&gt;&lt;/div&gt;" style="rounded=0;whiteSpace=wrap;html=1;shadow=0;fontSize=12;fontStyle=0;fontFamily=Helvetica;" parent="37snNz1Il1lQRJ-gbBLm-51" vertex="1">
          <mxGeometry x="45" width="180" height="27" as="geometry" />
        </mxCell>
        <mxCell id="37snNz1Il1lQRJ-gbBLm-54" value="1" style="rounded=0;whiteSpace=wrap;html=1;shadow=0;fontSize=11;fontStyle=0;" parent="37snNz1Il1lQRJ-gbBLm-51" vertex="1">
          <mxGeometry x="225" width="50" height="27" as="geometry" />
        </mxCell>
        <mxCell id="37snNz1Il1lQRJ-gbBLm-55" value="5" style="rounded=0;whiteSpace=wrap;html=1;shadow=0;fontSize=11;fontStyle=0;" parent="37snNz1Il1lQRJ-gbBLm-51" vertex="1">
          <mxGeometry x="275" width="60" height="27" as="geometry" />
        </mxCell>
        <mxCell id="37snNz1Il1lQRJ-gbBLm-59" value="" style="shape=curlyBracket;whiteSpace=wrap;html=1;rounded=1;shadow=0;fontFamily=Helvetica;fontSize=17;rotation=-180;fillColor=#f8cecc;strokeColor=#b85450;strokeWidth=5;" parent="qoZp44pRUg1mvCNyi3_d-1" vertex="1">
          <mxGeometry x="753" y="449" width="43" height="188" as="geometry" />
        </mxCell>
        <mxCell id="37snNz1Il1lQRJ-gbBLm-61" value="5" style="rounded=0;whiteSpace=wrap;html=1;shadow=0;strokeWidth=1;fontFamily=Helvetica;fontSize=27;" parent="qoZp44pRUg1mvCNyi3_d-1" vertex="1">
          <mxGeometry x="796" y="513" width="120" height="60" as="geometry" />
        </mxCell>
        <mxCell id="37snNz1Il1lQRJ-gbBLm-62" value="Max value from the &#39;photo_id&#39; column in these rows" style="text;html=1;strokeColor=none;fillColor=none;align=center;verticalAlign=middle;whiteSpace=wrap;rounded=0;shadow=0;fontFamily=Helvetica;fontSize=13;fontColor=#000000;fontStyle=2" parent="qoZp44pRUg1mvCNyi3_d-1" vertex="1">
          <mxGeometry x="785.5" y="587.5" width="141" height="20" as="geometry" />
        </mxCell>
      </root>
    </mxGraphModel>
  </diagram>
  <diagram id="asli1e2CmB-jrBuAraoy" name="07 - qs">
    <mxGraphModel dx="834" dy="514" grid="1" gridSize="10" guides="1" tooltips="1" connect="1" arrows="1" fold="1" page="1" pageScale="1" pageWidth="1920" pageHeight="1200" math="0" shadow="0">
      <root>
        <mxCell id="9hOn9Ob58K8SwSocdpLf-0" />
        <mxCell id="9hOn9Ob58K8SwSocdpLf-1" parent="9hOn9Ob58K8SwSocdpLf-0" />
        <mxCell id="vYIeksGEZ3zk5uFzZxxX-0" value="Find all the comments for the photo with ID = 3, along with the username of the comment author" style="rounded=0;whiteSpace=wrap;html=1;fontSize=18;fillColor=#dae8fc;strokeColor=#6c8ebf;" vertex="1" parent="9hOn9Ob58K8SwSocdpLf-1">
          <mxGeometry x="490" y="350" width="340" height="90" as="geometry" />
        </mxCell>
        <mxCell id="vYIeksGEZ3zk5uFzZxxX-1" value="The more tables we have, the more interesting questions we can answer" style="text;html=1;strokeColor=none;fillColor=none;align=center;verticalAlign=middle;whiteSpace=wrap;rounded=0;fontSize=22;fontStyle=1" vertex="1" parent="9hOn9Ob58K8SwSocdpLf-1">
          <mxGeometry x="650" y="300" width="390" height="30" as="geometry" />
        </mxCell>
        <mxCell id="vYIeksGEZ3zk5uFzZxxX-2" value="Find the photo with ID = 10 and get the &lt;b&gt;number of comments&lt;/b&gt; attached to it" style="rounded=0;whiteSpace=wrap;html=1;fontSize=18;fillColor=#dae8fc;strokeColor=#6c8ebf;" vertex="1" parent="9hOn9Ob58K8SwSocdpLf-1">
          <mxGeometry x="840" y="350" width="340" height="90" as="geometry" />
        </mxCell>
        <mxCell id="vYIeksGEZ3zk5uFzZxxX-3" value="Find the &lt;b&gt;average number of comments&lt;/b&gt; per photo" style="rounded=0;whiteSpace=wrap;html=1;fontSize=18;fillColor=#dae8fc;strokeColor=#6c8ebf;" vertex="1" parent="9hOn9Ob58K8SwSocdpLf-1">
          <mxGeometry x="490" y="450" width="340" height="90" as="geometry" />
        </mxCell>
        <mxCell id="vYIeksGEZ3zk5uFzZxxX-4" value="Find the user with the most activity (most comments + most photos)" style="rounded=0;whiteSpace=wrap;html=1;fontSize=18;fillColor=#dae8fc;strokeColor=#6c8ebf;" vertex="1" parent="9hOn9Ob58K8SwSocdpLf-1">
          <mxGeometry x="840" y="450" width="340" height="90" as="geometry" />
        </mxCell>
        <mxCell id="vYIeksGEZ3zk5uFzZxxX-5" value="Find the photo with the &lt;b&gt;most comments&lt;/b&gt; attached to it" style="rounded=0;whiteSpace=wrap;html=1;fontSize=18;fillColor=#dae8fc;strokeColor=#6c8ebf;" vertex="1" parent="9hOn9Ob58K8SwSocdpLf-1">
          <mxGeometry x="490" y="550" width="340" height="90" as="geometry" />
        </mxCell>
        <mxCell id="vYIeksGEZ3zk5uFzZxxX-6" value="Calculate the &lt;b&gt;average number of characters&lt;/b&gt; per comment" style="rounded=0;whiteSpace=wrap;html=1;fontSize=18;fillColor=#dae8fc;strokeColor=#6c8ebf;" vertex="1" parent="9hOn9Ob58K8SwSocdpLf-1">
          <mxGeometry x="840" y="550" width="340" height="90" as="geometry" />
        </mxCell>
      </root>
    </mxGraphModel>
  </diagram>
  <diagram id="GeADABXH7EaLOgAsmUhD" name="08 - num">
    <mxGraphModel dx="834" dy="514" grid="1" gridSize="10" guides="1" tooltips="1" connect="1" arrows="1" fold="1" page="1" pageScale="1" pageWidth="1920" pageHeight="1200" math="0" shadow="0">
      <root>
        <mxCell id="wJ88F2yCE09iQ6sI7R2M-0" />
        <mxCell id="wJ88F2yCE09iQ6sI7R2M-1" parent="wJ88F2yCE09iQ6sI7R2M-0" />
        <mxCell id="wJ88F2yCE09iQ6sI7R2M-2" value="Database" style="rounded=0;whiteSpace=wrap;html=1;shadow=1;fontSize=22;fillColor=#d5e8d4;strokeColor=#82b366;" vertex="1" parent="wJ88F2yCE09iQ6sI7R2M-1">
          <mxGeometry x="400" y="260" width="550" height="30" as="geometry" />
        </mxCell>
        <mxCell id="wJ88F2yCE09iQ6sI7R2M-3" value="" style="rounded=0;whiteSpace=wrap;html=1;shadow=1;fontSize=22;fillColor=#d5e8d4;strokeColor=#82b366;" vertex="1" parent="wJ88F2yCE09iQ6sI7R2M-1">
          <mxGeometry x="400" y="290" width="550" height="400" as="geometry" />
        </mxCell>
        <mxCell id="wJ88F2yCE09iQ6sI7R2M-4" value="photos" style="rounded=0;whiteSpace=wrap;html=1;shadow=1;fontSize=20;fillColor=#ffe6cc;strokeColor=#d79b00;" vertex="1" parent="wJ88F2yCE09iQ6sI7R2M-1">
          <mxGeometry x="415" y="305" width="245" height="25" as="geometry" />
        </mxCell>
        <mxCell id="wJ88F2yCE09iQ6sI7R2M-5" value="id" style="rounded=0;whiteSpace=wrap;html=1;shadow=1;fontSize=12;fillColor=#f5f5f5;strokeColor=#666666;fontColor=#333333;fontStyle=3" vertex="1" parent="wJ88F2yCE09iQ6sI7R2M-1">
          <mxGeometry x="415" y="330" width="45" height="27" as="geometry" />
        </mxCell>
        <mxCell id="wJ88F2yCE09iQ6sI7R2M-6" value="url" style="rounded=0;whiteSpace=wrap;html=1;shadow=1;fontSize=12;fillColor=#f5f5f5;strokeColor=#666666;fontColor=#333333;fontStyle=3" vertex="1" parent="wJ88F2yCE09iQ6sI7R2M-1">
          <mxGeometry x="460" y="330" width="130" height="27" as="geometry" />
        </mxCell>
        <mxCell id="wJ88F2yCE09iQ6sI7R2M-7" value="user_id" style="rounded=0;whiteSpace=wrap;html=1;shadow=1;fontSize=12;fillColor=#f5f5f5;strokeColor=#666666;fontColor=#333333;fontStyle=3" vertex="1" parent="wJ88F2yCE09iQ6sI7R2M-1">
          <mxGeometry x="590" y="330" width="70" height="27" as="geometry" />
        </mxCell>
        <mxCell id="wJ88F2yCE09iQ6sI7R2M-8" value="users" style="rounded=0;whiteSpace=wrap;html=1;shadow=1;fontSize=20;fillColor=#ffe6cc;strokeColor=#d79b00;" vertex="1" parent="wJ88F2yCE09iQ6sI7R2M-1">
          <mxGeometry x="760" y="305" width="180" height="25" as="geometry" />
        </mxCell>
        <mxCell id="wJ88F2yCE09iQ6sI7R2M-9" value="id" style="rounded=0;whiteSpace=wrap;html=1;shadow=1;fontSize=12;fillColor=#f5f5f5;strokeColor=#666666;fontColor=#333333;fontStyle=3" vertex="1" parent="wJ88F2yCE09iQ6sI7R2M-1">
          <mxGeometry x="760" y="330" width="70" height="27" as="geometry" />
        </mxCell>
        <mxCell id="wJ88F2yCE09iQ6sI7R2M-10" value="username" style="rounded=0;whiteSpace=wrap;html=1;shadow=1;fontSize=12;fillColor=#f5f5f5;strokeColor=#666666;fontColor=#333333;fontStyle=3" vertex="1" parent="wJ88F2yCE09iQ6sI7R2M-1">
          <mxGeometry x="830" y="330" width="110" height="27" as="geometry" />
        </mxCell>
        <mxCell id="wJ88F2yCE09iQ6sI7R2M-11" value="comments" style="rounded=0;whiteSpace=wrap;html=1;shadow=1;fontSize=20;fillColor=#ffe6cc;strokeColor=#d79b00;" vertex="1" parent="wJ88F2yCE09iQ6sI7R2M-1">
          <mxGeometry x="415" y="520" width="335" height="25" as="geometry" />
        </mxCell>
        <mxCell id="wJ88F2yCE09iQ6sI7R2M-12" value="id" style="rounded=0;whiteSpace=wrap;html=1;shadow=1;fontSize=12;fillColor=#f5f5f5;strokeColor=#666666;fontColor=#333333;fontStyle=3" vertex="1" parent="wJ88F2yCE09iQ6sI7R2M-1">
          <mxGeometry x="415" y="545" width="45" height="27" as="geometry" />
        </mxCell>
        <mxCell id="wJ88F2yCE09iQ6sI7R2M-13" value="1" style="rounded=0;whiteSpace=wrap;html=1;shadow=1;fontSize=11;fontStyle=0" vertex="1" parent="wJ88F2yCE09iQ6sI7R2M-1">
          <mxGeometry x="760" y="357" width="70" height="27" as="geometry" />
        </mxCell>
        <mxCell id="wJ88F2yCE09iQ6sI7R2M-14" value="Reyna.Marvin" style="rounded=0;whiteSpace=wrap;html=1;shadow=1;fontSize=11;fontStyle=0" vertex="1" parent="wJ88F2yCE09iQ6sI7R2M-1">
          <mxGeometry x="830" y="357" width="110" height="27" as="geometry" />
        </mxCell>
        <mxCell id="wJ88F2yCE09iQ6sI7R2M-15" value="2" style="rounded=0;whiteSpace=wrap;html=1;shadow=1;fontSize=11;fontStyle=0" vertex="1" parent="wJ88F2yCE09iQ6sI7R2M-1">
          <mxGeometry x="760" y="384" width="70" height="27" as="geometry" />
        </mxCell>
        <mxCell id="wJ88F2yCE09iQ6sI7R2M-16" value="Micah.Cremin" style="rounded=0;whiteSpace=wrap;html=1;shadow=1;fontSize=11;fontStyle=0" vertex="1" parent="wJ88F2yCE09iQ6sI7R2M-1">
          <mxGeometry x="830" y="384" width="110" height="27" as="geometry" />
        </mxCell>
        <mxCell id="wJ88F2yCE09iQ6sI7R2M-17" value="3" style="rounded=0;whiteSpace=wrap;html=1;shadow=1;fontSize=11;fontStyle=0" vertex="1" parent="wJ88F2yCE09iQ6sI7R2M-1">
          <mxGeometry x="760" y="411" width="70" height="27" as="geometry" />
        </mxCell>
        <mxCell id="wJ88F2yCE09iQ6sI7R2M-18" value="Alfredo66" style="rounded=0;whiteSpace=wrap;html=1;shadow=1;fontSize=11;fontStyle=0" vertex="1" parent="wJ88F2yCE09iQ6sI7R2M-1">
          <mxGeometry x="830" y="411" width="110" height="27" as="geometry" />
        </mxCell>
        <mxCell id="wJ88F2yCE09iQ6sI7R2M-19" value="4" style="rounded=0;whiteSpace=wrap;html=1;shadow=1;fontSize=11;fontStyle=0" vertex="1" parent="wJ88F2yCE09iQ6sI7R2M-1">
          <mxGeometry x="760" y="438" width="70" height="27" as="geometry" />
        </mxCell>
        <mxCell id="wJ88F2yCE09iQ6sI7R2M-20" value="Gerard_Mitchell42" style="rounded=0;whiteSpace=wrap;html=1;shadow=1;fontSize=11;fontStyle=0" vertex="1" parent="wJ88F2yCE09iQ6sI7R2M-1">
          <mxGeometry x="830" y="438" width="110" height="27" as="geometry" />
        </mxCell>
        <mxCell id="wJ88F2yCE09iQ6sI7R2M-21" value="5" style="rounded=0;whiteSpace=wrap;html=1;shadow=1;fontSize=11;fontStyle=0" vertex="1" parent="wJ88F2yCE09iQ6sI7R2M-1">
          <mxGeometry x="760" y="465" width="70" height="27" as="geometry" />
        </mxCell>
        <mxCell id="wJ88F2yCE09iQ6sI7R2M-22" value="Frederique_Donnelly" style="rounded=0;whiteSpace=wrap;html=1;shadow=1;fontSize=11;fontStyle=0" vertex="1" parent="wJ88F2yCE09iQ6sI7R2M-1">
          <mxGeometry x="830" y="465" width="110" height="27" as="geometry" />
        </mxCell>
        <mxCell id="wJ88F2yCE09iQ6sI7R2M-23" value="1" style="rounded=0;whiteSpace=wrap;html=1;shadow=1;fontSize=11;fontStyle=0" vertex="1" parent="wJ88F2yCE09iQ6sI7R2M-1">
          <mxGeometry x="415" y="357" width="45" height="27" as="geometry" />
        </mxCell>
        <mxCell id="wJ88F2yCE09iQ6sI7R2M-24" value="&lt;p class=&quot;p1&quot; style=&quot;margin: 0px ; font-stretch: normal ; font-size: 12px ; line-height: normal ; font-family: &amp;#34;helvetica neue&amp;#34;&quot;&gt;https://santina.net&lt;/p&gt;" style="rounded=0;whiteSpace=wrap;html=1;shadow=1;fontSize=11;fontStyle=0" vertex="1" parent="wJ88F2yCE09iQ6sI7R2M-1">
          <mxGeometry x="460" y="357" width="130" height="27" as="geometry" />
        </mxCell>
        <mxCell id="wJ88F2yCE09iQ6sI7R2M-25" value="3" style="rounded=0;whiteSpace=wrap;html=1;shadow=1;fontSize=11;fontStyle=0" vertex="1" parent="wJ88F2yCE09iQ6sI7R2M-1">
          <mxGeometry x="590" y="357" width="70" height="27" as="geometry" />
        </mxCell>
        <mxCell id="wJ88F2yCE09iQ6sI7R2M-26" value="2" style="rounded=0;whiteSpace=wrap;html=1;shadow=1;fontSize=11;fontStyle=0" vertex="1" parent="wJ88F2yCE09iQ6sI7R2M-1">
          <mxGeometry x="415" y="384" width="45" height="27" as="geometry" />
        </mxCell>
        <mxCell id="wJ88F2yCE09iQ6sI7R2M-27" value="&lt;p class=&quot;p1&quot; style=&quot;margin: 0px ; font-stretch: normal ; font-size: 12px ; line-height: normal ; font-family: &amp;#34;helvetica neue&amp;#34;&quot;&gt;https://alayna.net&lt;/p&gt;" style="rounded=0;whiteSpace=wrap;html=1;shadow=1;fontSize=11;fontStyle=0" vertex="1" parent="wJ88F2yCE09iQ6sI7R2M-1">
          <mxGeometry x="460" y="384" width="130" height="27" as="geometry" />
        </mxCell>
        <mxCell id="wJ88F2yCE09iQ6sI7R2M-28" value="5" style="rounded=0;whiteSpace=wrap;html=1;shadow=1;fontSize=11;fontStyle=0" vertex="1" parent="wJ88F2yCE09iQ6sI7R2M-1">
          <mxGeometry x="590" y="384" width="70" height="27" as="geometry" />
        </mxCell>
        <mxCell id="wJ88F2yCE09iQ6sI7R2M-29" style="edgeStyle=orthogonalEdgeStyle;rounded=0;orthogonalLoop=1;jettySize=auto;html=1;exitX=0.5;exitY=1;exitDx=0;exitDy=0;fontSize=11;" edge="1" parent="wJ88F2yCE09iQ6sI7R2M-1" source="wJ88F2yCE09iQ6sI7R2M-30" target="wJ88F2yCE09iQ6sI7R2M-33">
          <mxGeometry relative="1" as="geometry" />
        </mxCell>
        <mxCell id="wJ88F2yCE09iQ6sI7R2M-30" value="3" style="rounded=0;whiteSpace=wrap;html=1;shadow=1;fontSize=11;fontStyle=0" vertex="1" parent="wJ88F2yCE09iQ6sI7R2M-1">
          <mxGeometry x="415" y="411" width="45" height="27" as="geometry" />
        </mxCell>
        <mxCell id="wJ88F2yCE09iQ6sI7R2M-31" value="&lt;p class=&quot;p1&quot; style=&quot;margin: 0px ; font-stretch: normal ; font-size: 12px ; line-height: normal ; font-family: &amp;#34;helvetica neue&amp;#34;&quot;&gt;https://kailyn.name&lt;/p&gt;" style="rounded=0;whiteSpace=wrap;html=1;shadow=1;fontSize=11;fontStyle=0" vertex="1" parent="wJ88F2yCE09iQ6sI7R2M-1">
          <mxGeometry x="460" y="411" width="130" height="27" as="geometry" />
        </mxCell>
        <mxCell id="wJ88F2yCE09iQ6sI7R2M-32" value="3" style="rounded=0;whiteSpace=wrap;html=1;shadow=1;fontSize=11;fontStyle=0" vertex="1" parent="wJ88F2yCE09iQ6sI7R2M-1">
          <mxGeometry x="590" y="411" width="70" height="27" as="geometry" />
        </mxCell>
        <mxCell id="wJ88F2yCE09iQ6sI7R2M-33" value="20" style="rounded=0;whiteSpace=wrap;html=1;shadow=1;fontSize=11;fontStyle=0" vertex="1" parent="wJ88F2yCE09iQ6sI7R2M-1">
          <mxGeometry x="415" y="456.5" width="45" height="27" as="geometry" />
        </mxCell>
        <mxCell id="wJ88F2yCE09iQ6sI7R2M-34" value="&lt;p class=&quot;p1&quot; style=&quot;margin: 0px ; font-stretch: normal ; font-size: 12px ; line-height: normal ; font-family: &amp;#34;helvetica neue&amp;#34;&quot;&gt;http://sasha.com&lt;/p&gt;" style="rounded=0;whiteSpace=wrap;html=1;shadow=1;fontSize=11;fontStyle=0" vertex="1" parent="wJ88F2yCE09iQ6sI7R2M-1">
          <mxGeometry x="460" y="456.5" width="130" height="27" as="geometry" />
        </mxCell>
        <mxCell id="wJ88F2yCE09iQ6sI7R2M-35" value="3" style="rounded=0;whiteSpace=wrap;html=1;shadow=1;fontSize=11;fontStyle=0" vertex="1" parent="wJ88F2yCE09iQ6sI7R2M-1">
          <mxGeometry x="590" y="456.5" width="70" height="27" as="geometry" />
        </mxCell>
        <mxCell id="wJ88F2yCE09iQ6sI7R2M-36" value="contents" style="rounded=0;whiteSpace=wrap;html=1;shadow=1;fontSize=12;fillColor=#f5f5f5;strokeColor=#666666;fontColor=#333333;fontStyle=3" vertex="1" parent="wJ88F2yCE09iQ6sI7R2M-1">
          <mxGeometry x="460" y="545" width="180" height="27" as="geometry" />
        </mxCell>
        <mxCell id="wJ88F2yCE09iQ6sI7R2M-37" value="user_id" style="rounded=0;whiteSpace=wrap;html=1;shadow=1;fontSize=12;fillColor=#f5f5f5;strokeColor=#666666;fontColor=#333333;fontStyle=3" vertex="1" parent="wJ88F2yCE09iQ6sI7R2M-1">
          <mxGeometry x="640" y="545" width="50" height="27" as="geometry" />
        </mxCell>
        <mxCell id="wJ88F2yCE09iQ6sI7R2M-38" value="photo_id" style="rounded=0;whiteSpace=wrap;html=1;shadow=1;fontSize=12;fillColor=#f5f5f5;strokeColor=#666666;fontColor=#333333;fontStyle=3" vertex="1" parent="wJ88F2yCE09iQ6sI7R2M-1">
          <mxGeometry x="690" y="545" width="60" height="27" as="geometry" />
        </mxCell>
        <mxCell id="wJ88F2yCE09iQ6sI7R2M-39" value="1" style="rounded=0;whiteSpace=wrap;html=1;shadow=1;fontSize=11;fontStyle=0" vertex="1" parent="wJ88F2yCE09iQ6sI7R2M-1">
          <mxGeometry x="415" y="572" width="45" height="27" as="geometry" />
        </mxCell>
        <mxCell id="wJ88F2yCE09iQ6sI7R2M-40" value="&lt;pre class=&quot;prettyprint linenums&quot;&gt;Quo velit iusto ducimus&lt;/pre&gt;" style="rounded=0;whiteSpace=wrap;html=1;shadow=1;fontSize=11;fontStyle=0" vertex="1" parent="wJ88F2yCE09iQ6sI7R2M-1">
          <mxGeometry x="460" y="572" width="180" height="27" as="geometry" />
        </mxCell>
        <mxCell id="wJ88F2yCE09iQ6sI7R2M-41" value="2" style="rounded=0;whiteSpace=wrap;html=1;shadow=1;fontSize=11;fontStyle=0" vertex="1" parent="wJ88F2yCE09iQ6sI7R2M-1">
          <mxGeometry x="640" y="572" width="50" height="27" as="geometry" />
        </mxCell>
        <mxCell id="wJ88F2yCE09iQ6sI7R2M-42" value="4" style="rounded=0;whiteSpace=wrap;html=1;shadow=1;fontSize=11;fontStyle=0" vertex="1" parent="wJ88F2yCE09iQ6sI7R2M-1">
          <mxGeometry x="690" y="572" width="60" height="27" as="geometry" />
        </mxCell>
        <mxCell id="wJ88F2yCE09iQ6sI7R2M-43" style="edgeStyle=orthogonalEdgeStyle;rounded=0;orthogonalLoop=1;jettySize=auto;html=1;exitX=0.5;exitY=1;exitDx=0;exitDy=0;fontSize=11;" edge="1" parent="wJ88F2yCE09iQ6sI7R2M-1" source="wJ88F2yCE09iQ6sI7R2M-44" target="wJ88F2yCE09iQ6sI7R2M-48">
          <mxGeometry relative="1" as="geometry" />
        </mxCell>
        <mxCell id="wJ88F2yCE09iQ6sI7R2M-44" value="2" style="rounded=0;whiteSpace=wrap;html=1;shadow=1;fontSize=11;fontStyle=0" vertex="1" parent="wJ88F2yCE09iQ6sI7R2M-1">
          <mxGeometry x="415" y="599" width="45" height="27" as="geometry" />
        </mxCell>
        <mxCell id="wJ88F2yCE09iQ6sI7R2M-45" value="&lt;pre class=&quot;prettyprint linenums&quot;&gt;&lt;pre class=&quot;prettyprint linenums&quot;&gt;Non est totam&lt;/pre&gt;&lt;/pre&gt;" style="rounded=0;whiteSpace=wrap;html=1;shadow=1;fontSize=11;fontStyle=0" vertex="1" parent="wJ88F2yCE09iQ6sI7R2M-1">
          <mxGeometry x="460" y="599" width="180" height="27" as="geometry" />
        </mxCell>
        <mxCell id="wJ88F2yCE09iQ6sI7R2M-46" value="5" style="rounded=0;whiteSpace=wrap;html=1;shadow=1;fontSize=11;fontStyle=0" vertex="1" parent="wJ88F2yCE09iQ6sI7R2M-1">
          <mxGeometry x="640" y="599" width="50" height="27" as="geometry" />
        </mxCell>
        <mxCell id="wJ88F2yCE09iQ6sI7R2M-47" value="5" style="rounded=0;whiteSpace=wrap;html=1;shadow=1;fontSize=11;fontStyle=0" vertex="1" parent="wJ88F2yCE09iQ6sI7R2M-1">
          <mxGeometry x="690" y="599" width="60" height="27" as="geometry" />
        </mxCell>
        <mxCell id="wJ88F2yCE09iQ6sI7R2M-48" value="100" style="rounded=0;whiteSpace=wrap;html=1;shadow=1;fontSize=11;fontStyle=0" vertex="1" parent="wJ88F2yCE09iQ6sI7R2M-1">
          <mxGeometry x="415" y="650" width="45" height="27" as="geometry" />
        </mxCell>
        <mxCell id="wJ88F2yCE09iQ6sI7R2M-49" value="&lt;pre class=&quot;prettyprint linenums&quot;&gt;&lt;pre class=&quot;prettyprint linenums&quot;&gt;Minima dolorem reiciendis&lt;/pre&gt;&lt;/pre&gt;" style="rounded=0;whiteSpace=wrap;html=1;shadow=1;fontSize=11;fontStyle=0" vertex="1" parent="wJ88F2yCE09iQ6sI7R2M-1">
          <mxGeometry x="460" y="650" width="180" height="27" as="geometry" />
        </mxCell>
        <mxCell id="wJ88F2yCE09iQ6sI7R2M-50" value="3" style="rounded=0;whiteSpace=wrap;html=1;shadow=1;fontSize=11;fontStyle=0" vertex="1" parent="wJ88F2yCE09iQ6sI7R2M-1">
          <mxGeometry x="640" y="650" width="50" height="27" as="geometry" />
        </mxCell>
        <mxCell id="wJ88F2yCE09iQ6sI7R2M-51" value="3" style="rounded=0;whiteSpace=wrap;html=1;shadow=1;fontSize=11;fontStyle=0" vertex="1" parent="wJ88F2yCE09iQ6sI7R2M-1">
          <mxGeometry x="690" y="650" width="60" height="27" as="geometry" />
        </mxCell>
      </root>
    </mxGraphModel>
  </diagram>
  <diagram id="gOqel4_eva0-e3X5-kkd" name="09 - avg">
    <mxGraphModel dx="920" dy="848" grid="1" gridSize="10" guides="1" tooltips="1" connect="1" arrows="1" fold="1" page="1" pageScale="1" pageWidth="1920" pageHeight="1200" math="0" shadow="0">
      <root>
        <mxCell id="8wGyIBXowck0ARUT17N1-0" />
        <mxCell id="8wGyIBXowck0ARUT17N1-1" parent="8wGyIBXowck0ARUT17N1-0" />
        <mxCell id="8wGyIBXowck0ARUT17N1-2" value="Find the number of comments for each photo&lt;br style=&quot;font-size: 15px;&quot;&gt;where &lt;br style=&quot;font-size: 15px;&quot;&gt;the photo_id is less than 3 &lt;br style=&quot;font-size: 15px;&quot;&gt;and &lt;br style=&quot;font-size: 15px;&quot;&gt;the photo has more than 2 comments" style="rounded=0;whiteSpace=wrap;html=1;fontSize=15;fillColor=#dae8fc;strokeColor=#6c8ebf;fontStyle=1" parent="8wGyIBXowck0ARUT17N1-1" vertex="1">
          <mxGeometry x="620" y="430" width="360" height="110" as="geometry" />
        </mxCell>
        <mxCell id="7KSY7_TcnYfZ93WGeYrb-0" value="" style="rounded=0;whiteSpace=wrap;html=1;shadow=1;fontSize=22;fillColor=#d5e8d4;strokeColor=#82b366;" parent="8wGyIBXowck0ARUT17N1-1" vertex="1">
          <mxGeometry x="1000" y="460" width="550" height="490" as="geometry" />
        </mxCell>
        <mxCell id="7KSY7_TcnYfZ93WGeYrb-1" value="Database" style="rounded=0;whiteSpace=wrap;html=1;shadow=1;fontSize=22;fillColor=#d5e8d4;strokeColor=#82b366;" parent="8wGyIBXowck0ARUT17N1-1" vertex="1">
          <mxGeometry x="1000" y="430" width="550" height="30" as="geometry" />
        </mxCell>
        <mxCell id="7KSY7_TcnYfZ93WGeYrb-2" value="grouped comments" style="rounded=0;whiteSpace=wrap;html=1;shadow=1;fontSize=20;fillColor=#ffe6cc;strokeColor=#d79b00;" parent="8wGyIBXowck0ARUT17N1-1" vertex="1">
          <mxGeometry x="1010" y="470" width="520" height="25" as="geometry" />
        </mxCell>
        <mxCell id="7KSY7_TcnYfZ93WGeYrb-3" value="GROUPED&lt;br&gt;photo_id" style="rounded=0;whiteSpace=wrap;html=1;shadow=1;fontSize=12;fillColor=#f5f5f5;strokeColor=#666666;fontColor=#333333;fontStyle=3" parent="8wGyIBXowck0ARUT17N1-1" vertex="1">
          <mxGeometry x="1010" y="495" width="70" height="32" as="geometry" />
        </mxCell>
        <mxCell id="7KSY7_TcnYfZ93WGeYrb-4" value="id" style="rounded=0;whiteSpace=wrap;html=1;shadow=1;fontSize=12;fillColor=#f8cecc;strokeColor=#b85450;fontStyle=3" parent="8wGyIBXowck0ARUT17N1-1" vertex="1">
          <mxGeometry x="1080" y="495" width="45" height="32" as="geometry" />
        </mxCell>
        <mxCell id="7KSY7_TcnYfZ93WGeYrb-5" value="contents" style="rounded=0;whiteSpace=wrap;html=1;shadow=1;fontSize=12;fillColor=#f8cecc;strokeColor=#b85450;fontStyle=3" parent="8wGyIBXowck0ARUT17N1-1" vertex="1">
          <mxGeometry x="1125" y="495" width="180" height="32" as="geometry" />
        </mxCell>
        <mxCell id="7KSY7_TcnYfZ93WGeYrb-6" value="user_id" style="rounded=0;whiteSpace=wrap;html=1;shadow=1;fontSize=12;fillColor=#f8cecc;strokeColor=#b85450;fontStyle=3" parent="8wGyIBXowck0ARUT17N1-1" vertex="1">
          <mxGeometry x="1305" y="495" width="50" height="32" as="geometry" />
        </mxCell>
        <mxCell id="7KSY7_TcnYfZ93WGeYrb-7" value="photo_id" style="rounded=0;whiteSpace=wrap;html=1;shadow=1;fontSize=12;fillColor=#f8cecc;strokeColor=#b85450;fontStyle=3" parent="8wGyIBXowck0ARUT17N1-1" vertex="1">
          <mxGeometry x="1355" y="495" width="60" height="32" as="geometry" />
        </mxCell>
        <mxCell id="7KSY7_TcnYfZ93WGeYrb-8" value="1" style="rounded=0;whiteSpace=wrap;html=1;shadow=1;fontSize=23;fontStyle=0" parent="8wGyIBXowck0ARUT17N1-1" vertex="1">
          <mxGeometry x="1010" y="540" width="70" height="70" as="geometry" />
        </mxCell>
        <mxCell id="7KSY7_TcnYfZ93WGeYrb-47" value="COUNT(*)" style="rounded=0;whiteSpace=wrap;html=1;shadow=1;fontSize=12;fillColor=#f5f5f5;strokeColor=#666666;fontColor=#333333;fontStyle=3" parent="8wGyIBXowck0ARUT17N1-1" vertex="1">
          <mxGeometry x="1415" y="495" width="115" height="32" as="geometry" />
        </mxCell>
        <mxCell id="7KSY7_TcnYfZ93WGeYrb-48" value="3" style="rounded=0;whiteSpace=wrap;html=1;shadow=0;fontSize=19;fontStyle=1;" parent="8wGyIBXowck0ARUT17N1-1" vertex="1">
          <mxGeometry x="1415" y="540" width="115" height="54" as="geometry" />
        </mxCell>
        <mxCell id="J2La6-7TGEMR5ftoVRRp-0" value="Database" style="rounded=0;whiteSpace=wrap;html=1;shadow=1;fontSize=22;fillColor=#d5e8d4;strokeColor=#82b366;" parent="8wGyIBXowck0ARUT17N1-1" vertex="1">
          <mxGeometry x="620" y="558" width="360" height="30" as="geometry" />
        </mxCell>
        <mxCell id="J2La6-7TGEMR5ftoVRRp-1" value="" style="rounded=0;whiteSpace=wrap;html=1;shadow=1;fontSize=22;fillColor=#d5e8d4;strokeColor=#82b366;" parent="8wGyIBXowck0ARUT17N1-1" vertex="1">
          <mxGeometry x="620" y="588" width="360" height="270" as="geometry" />
        </mxCell>
        <mxCell id="J2La6-7TGEMR5ftoVRRp-2" value="comments" style="rounded=0;whiteSpace=wrap;html=1;shadow=1;fontSize=20;fillColor=#ffe6cc;strokeColor=#d79b00;" parent="8wGyIBXowck0ARUT17N1-1" vertex="1">
          <mxGeometry x="632.5" y="598" width="335" height="25" as="geometry" />
        </mxCell>
        <mxCell id="J2La6-7TGEMR5ftoVRRp-3" value="id" style="rounded=0;whiteSpace=wrap;html=1;shadow=1;fontSize=12;fillColor=#f5f5f5;strokeColor=#666666;fontColor=#333333;fontStyle=3" parent="8wGyIBXowck0ARUT17N1-1" vertex="1">
          <mxGeometry x="632.5" y="623" width="45" height="27" as="geometry" />
        </mxCell>
        <mxCell id="J2La6-7TGEMR5ftoVRRp-4" value="contents" style="rounded=0;whiteSpace=wrap;html=1;shadow=1;fontSize=12;fillColor=#f5f5f5;strokeColor=#666666;fontColor=#333333;fontStyle=3" parent="8wGyIBXowck0ARUT17N1-1" vertex="1">
          <mxGeometry x="677.5" y="623" width="180" height="27" as="geometry" />
        </mxCell>
        <mxCell id="J2La6-7TGEMR5ftoVRRp-5" value="user_id" style="rounded=0;whiteSpace=wrap;html=1;shadow=1;fontSize=12;fillColor=#f5f5f5;strokeColor=#666666;fontColor=#333333;fontStyle=3" parent="8wGyIBXowck0ARUT17N1-1" vertex="1">
          <mxGeometry x="857.5" y="623" width="50" height="27" as="geometry" />
        </mxCell>
        <mxCell id="J2La6-7TGEMR5ftoVRRp-6" value="photo_id" style="rounded=0;whiteSpace=wrap;html=1;shadow=1;fontSize=12;fillColor=#f5f5f5;strokeColor=#666666;fontColor=#333333;fontStyle=3" parent="8wGyIBXowck0ARUT17N1-1" vertex="1">
          <mxGeometry x="907.5" y="623" width="60" height="27" as="geometry" />
        </mxCell>
        <mxCell id="J2La6-7TGEMR5ftoVRRp-7" value="" style="group" parent="8wGyIBXowck0ARUT17N1-1" vertex="1" connectable="0">
          <mxGeometry x="1080" y="594" width="335" height="27" as="geometry" />
        </mxCell>
        <mxCell id="J2La6-7TGEMR5ftoVRRp-8" value="7" style="rounded=0;whiteSpace=wrap;html=1;shadow=0;fontSize=11;fontStyle=0" parent="J2La6-7TGEMR5ftoVRRp-7" vertex="1">
          <mxGeometry width="45" height="27" as="geometry" />
        </mxCell>
        <mxCell id="J2La6-7TGEMR5ftoVRRp-9" value="&lt;div class=&quot;prettyprint linenums&quot; style=&quot;font-size: 12px;&quot;&gt;&lt;div class=&quot;prettyprint linenums&quot; style=&quot;font-size: 12px;&quot;&gt;Non est totam&lt;/div&gt;&lt;/div&gt;" style="rounded=0;whiteSpace=wrap;html=1;shadow=0;fontSize=12;fontStyle=0;fontFamily=Helvetica;" parent="J2La6-7TGEMR5ftoVRRp-7" vertex="1">
          <mxGeometry x="45" width="180" height="27" as="geometry" />
        </mxCell>
        <mxCell id="J2La6-7TGEMR5ftoVRRp-10" value="1" style="rounded=0;whiteSpace=wrap;html=1;shadow=0;fontSize=11;fontStyle=0;" parent="J2La6-7TGEMR5ftoVRRp-7" vertex="1">
          <mxGeometry x="225" width="50" height="27" as="geometry" />
        </mxCell>
        <mxCell id="J2La6-7TGEMR5ftoVRRp-11" value="1" style="rounded=0;whiteSpace=wrap;html=1;shadow=0;fontSize=11;fontStyle=0;" parent="J2La6-7TGEMR5ftoVRRp-7" vertex="1">
          <mxGeometry x="275" width="60" height="27" as="geometry" />
        </mxCell>
        <mxCell id="J2La6-7TGEMR5ftoVRRp-32" value="" style="group" parent="8wGyIBXowck0ARUT17N1-1" vertex="1" connectable="0">
          <mxGeometry x="1080" y="567" width="335" height="27" as="geometry" />
        </mxCell>
        <mxCell id="J2La6-7TGEMR5ftoVRRp-33" value="2" style="rounded=0;whiteSpace=wrap;html=1;shadow=0;fontSize=11;fontStyle=0" parent="J2La6-7TGEMR5ftoVRRp-32" vertex="1">
          <mxGeometry width="45" height="27" as="geometry" />
        </mxCell>
        <mxCell id="J2La6-7TGEMR5ftoVRRp-34" value="&lt;div class=&quot;prettyprint linenums&quot; style=&quot;font-size: 12px;&quot;&gt;&lt;div class=&quot;prettyprint linenums&quot; style=&quot;font-size: 12px;&quot;&gt;&lt;span style=&quot;font-size: 12px; text-align: left; background-color: rgba(255, 255, 255, 0.075);&quot;&gt;Sed cumque in et.&lt;/span&gt;&lt;br style=&quot;font-size: 12px;&quot;&gt;&lt;/div&gt;&lt;/div&gt;" style="rounded=0;whiteSpace=wrap;html=1;shadow=0;fontSize=12;fontStyle=0;fontFamily=Helvetica;" parent="J2La6-7TGEMR5ftoVRRp-32" vertex="1">
          <mxGeometry x="45" width="180" height="27" as="geometry" />
        </mxCell>
        <mxCell id="J2La6-7TGEMR5ftoVRRp-35" value="3" style="rounded=0;whiteSpace=wrap;html=1;shadow=0;fontSize=11;fontStyle=0;" parent="J2La6-7TGEMR5ftoVRRp-32" vertex="1">
          <mxGeometry x="225" width="50" height="27" as="geometry" />
        </mxCell>
        <mxCell id="J2La6-7TGEMR5ftoVRRp-36" value="1" style="rounded=0;whiteSpace=wrap;html=1;shadow=0;fontSize=11;fontStyle=0;" parent="J2La6-7TGEMR5ftoVRRp-32" vertex="1">
          <mxGeometry x="275" width="60" height="27" as="geometry" />
        </mxCell>
        <mxCell id="nMD6NVbHQlV2dVwnUbVa-0" value="" style="group" parent="8wGyIBXowck0ARUT17N1-1" vertex="1" connectable="0">
          <mxGeometry x="1080" y="540" width="335" height="27" as="geometry" />
        </mxCell>
        <mxCell id="nMD6NVbHQlV2dVwnUbVa-1" value="1" style="rounded=0;whiteSpace=wrap;html=1;shadow=0;fontSize=11;fontStyle=0" parent="nMD6NVbHQlV2dVwnUbVa-0" vertex="1">
          <mxGeometry width="45" height="27" as="geometry" />
        </mxCell>
        <mxCell id="nMD6NVbHQlV2dVwnUbVa-2" value="&lt;div class=&quot;prettyprint linenums&quot; style=&quot;font-size: 12px;&quot;&gt;&lt;div class=&quot;prettyprint linenums&quot; style=&quot;font-size: 12px;&quot;&gt;&lt;span style=&quot;font-size: 12px; text-align: left; background-color: rgba(255, 255, 255, 0.075);&quot;&gt;Sed cumque in et.&lt;/span&gt;&lt;br style=&quot;font-size: 12px;&quot;&gt;&lt;/div&gt;&lt;/div&gt;" style="rounded=0;whiteSpace=wrap;html=1;shadow=0;fontSize=12;fontStyle=0;fontFamily=Helvetica;" parent="nMD6NVbHQlV2dVwnUbVa-0" vertex="1">
          <mxGeometry x="45" width="180" height="27" as="geometry" />
        </mxCell>
        <mxCell id="nMD6NVbHQlV2dVwnUbVa-3" value="3" style="rounded=0;whiteSpace=wrap;html=1;shadow=0;fontSize=11;fontStyle=0;" parent="nMD6NVbHQlV2dVwnUbVa-0" vertex="1">
          <mxGeometry x="225" width="50" height="27" as="geometry" />
        </mxCell>
        <mxCell id="nMD6NVbHQlV2dVwnUbVa-4" value="1" style="rounded=0;whiteSpace=wrap;html=1;shadow=0;fontSize=11;fontStyle=0;" parent="nMD6NVbHQlV2dVwnUbVa-0" vertex="1">
          <mxGeometry x="275" width="60" height="27" as="geometry" />
        </mxCell>
      </root>
    </mxGraphModel>
  </diagram>
  <diagram id="-1L50xIgOPMbYF_-dAQO" name="10 - ex">
    <mxGraphModel dx="601" dy="370" grid="1" gridSize="10" guides="1" tooltips="1" connect="1" arrows="1" fold="1" page="1" pageScale="1" pageWidth="1920" pageHeight="1200" math="0" shadow="0">
      <root>
        <mxCell id="2n9x-K7EKkVrXxbcZA33-0" />
        <mxCell id="2n9x-K7EKkVrXxbcZA33-1" parent="2n9x-K7EKkVrXxbcZA33-0" />
        <mxCell id="2n9x-K7EKkVrXxbcZA33-2" value="Find the number of comments for each photo" style="rounded=0;whiteSpace=wrap;html=1;fontSize=18;fillColor=#dae8fc;strokeColor=#6c8ebf;fontStyle=1" vertex="1" parent="2n9x-K7EKkVrXxbcZA33-1">
          <mxGeometry x="610" y="430" width="360" height="90" as="geometry" />
        </mxCell>
      </root>
    </mxGraphModel>
  </diagram>
  <diagram name="10 - q" id="PbvSzTiaJz0ugfMwTXnI">
    <mxGraphModel dx="1043" dy="961" grid="1" gridSize="10" guides="1" tooltips="1" connect="1" arrows="1" fold="1" page="1" pageScale="1" pageWidth="1920" pageHeight="1200" math="0" shadow="0">
      <root>
        <mxCell id="Lyi7swaGztjGD9OB_siq-0" />
        <mxCell id="Lyi7swaGztjGD9OB_siq-1" parent="Lyi7swaGztjGD9OB_siq-0" />
        <mxCell id="Lyi7swaGztjGD9OB_siq-3" value="" style="rounded=0;whiteSpace=wrap;html=1;shadow=1;fontSize=22;fillColor=#d5e8d4;strokeColor=#82b366;" parent="Lyi7swaGztjGD9OB_siq-1" vertex="1">
          <mxGeometry x="630" y="460" width="910" height="370" as="geometry" />
        </mxCell>
        <mxCell id="Lyi7swaGztjGD9OB_siq-4" value="Database" style="rounded=0;whiteSpace=wrap;html=1;shadow=1;fontSize=22;fillColor=#d5e8d4;strokeColor=#82b366;" parent="Lyi7swaGztjGD9OB_siq-1" vertex="1">
          <mxGeometry x="630" y="430" width="910" height="30" as="geometry" />
        </mxCell>
        <mxCell id="Lyi7swaGztjGD9OB_siq-5" value="grouped phones" style="rounded=0;whiteSpace=wrap;html=1;shadow=1;fontSize=20;fillColor=#ffe6cc;strokeColor=#d79b00;" parent="Lyi7swaGztjGD9OB_siq-1" vertex="1">
          <mxGeometry x="1010" y="470" width="520" height="25" as="geometry" />
        </mxCell>
        <mxCell id="Lyi7swaGztjGD9OB_siq-6" value="GROUPED&lt;br style=&quot;font-size: 10px;&quot;&gt;manufacturer" style="rounded=0;whiteSpace=wrap;html=1;shadow=1;fontSize=10;fillColor=#f5f5f5;strokeColor=#666666;fontColor=#333333;fontStyle=3" parent="Lyi7swaGztjGD9OB_siq-1" vertex="1">
          <mxGeometry x="1010" y="495" width="70" height="32" as="geometry" />
        </mxCell>
        <mxCell id="Lyi7swaGztjGD9OB_siq-11" value="Samsung" style="rounded=0;whiteSpace=wrap;html=1;shadow=1;fontSize=13;fontStyle=0" parent="Lyi7swaGztjGD9OB_siq-1" vertex="1">
          <mxGeometry x="1010" y="540" width="70" height="80" as="geometry" />
        </mxCell>
        <mxCell id="Lyi7swaGztjGD9OB_siq-12" value="SUM(price*units_sold)" style="rounded=0;whiteSpace=wrap;html=1;shadow=1;fontSize=12;fillColor=#f5f5f5;strokeColor=#666666;fontColor=#333333;fontStyle=3" parent="Lyi7swaGztjGD9OB_siq-1" vertex="1">
          <mxGeometry x="1415" y="495" width="145" height="35" as="geometry" />
        </mxCell>
        <mxCell id="Lyi7swaGztjGD9OB_siq-16" value="phones" style="rounded=0;whiteSpace=wrap;html=1;shadow=1;fontSize=20;fillColor=#ffe6cc;strokeColor=#d79b00;" parent="Lyi7swaGztjGD9OB_siq-1" vertex="1">
          <mxGeometry x="642.5" y="470" width="335" height="25" as="geometry" />
        </mxCell>
        <mxCell id="Lyi7swaGztjGD9OB_siq-18" value="name" style="rounded=0;whiteSpace=wrap;html=1;shadow=1;fontSize=12;fillColor=#f5f5f5;strokeColor=#666666;fontColor=#333333;fontStyle=3" parent="Lyi7swaGztjGD9OB_siq-1" vertex="1">
          <mxGeometry x="642.5" y="495" width="107.5" height="27" as="geometry" />
        </mxCell>
        <mxCell id="_au0xIayhKZ6fOR4h7nc-2" value="5000000" style="rounded=0;whiteSpace=wrap;html=1;shadow=1;fontSize=23;fontStyle=0" parent="Lyi7swaGztjGD9OB_siq-1" vertex="1">
          <mxGeometry x="1437.5" y="540" width="70" height="80" as="geometry" />
        </mxCell>
        <mxCell id="_au0xIayhKZ6fOR4h7nc-5" value="manufacturer" style="rounded=0;whiteSpace=wrap;html=1;shadow=1;fontSize=12;fillColor=#f5f5f5;strokeColor=#666666;fontColor=#333333;fontStyle=3" parent="Lyi7swaGztjGD9OB_siq-1" vertex="1">
          <mxGeometry x="750" y="495" width="107.5" height="27" as="geometry" />
        </mxCell>
        <mxCell id="Lyi7swaGztjGD9OB_siq-19" value="price" style="rounded=0;whiteSpace=wrap;html=1;shadow=1;fontSize=12;fillColor=#f5f5f5;strokeColor=#666666;fontColor=#333333;fontStyle=3" parent="Lyi7swaGztjGD9OB_siq-1" vertex="1">
          <mxGeometry x="857.5" y="495" width="52.5" height="27" as="geometry" />
        </mxCell>
        <mxCell id="Lyi7swaGztjGD9OB_siq-20" value="units_sold" style="rounded=0;whiteSpace=wrap;html=1;shadow=1;fontSize=12;fillColor=#f5f5f5;strokeColor=#666666;fontColor=#333333;fontStyle=3" parent="Lyi7swaGztjGD9OB_siq-1" vertex="1">
          <mxGeometry x="910" y="495" width="67.5" height="27" as="geometry" />
        </mxCell>
        <mxCell id="_au0xIayhKZ6fOR4h7nc-14" value="Galaxy S" style="rounded=0;whiteSpace=wrap;html=1;shadow=1;fontSize=12;fontStyle=0" parent="Lyi7swaGztjGD9OB_siq-1" vertex="1">
          <mxGeometry x="1080" y="540" width="107.5" height="27" as="geometry" />
        </mxCell>
        <mxCell id="_au0xIayhKZ6fOR4h7nc-15" value="Samsung" style="rounded=0;whiteSpace=wrap;html=1;shadow=1;fontSize=12;fontStyle=0" parent="Lyi7swaGztjGD9OB_siq-1" vertex="1">
          <mxGeometry x="1187.5" y="540" width="107.5" height="27" as="geometry" />
        </mxCell>
        <mxCell id="_au0xIayhKZ6fOR4h7nc-16" value="299" style="rounded=0;whiteSpace=wrap;html=1;shadow=1;fontSize=12;fontStyle=0" parent="Lyi7swaGztjGD9OB_siq-1" vertex="1">
          <mxGeometry x="1295" y="540" width="52.5" height="27" as="geometry" />
        </mxCell>
        <mxCell id="_au0xIayhKZ6fOR4h7nc-17" value="2359" style="rounded=0;whiteSpace=wrap;html=1;shadow=1;fontSize=12;fontStyle=0" parent="Lyi7swaGztjGD9OB_siq-1" vertex="1">
          <mxGeometry x="1347.5" y="540" width="67.5" height="27" as="geometry" />
        </mxCell>
        <mxCell id="_au0xIayhKZ6fOR4h7nc-18" value="S5620" style="rounded=0;whiteSpace=wrap;html=1;shadow=1;fontSize=12;fontStyle=0" parent="Lyi7swaGztjGD9OB_siq-1" vertex="1">
          <mxGeometry x="1080" y="567" width="107.5" height="27" as="geometry" />
        </mxCell>
        <mxCell id="_au0xIayhKZ6fOR4h7nc-19" value="Samsung" style="rounded=0;whiteSpace=wrap;html=1;shadow=1;fontSize=12;fontStyle=0" parent="Lyi7swaGztjGD9OB_siq-1" vertex="1">
          <mxGeometry x="1187.5" y="567" width="107.5" height="27" as="geometry" />
        </mxCell>
        <mxCell id="_au0xIayhKZ6fOR4h7nc-20" value="250" style="rounded=0;whiteSpace=wrap;html=1;shadow=1;fontSize=12;fontStyle=0" parent="Lyi7swaGztjGD9OB_siq-1" vertex="1">
          <mxGeometry x="1295" y="567" width="52.5" height="27" as="geometry" />
        </mxCell>
        <mxCell id="_au0xIayhKZ6fOR4h7nc-21" value="2385" style="rounded=0;whiteSpace=wrap;html=1;shadow=1;fontSize=12;fontStyle=0" parent="Lyi7swaGztjGD9OB_siq-1" vertex="1">
          <mxGeometry x="1347.5" y="567" width="67.5" height="27" as="geometry" />
        </mxCell>
        <mxCell id="_au0xIayhKZ6fOR4h7nc-22" value="name" style="rounded=0;whiteSpace=wrap;html=1;shadow=1;fontSize=12;fillColor=#f8cecc;strokeColor=#b85450;fontStyle=3" parent="Lyi7swaGztjGD9OB_siq-1" vertex="1">
          <mxGeometry x="1080" y="495" width="107.5" height="32" as="geometry" />
        </mxCell>
        <mxCell id="_au0xIayhKZ6fOR4h7nc-23" value="manufacturer" style="rounded=0;whiteSpace=wrap;html=1;shadow=1;fontSize=12;fillColor=#f8cecc;strokeColor=#b85450;fontStyle=3" parent="Lyi7swaGztjGD9OB_siq-1" vertex="1">
          <mxGeometry x="1187.5" y="495" width="107.5" height="32" as="geometry" />
        </mxCell>
        <mxCell id="_au0xIayhKZ6fOR4h7nc-24" value="price" style="rounded=0;whiteSpace=wrap;html=1;shadow=1;fontSize=12;fillColor=#f8cecc;strokeColor=#b85450;fontStyle=3" parent="Lyi7swaGztjGD9OB_siq-1" vertex="1">
          <mxGeometry x="1295" y="495" width="52.5" height="32" as="geometry" />
        </mxCell>
        <mxCell id="_au0xIayhKZ6fOR4h7nc-25" value="units_sold" style="rounded=0;whiteSpace=wrap;html=1;shadow=1;fontSize=12;fillColor=#f8cecc;strokeColor=#b85450;fontStyle=3" parent="Lyi7swaGztjGD9OB_siq-1" vertex="1">
          <mxGeometry x="1347.5" y="495" width="67.5" height="32" as="geometry" />
        </mxCell>
      </root>
    </mxGraphModel>
  </diagram>
  <diagram id="3PUGTNPm8gNVgGicy4XK" name="11 - having">
    <mxGraphModel dx="601" dy="370" grid="1" gridSize="10" guides="1" tooltips="1" connect="1" arrows="1" fold="1" page="1" pageScale="1" pageWidth="1920" pageHeight="1200" math="0" shadow="0">
      <root>
        <mxCell id="v1RHcnr9mwVV_I99dlmi-0" />
        <mxCell id="v1RHcnr9mwVV_I99dlmi-1" parent="v1RHcnr9mwVV_I99dlmi-0" />
        <mxCell id="5l1eJSTtnBFXaJF6NxrF-2" style="edgeStyle=orthogonalEdgeStyle;rounded=0;orthogonalLoop=1;jettySize=auto;html=1;exitX=1;exitY=0.5;exitDx=0;exitDy=0;" edge="1" parent="v1RHcnr9mwVV_I99dlmi-1" source="5l1eJSTtnBFXaJF6NxrF-0" target="5l1eJSTtnBFXaJF6NxrF-1">
          <mxGeometry relative="1" as="geometry" />
        </mxCell>
        <mxCell id="5l1eJSTtnBFXaJF6NxrF-0" value="FROM" style="rounded=0;whiteSpace=wrap;html=1;fontSize=18;fillColor=#dae8fc;strokeColor=#6c8ebf;fontStyle=1" vertex="1" parent="v1RHcnr9mwVV_I99dlmi-1">
          <mxGeometry x="520" y="250" width="190" height="50" as="geometry" />
        </mxCell>
        <mxCell id="5l1eJSTtnBFXaJF6NxrF-1" value="Specifies starting set of rows to work with" style="rounded=0;whiteSpace=wrap;html=1;fontSize=15;fontStyle=0" vertex="1" parent="v1RHcnr9mwVV_I99dlmi-1">
          <mxGeometry x="750" y="250" width="310" height="50" as="geometry" />
        </mxCell>
        <mxCell id="5l1eJSTtnBFXaJF6NxrF-3" style="edgeStyle=orthogonalEdgeStyle;rounded=0;orthogonalLoop=1;jettySize=auto;html=1;exitX=1;exitY=0.5;exitDx=0;exitDy=0;" edge="1" parent="v1RHcnr9mwVV_I99dlmi-1" source="5l1eJSTtnBFXaJF6NxrF-4" target="5l1eJSTtnBFXaJF6NxrF-5">
          <mxGeometry relative="1" as="geometry" />
        </mxCell>
        <mxCell id="5l1eJSTtnBFXaJF6NxrF-4" value="WHERE" style="rounded=0;whiteSpace=wrap;html=1;fontSize=18;fillColor=#dae8fc;strokeColor=#6c8ebf;fontStyle=1" vertex="1" parent="v1RHcnr9mwVV_I99dlmi-1">
          <mxGeometry x="520" y="370" width="190" height="50" as="geometry" />
        </mxCell>
        <mxCell id="5l1eJSTtnBFXaJF6NxrF-5" value="Filters the set of rows" style="rounded=0;whiteSpace=wrap;html=1;fontSize=15;fontStyle=0" vertex="1" parent="v1RHcnr9mwVV_I99dlmi-1">
          <mxGeometry x="750" y="370" width="310" height="50" as="geometry" />
        </mxCell>
        <mxCell id="5l1eJSTtnBFXaJF6NxrF-6" style="edgeStyle=orthogonalEdgeStyle;rounded=0;orthogonalLoop=1;jettySize=auto;html=1;exitX=1;exitY=0.5;exitDx=0;exitDy=0;" edge="1" parent="v1RHcnr9mwVV_I99dlmi-1" source="5l1eJSTtnBFXaJF6NxrF-7" target="5l1eJSTtnBFXaJF6NxrF-8">
          <mxGeometry relative="1" as="geometry" />
        </mxCell>
        <mxCell id="5l1eJSTtnBFXaJF6NxrF-7" value="JOIN" style="rounded=0;whiteSpace=wrap;html=1;fontSize=18;fillColor=#dae8fc;strokeColor=#6c8ebf;fontStyle=1" vertex="1" parent="v1RHcnr9mwVV_I99dlmi-1">
          <mxGeometry x="520" y="310" width="190" height="50" as="geometry" />
        </mxCell>
        <mxCell id="5l1eJSTtnBFXaJF6NxrF-8" value="Merges in data from additional tables" style="rounded=0;whiteSpace=wrap;html=1;fontSize=15;fontStyle=0" vertex="1" parent="v1RHcnr9mwVV_I99dlmi-1">
          <mxGeometry x="750" y="310" width="310" height="50" as="geometry" />
        </mxCell>
        <mxCell id="5l1eJSTtnBFXaJF6NxrF-9" style="edgeStyle=orthogonalEdgeStyle;rounded=0;orthogonalLoop=1;jettySize=auto;html=1;exitX=1;exitY=0.5;exitDx=0;exitDy=0;" edge="1" parent="v1RHcnr9mwVV_I99dlmi-1" source="5l1eJSTtnBFXaJF6NxrF-10" target="5l1eJSTtnBFXaJF6NxrF-11">
          <mxGeometry relative="1" as="geometry" />
        </mxCell>
        <mxCell id="5l1eJSTtnBFXaJF6NxrF-10" value="GROUP BY" style="rounded=0;whiteSpace=wrap;html=1;fontSize=18;fillColor=#dae8fc;strokeColor=#6c8ebf;fontStyle=1" vertex="1" parent="v1RHcnr9mwVV_I99dlmi-1">
          <mxGeometry x="520" y="430" width="190" height="50" as="geometry" />
        </mxCell>
        <mxCell id="5l1eJSTtnBFXaJF6NxrF-11" value="Groups rows by a unique set of values" style="rounded=0;whiteSpace=wrap;html=1;fontSize=15;fontStyle=0" vertex="1" parent="v1RHcnr9mwVV_I99dlmi-1">
          <mxGeometry x="750" y="430" width="310" height="50" as="geometry" />
        </mxCell>
        <mxCell id="5l1eJSTtnBFXaJF6NxrF-12" value="" style="endArrow=classic;html=1;fontSize=15;" edge="1" parent="v1RHcnr9mwVV_I99dlmi-1">
          <mxGeometry width="50" height="50" relative="1" as="geometry">
            <mxPoint x="510" y="250" as="sourcePoint" />
            <mxPoint x="510" y="540" as="targetPoint" />
          </mxGeometry>
        </mxCell>
        <mxCell id="5l1eJSTtnBFXaJF6NxrF-13" style="edgeStyle=orthogonalEdgeStyle;rounded=0;orthogonalLoop=1;jettySize=auto;html=1;exitX=1;exitY=0.5;exitDx=0;exitDy=0;" edge="1" parent="v1RHcnr9mwVV_I99dlmi-1" source="5l1eJSTtnBFXaJF6NxrF-14" target="5l1eJSTtnBFXaJF6NxrF-15">
          <mxGeometry relative="1" as="geometry" />
        </mxCell>
        <mxCell id="5l1eJSTtnBFXaJF6NxrF-14" value="HAVING" style="rounded=0;whiteSpace=wrap;html=1;fontSize=18;fillColor=#dae8fc;strokeColor=#6c8ebf;fontStyle=1" vertex="1" parent="v1RHcnr9mwVV_I99dlmi-1">
          <mxGeometry x="520" y="490" width="190" height="50" as="geometry" />
        </mxCell>
        <mxCell id="5l1eJSTtnBFXaJF6NxrF-15" value="Filters the set of groups" style="rounded=0;whiteSpace=wrap;html=1;fontSize=15;fontStyle=0" vertex="1" parent="v1RHcnr9mwVV_I99dlmi-1">
          <mxGeometry x="750" y="490" width="310" height="50" as="geometry" />
        </mxCell>
      </root>
    </mxGraphModel>
  </diagram>
  <diagram name="Copy of 10 - q" id="Kd4Kj_niURfozrulwQ3l">
    <mxGraphModel dx="1502" dy="926" grid="1" gridSize="10" guides="1" tooltips="1" connect="1" arrows="1" fold="1" page="1" pageScale="1" pageWidth="1920" pageHeight="1200" math="0" shadow="0">
      <root>
        <mxCell id="M_I6Mr65UwFwFkiHeHTS-0" />
        <mxCell id="M_I6Mr65UwFwFkiHeHTS-1" parent="M_I6Mr65UwFwFkiHeHTS-0" />
        <mxCell id="M_I6Mr65UwFwFkiHeHTS-2" value="Find the users&lt;br&gt;where&lt;br&gt;the user has commented on the first 2 photos&lt;br&gt;and&lt;br&gt;the user added more than 2 comments on those photos" style="rounded=0;whiteSpace=wrap;html=1;fontSize=15;fillColor=#dae8fc;strokeColor=#6c8ebf;fontStyle=1" vertex="1" parent="M_I6Mr65UwFwFkiHeHTS-1">
          <mxGeometry x="461.25" y="430" width="440" height="110" as="geometry" />
        </mxCell>
        <mxCell id="M_I6Mr65UwFwFkiHeHTS-3" value="" style="rounded=0;whiteSpace=wrap;html=1;shadow=1;fontSize=22;fillColor=#d5e8d4;strokeColor=#82b366;" vertex="1" parent="M_I6Mr65UwFwFkiHeHTS-1">
          <mxGeometry x="1000" y="460" width="830" height="490" as="geometry" />
        </mxCell>
        <mxCell id="M_I6Mr65UwFwFkiHeHTS-4" value="Database" style="rounded=0;whiteSpace=wrap;html=1;shadow=1;fontSize=22;fillColor=#d5e8d4;strokeColor=#82b366;" vertex="1" parent="M_I6Mr65UwFwFkiHeHTS-1">
          <mxGeometry x="1000" y="430" width="830" height="30" as="geometry" />
        </mxCell>
        <mxCell id="M_I6Mr65UwFwFkiHeHTS-5" value="grouped comments" style="rounded=0;whiteSpace=wrap;html=1;shadow=1;fontSize=20;fillColor=#ffe6cc;strokeColor=#d79b00;" vertex="1" parent="M_I6Mr65UwFwFkiHeHTS-1">
          <mxGeometry x="1010" y="470" width="794" height="25" as="geometry" />
        </mxCell>
        <mxCell id="M_I6Mr65UwFwFkiHeHTS-6" value="GROUPED&lt;br&gt;user_id" style="rounded=0;whiteSpace=wrap;html=1;shadow=1;fontSize=12;fillColor=#f5f5f5;strokeColor=#666666;fontColor=#333333;fontStyle=3" vertex="1" parent="M_I6Mr65UwFwFkiHeHTS-1">
          <mxGeometry x="1010" y="495" width="70" height="32" as="geometry" />
        </mxCell>
        <mxCell id="M_I6Mr65UwFwFkiHeHTS-7" value="" style="rounded=0;whiteSpace=wrap;html=1;shadow=1;fontSize=23;fontStyle=0" vertex="1" parent="M_I6Mr65UwFwFkiHeHTS-1">
          <mxGeometry x="1010" y="540" width="70" height="80" as="geometry" />
        </mxCell>
        <mxCell id="M_I6Mr65UwFwFkiHeHTS-8" value="COUNT(*)" style="rounded=0;whiteSpace=wrap;html=1;shadow=1;fontSize=12;fillColor=#f5f5f5;strokeColor=#666666;fontColor=#333333;fontStyle=3" vertex="1" parent="M_I6Mr65UwFwFkiHeHTS-1">
          <mxGeometry x="1690" y="495" width="115" height="32" as="geometry" />
        </mxCell>
        <mxCell id="M_I6Mr65UwFwFkiHeHTS-9" value="Database" style="rounded=0;whiteSpace=wrap;html=1;shadow=1;fontSize=22;fillColor=#d5e8d4;strokeColor=#82b366;" vertex="1" parent="M_I6Mr65UwFwFkiHeHTS-1">
          <mxGeometry x="330" y="555" width="650" height="30" as="geometry" />
        </mxCell>
        <mxCell id="M_I6Mr65UwFwFkiHeHTS-10" value="" style="rounded=0;whiteSpace=wrap;html=1;shadow=1;fontSize=22;fillColor=#d5e8d4;strokeColor=#82b366;" vertex="1" parent="M_I6Mr65UwFwFkiHeHTS-1">
          <mxGeometry x="330" y="585" width="650" height="505" as="geometry" />
        </mxCell>
        <mxCell id="M_I6Mr65UwFwFkiHeHTS-11" value="comments" style="rounded=0;whiteSpace=wrap;html=1;shadow=1;fontSize=20;fillColor=#ffe6cc;strokeColor=#d79b00;" vertex="1" parent="M_I6Mr65UwFwFkiHeHTS-1">
          <mxGeometry x="342.5" y="595" width="335" height="25" as="geometry" />
        </mxCell>
        <mxCell id="M_I6Mr65UwFwFkiHeHTS-12" value="id" style="rounded=0;whiteSpace=wrap;html=1;shadow=1;fontSize=12;fillColor=#f5f5f5;strokeColor=#666666;fontColor=#333333;fontStyle=3" vertex="1" parent="M_I6Mr65UwFwFkiHeHTS-1">
          <mxGeometry x="342.5" y="620" width="45" height="27" as="geometry" />
        </mxCell>
        <mxCell id="M_I6Mr65UwFwFkiHeHTS-13" value="contents" style="rounded=0;whiteSpace=wrap;html=1;shadow=1;fontSize=12;fillColor=#f5f5f5;strokeColor=#666666;fontColor=#333333;fontStyle=3" vertex="1" parent="M_I6Mr65UwFwFkiHeHTS-1">
          <mxGeometry x="387.5" y="620" width="180" height="27" as="geometry" />
        </mxCell>
        <mxCell id="M_I6Mr65UwFwFkiHeHTS-14" value="user_id" style="rounded=0;whiteSpace=wrap;html=1;shadow=1;fontSize=12;fillColor=#f5f5f5;strokeColor=#666666;fontColor=#333333;fontStyle=3" vertex="1" parent="M_I6Mr65UwFwFkiHeHTS-1">
          <mxGeometry x="567.5" y="620" width="50" height="27" as="geometry" />
        </mxCell>
        <mxCell id="M_I6Mr65UwFwFkiHeHTS-15" value="photo_id" style="rounded=0;whiteSpace=wrap;html=1;shadow=1;fontSize=12;fillColor=#f5f5f5;strokeColor=#666666;fontColor=#333333;fontStyle=3" vertex="1" parent="M_I6Mr65UwFwFkiHeHTS-1">
          <mxGeometry x="617.5" y="620" width="60" height="27" as="geometry" />
        </mxCell>
        <mxCell id="M_I6Mr65UwFwFkiHeHTS-16" value="" style="group" vertex="1" connectable="0" parent="M_I6Mr65UwFwFkiHeHTS-1">
          <mxGeometry x="342.5" y="809" width="335" height="27" as="geometry" />
        </mxCell>
        <mxCell id="M_I6Mr65UwFwFkiHeHTS-17" value="7" style="rounded=0;whiteSpace=wrap;html=1;shadow=0;fontSize=11;fontStyle=0" vertex="1" parent="M_I6Mr65UwFwFkiHeHTS-16">
          <mxGeometry width="45" height="27" as="geometry" />
        </mxCell>
        <mxCell id="M_I6Mr65UwFwFkiHeHTS-18" value="&lt;div class=&quot;prettyprint linenums&quot; style=&quot;font-size: 12px;&quot;&gt;&lt;div class=&quot;prettyprint linenums&quot; style=&quot;font-size: 12px;&quot;&gt;Non est totam&lt;/div&gt;&lt;/div&gt;" style="rounded=0;whiteSpace=wrap;html=1;shadow=0;fontSize=12;fontStyle=0;fontFamily=Helvetica;" vertex="1" parent="M_I6Mr65UwFwFkiHeHTS-16">
          <mxGeometry x="45" width="180" height="27" as="geometry" />
        </mxCell>
        <mxCell id="M_I6Mr65UwFwFkiHeHTS-19" value="1" style="rounded=0;whiteSpace=wrap;html=1;shadow=0;fontSize=11;fontStyle=0;" vertex="1" parent="M_I6Mr65UwFwFkiHeHTS-16">
          <mxGeometry x="225" width="50" height="27" as="geometry" />
        </mxCell>
        <mxCell id="M_I6Mr65UwFwFkiHeHTS-20" value="1" style="rounded=0;whiteSpace=wrap;html=1;shadow=0;fontSize=11;fontStyle=0;" vertex="1" parent="M_I6Mr65UwFwFkiHeHTS-16">
          <mxGeometry x="275" width="60" height="27" as="geometry" />
        </mxCell>
        <mxCell id="M_I6Mr65UwFwFkiHeHTS-21" value="" style="group" vertex="1" connectable="0" parent="M_I6Mr65UwFwFkiHeHTS-1">
          <mxGeometry x="342.5" y="782" width="335" height="27" as="geometry" />
        </mxCell>
        <mxCell id="M_I6Mr65UwFwFkiHeHTS-22" value="6" style="rounded=0;whiteSpace=wrap;html=1;shadow=0;fontSize=11;fontStyle=0" vertex="1" parent="M_I6Mr65UwFwFkiHeHTS-21">
          <mxGeometry width="45" height="27" as="geometry" />
        </mxCell>
        <mxCell id="M_I6Mr65UwFwFkiHeHTS-23" value="&lt;div class=&quot;prettyprint linenums&quot; style=&quot;font-size: 12px;&quot;&gt;&lt;div class=&quot;prettyprint linenums&quot; style=&quot;font-size: 12px;&quot;&gt;&lt;span style=&quot;font-size: 12px; text-align: left; background-color: rgba(255, 255, 255, 0.075);&quot;&gt;Voluptas ab eius.&lt;/span&gt;&lt;br style=&quot;font-size: 12px;&quot;&gt;&lt;/div&gt;&lt;/div&gt;" style="rounded=0;whiteSpace=wrap;html=1;shadow=0;fontSize=12;fontStyle=0;fontFamily=Helvetica;" vertex="1" parent="M_I6Mr65UwFwFkiHeHTS-21">
          <mxGeometry x="45" width="180" height="27" as="geometry" />
        </mxCell>
        <mxCell id="M_I6Mr65UwFwFkiHeHTS-24" value="1" style="rounded=0;whiteSpace=wrap;html=1;shadow=0;fontSize=11;fontStyle=0;" vertex="1" parent="M_I6Mr65UwFwFkiHeHTS-21">
          <mxGeometry x="225" width="50" height="27" as="geometry" />
        </mxCell>
        <mxCell id="M_I6Mr65UwFwFkiHeHTS-25" value="1" style="rounded=0;whiteSpace=wrap;html=1;shadow=0;fontSize=11;fontStyle=0;" vertex="1" parent="M_I6Mr65UwFwFkiHeHTS-21">
          <mxGeometry x="275" width="60" height="27" as="geometry" />
        </mxCell>
        <mxCell id="M_I6Mr65UwFwFkiHeHTS-26" value="" style="group" vertex="1" connectable="0" parent="M_I6Mr65UwFwFkiHeHTS-1">
          <mxGeometry x="342.5" y="755" width="335" height="27" as="geometry" />
        </mxCell>
        <mxCell id="M_I6Mr65UwFwFkiHeHTS-27" value="5" style="rounded=0;whiteSpace=wrap;html=1;shadow=0;fontSize=11;fontStyle=0" vertex="1" parent="M_I6Mr65UwFwFkiHeHTS-26">
          <mxGeometry width="45" height="27" as="geometry" />
        </mxCell>
        <mxCell id="M_I6Mr65UwFwFkiHeHTS-28" value="&lt;div class=&quot;prettyprint linenums&quot; style=&quot;font-size: 12px;&quot;&gt;Quo velit iusto ducimus&lt;/div&gt;" style="rounded=0;whiteSpace=wrap;html=1;shadow=0;fontSize=12;fontStyle=0;fontFamily=Helvetica;" vertex="1" parent="M_I6Mr65UwFwFkiHeHTS-26">
          <mxGeometry x="45" width="180" height="27" as="geometry" />
        </mxCell>
        <mxCell id="M_I6Mr65UwFwFkiHeHTS-29" value="2" style="rounded=0;whiteSpace=wrap;html=1;shadow=0;fontSize=11;fontStyle=0" vertex="1" parent="M_I6Mr65UwFwFkiHeHTS-26">
          <mxGeometry x="225" width="50" height="27" as="geometry" />
        </mxCell>
        <mxCell id="M_I6Mr65UwFwFkiHeHTS-30" value="3" style="rounded=0;whiteSpace=wrap;html=1;shadow=0;fontSize=11;fontStyle=0" vertex="1" parent="M_I6Mr65UwFwFkiHeHTS-26">
          <mxGeometry x="275" width="60" height="27" as="geometry" />
        </mxCell>
        <mxCell id="M_I6Mr65UwFwFkiHeHTS-31" value="" style="group" vertex="1" connectable="0" parent="M_I6Mr65UwFwFkiHeHTS-1">
          <mxGeometry x="342.5" y="728" width="335" height="27" as="geometry" />
        </mxCell>
        <mxCell id="M_I6Mr65UwFwFkiHeHTS-32" value="4" style="rounded=0;whiteSpace=wrap;html=1;shadow=0;fontSize=11;fontStyle=0" vertex="1" parent="M_I6Mr65UwFwFkiHeHTS-31">
          <mxGeometry width="45" height="27" as="geometry" />
        </mxCell>
        <mxCell id="M_I6Mr65UwFwFkiHeHTS-33" value="&lt;div class=&quot;prettyprint linenums&quot; style=&quot;font-size: 12px;&quot;&gt;&lt;div class=&quot;prettyprint linenums&quot; style=&quot;font-size: 12px;&quot;&gt;&lt;span style=&quot;font-size: 12px; text-align: left; background-color: rgba(255, 255, 255, 0.075);&quot;&gt;Enim esse magni.&lt;/span&gt;&lt;br style=&quot;font-size: 12px;&quot;&gt;&lt;/div&gt;&lt;/div&gt;" style="rounded=0;whiteSpace=wrap;html=1;shadow=0;fontSize=12;fontStyle=0;fontFamily=Helvetica;" vertex="1" parent="M_I6Mr65UwFwFkiHeHTS-31">
          <mxGeometry x="45" width="180" height="27" as="geometry" />
        </mxCell>
        <mxCell id="M_I6Mr65UwFwFkiHeHTS-34" value="3" style="rounded=0;whiteSpace=wrap;html=1;shadow=0;fontSize=11;fontStyle=0;" vertex="1" parent="M_I6Mr65UwFwFkiHeHTS-31">
          <mxGeometry x="225" width="50" height="27" as="geometry" />
        </mxCell>
        <mxCell id="M_I6Mr65UwFwFkiHeHTS-35" value="2" style="rounded=0;whiteSpace=wrap;html=1;shadow=0;fontSize=11;fontStyle=0;" vertex="1" parent="M_I6Mr65UwFwFkiHeHTS-31">
          <mxGeometry x="275" width="60" height="27" as="geometry" />
        </mxCell>
        <mxCell id="M_I6Mr65UwFwFkiHeHTS-36" value="" style="group" vertex="1" connectable="0" parent="M_I6Mr65UwFwFkiHeHTS-1">
          <mxGeometry x="342.5" y="701" width="335" height="27" as="geometry" />
        </mxCell>
        <mxCell id="M_I6Mr65UwFwFkiHeHTS-37" value="3" style="rounded=0;whiteSpace=wrap;html=1;shadow=0;fontSize=11;fontStyle=0" vertex="1" parent="M_I6Mr65UwFwFkiHeHTS-36">
          <mxGeometry width="45" height="27" as="geometry" />
        </mxCell>
        <mxCell id="M_I6Mr65UwFwFkiHeHTS-38" value="&lt;div class=&quot;prettyprint linenums&quot; style=&quot;font-size: 12px;&quot;&gt;&lt;div class=&quot;prettyprint linenums&quot; style=&quot;font-size: 12px;&quot;&gt;&lt;span style=&quot;font-size: 12px; text-align: left; background-color: rgba(255, 255, 255, 0.075);&quot;&gt;Et sit occaecati.&lt;/span&gt;&lt;br style=&quot;font-size: 12px;&quot;&gt;&lt;/div&gt;&lt;/div&gt;" style="rounded=0;whiteSpace=wrap;html=1;shadow=0;fontSize=12;fontStyle=0;fontFamily=Helvetica;" vertex="1" parent="M_I6Mr65UwFwFkiHeHTS-36">
          <mxGeometry x="45" width="180" height="27" as="geometry" />
        </mxCell>
        <mxCell id="M_I6Mr65UwFwFkiHeHTS-39" value="5" style="rounded=0;whiteSpace=wrap;html=1;shadow=0;fontSize=11;fontStyle=0;" vertex="1" parent="M_I6Mr65UwFwFkiHeHTS-36">
          <mxGeometry x="225" width="50" height="27" as="geometry" />
        </mxCell>
        <mxCell id="M_I6Mr65UwFwFkiHeHTS-40" value="1" style="rounded=0;whiteSpace=wrap;html=1;shadow=0;fontSize=11;fontStyle=0;" vertex="1" parent="M_I6Mr65UwFwFkiHeHTS-36">
          <mxGeometry x="275" width="60" height="27" as="geometry" />
        </mxCell>
        <mxCell id="M_I6Mr65UwFwFkiHeHTS-41" value="" style="group" vertex="1" connectable="0" parent="M_I6Mr65UwFwFkiHeHTS-1">
          <mxGeometry x="342.5" y="674" width="335" height="27" as="geometry" />
        </mxCell>
        <mxCell id="M_I6Mr65UwFwFkiHeHTS-42" value="2" style="rounded=0;whiteSpace=wrap;html=1;shadow=0;fontSize=11;fontStyle=0" vertex="1" parent="M_I6Mr65UwFwFkiHeHTS-41">
          <mxGeometry width="45" height="27" as="geometry" />
        </mxCell>
        <mxCell id="M_I6Mr65UwFwFkiHeHTS-43" value="&lt;div class=&quot;prettyprint linenums&quot; style=&quot;font-size: 12px;&quot;&gt;&lt;div class=&quot;prettyprint linenums&quot; style=&quot;font-size: 12px;&quot;&gt;&lt;span style=&quot;font-size: 12px; text-align: left; background-color: rgba(255, 255, 255, 0.075);&quot;&gt;Sed cumque in et.&lt;/span&gt;&lt;br style=&quot;font-size: 12px;&quot;&gt;&lt;/div&gt;&lt;/div&gt;" style="rounded=0;whiteSpace=wrap;html=1;shadow=0;fontSize=12;fontStyle=0;fontFamily=Helvetica;" vertex="1" parent="M_I6Mr65UwFwFkiHeHTS-41">
          <mxGeometry x="45" width="180" height="27" as="geometry" />
        </mxCell>
        <mxCell id="M_I6Mr65UwFwFkiHeHTS-44" value="3" style="rounded=0;whiteSpace=wrap;html=1;shadow=0;fontSize=11;fontStyle=0;" vertex="1" parent="M_I6Mr65UwFwFkiHeHTS-41">
          <mxGeometry x="225" width="50" height="27" as="geometry" />
        </mxCell>
        <mxCell id="M_I6Mr65UwFwFkiHeHTS-45" value="3" style="rounded=0;whiteSpace=wrap;html=1;shadow=0;fontSize=11;fontStyle=0;" vertex="1" parent="M_I6Mr65UwFwFkiHeHTS-41">
          <mxGeometry x="275" width="60" height="27" as="geometry" />
        </mxCell>
        <mxCell id="M_I6Mr65UwFwFkiHeHTS-46" value="" style="group" vertex="1" connectable="0" parent="M_I6Mr65UwFwFkiHeHTS-1">
          <mxGeometry x="342.5" y="647" width="335" height="27" as="geometry" />
        </mxCell>
        <mxCell id="M_I6Mr65UwFwFkiHeHTS-47" value="1" style="rounded=0;whiteSpace=wrap;html=1;shadow=0;fontSize=11;fontStyle=0" vertex="1" parent="M_I6Mr65UwFwFkiHeHTS-46">
          <mxGeometry width="45" height="27" as="geometry" />
        </mxCell>
        <mxCell id="M_I6Mr65UwFwFkiHeHTS-48" value="&lt;div class=&quot;prettyprint linenums&quot; style=&quot;font-size: 12px;&quot;&gt;&lt;div class=&quot;prettyprint linenums&quot; style=&quot;font-size: 12px;&quot;&gt;Non est totam&lt;/div&gt;&lt;/div&gt;" style="rounded=0;whiteSpace=wrap;html=1;shadow=0;fontSize=12;fontStyle=0;fontFamily=Helvetica;" vertex="1" parent="M_I6Mr65UwFwFkiHeHTS-46">
          <mxGeometry x="45" width="180" height="27" as="geometry" />
        </mxCell>
        <mxCell id="M_I6Mr65UwFwFkiHeHTS-49" value="1" style="rounded=0;whiteSpace=wrap;html=1;shadow=0;fontSize=11;fontStyle=0;" vertex="1" parent="M_I6Mr65UwFwFkiHeHTS-46">
          <mxGeometry x="225" width="50" height="27" as="geometry" />
        </mxCell>
        <mxCell id="M_I6Mr65UwFwFkiHeHTS-50" value="3" style="rounded=0;whiteSpace=wrap;html=1;shadow=0;fontSize=11;fontStyle=0;" vertex="1" parent="M_I6Mr65UwFwFkiHeHTS-46">
          <mxGeometry x="275" width="60" height="27" as="geometry" />
        </mxCell>
        <mxCell id="M_I6Mr65UwFwFkiHeHTS-51" value="photos" style="rounded=0;whiteSpace=wrap;html=1;shadow=1;fontSize=20;fillColor=#ffe6cc;strokeColor=#d79b00;" vertex="1" parent="M_I6Mr65UwFwFkiHeHTS-1">
          <mxGeometry x="690" y="595" width="275" height="25" as="geometry" />
        </mxCell>
        <mxCell id="M_I6Mr65UwFwFkiHeHTS-52" value="id" style="rounded=0;whiteSpace=wrap;html=1;shadow=1;fontSize=12;fillColor=#f5f5f5;strokeColor=#666666;fontColor=#333333;fontStyle=3" vertex="1" parent="M_I6Mr65UwFwFkiHeHTS-1">
          <mxGeometry x="690" y="620" width="45" height="27" as="geometry" />
        </mxCell>
        <mxCell id="M_I6Mr65UwFwFkiHeHTS-53" value="url" style="rounded=0;whiteSpace=wrap;html=1;shadow=1;fontSize=12;fillColor=#f5f5f5;strokeColor=#666666;fontColor=#333333;fontStyle=3" vertex="1" parent="M_I6Mr65UwFwFkiHeHTS-1">
          <mxGeometry x="735" y="620" width="180" height="27" as="geometry" />
        </mxCell>
        <mxCell id="M_I6Mr65UwFwFkiHeHTS-54" value="user_id" style="rounded=0;whiteSpace=wrap;html=1;shadow=1;fontSize=12;fillColor=#f5f5f5;strokeColor=#666666;fontColor=#333333;fontStyle=3" vertex="1" parent="M_I6Mr65UwFwFkiHeHTS-1">
          <mxGeometry x="915" y="620" width="50" height="27" as="geometry" />
        </mxCell>
        <mxCell id="M_I6Mr65UwFwFkiHeHTS-55" value="" style="group" vertex="1" connectable="0" parent="M_I6Mr65UwFwFkiHeHTS-1">
          <mxGeometry x="690" y="809" width="335" height="27" as="geometry" />
        </mxCell>
        <mxCell id="M_I6Mr65UwFwFkiHeHTS-56" value="7" style="rounded=0;whiteSpace=wrap;html=1;shadow=0;fontSize=11;fontStyle=0" vertex="1" parent="M_I6Mr65UwFwFkiHeHTS-55">
          <mxGeometry width="45" height="27" as="geometry" />
        </mxCell>
        <mxCell id="M_I6Mr65UwFwFkiHeHTS-57" value="&lt;div class=&quot;prettyprint linenums&quot; style=&quot;font-size: 12px&quot;&gt;&lt;div class=&quot;prettyprint linenums&quot; style=&quot;font-size: 12px&quot;&gt;&lt;span style=&quot;color: rgb(38 , 38 , 38) ; font-family: &amp;#34;roboto&amp;#34; , sans-serif ; font-size: 13px ; text-align: left ; background-color: rgb(255 , 255 , 255)&quot;&gt;https://meredith.net&lt;/span&gt;&lt;br&gt;&lt;/div&gt;&lt;/div&gt;" style="rounded=0;whiteSpace=wrap;html=1;shadow=0;fontSize=12;fontStyle=0;fontFamily=Helvetica;" vertex="1" parent="M_I6Mr65UwFwFkiHeHTS-55">
          <mxGeometry x="45" width="180" height="27" as="geometry" />
        </mxCell>
        <mxCell id="M_I6Mr65UwFwFkiHeHTS-58" value="1" style="rounded=0;whiteSpace=wrap;html=1;shadow=0;fontSize=11;fontStyle=0;" vertex="1" parent="M_I6Mr65UwFwFkiHeHTS-55">
          <mxGeometry x="225" width="50" height="27" as="geometry" />
        </mxCell>
        <mxCell id="M_I6Mr65UwFwFkiHeHTS-59" value="" style="group" vertex="1" connectable="0" parent="M_I6Mr65UwFwFkiHeHTS-1">
          <mxGeometry x="690" y="782" width="335" height="27" as="geometry" />
        </mxCell>
        <mxCell id="M_I6Mr65UwFwFkiHeHTS-60" value="6" style="rounded=0;whiteSpace=wrap;html=1;shadow=0;fontSize=11;fontStyle=0" vertex="1" parent="M_I6Mr65UwFwFkiHeHTS-59">
          <mxGeometry width="45" height="27" as="geometry" />
        </mxCell>
        <mxCell id="M_I6Mr65UwFwFkiHeHTS-61" value="&lt;div class=&quot;prettyprint linenums&quot; style=&quot;font-size: 12px&quot;&gt;&lt;div class=&quot;prettyprint linenums&quot; style=&quot;font-size: 12px&quot;&gt;&lt;span style=&quot;color: rgb(38 , 38 , 38) ; font-family: &amp;#34;roboto&amp;#34; , sans-serif ; font-size: 13px ; text-align: left ; background-color: rgb(255 , 255 , 255)&quot;&gt;http://jerrold.org&lt;/span&gt;&lt;br style=&quot;font-size: 12px&quot;&gt;&lt;/div&gt;&lt;/div&gt;" style="rounded=0;whiteSpace=wrap;html=1;shadow=0;fontSize=12;fontStyle=0;fontFamily=Helvetica;" vertex="1" parent="M_I6Mr65UwFwFkiHeHTS-59">
          <mxGeometry x="45" width="180" height="27" as="geometry" />
        </mxCell>
        <mxCell id="M_I6Mr65UwFwFkiHeHTS-62" value="2" style="rounded=0;whiteSpace=wrap;html=1;shadow=0;fontSize=11;fontStyle=0;" vertex="1" parent="M_I6Mr65UwFwFkiHeHTS-59">
          <mxGeometry x="225" width="50" height="27" as="geometry" />
        </mxCell>
        <mxCell id="M_I6Mr65UwFwFkiHeHTS-63" value="" style="group" vertex="1" connectable="0" parent="M_I6Mr65UwFwFkiHeHTS-1">
          <mxGeometry x="690" y="755" width="335" height="27" as="geometry" />
        </mxCell>
        <mxCell id="M_I6Mr65UwFwFkiHeHTS-64" value="5" style="rounded=0;whiteSpace=wrap;html=1;shadow=0;fontSize=11;fontStyle=0" vertex="1" parent="M_I6Mr65UwFwFkiHeHTS-63">
          <mxGeometry width="45" height="27" as="geometry" />
        </mxCell>
        <mxCell id="M_I6Mr65UwFwFkiHeHTS-65" value="&lt;div class=&quot;prettyprint linenums&quot; style=&quot;font-size: 12px&quot;&gt;&lt;span style=&quot;color: rgb(38 , 38 , 38) ; font-family: &amp;#34;roboto&amp;#34; , sans-serif ; font-size: 13px ; text-align: left ; background-color: rgb(255 , 255 , 255)&quot;&gt;http://chet.net&lt;/span&gt;&lt;br&gt;&lt;/div&gt;" style="rounded=0;whiteSpace=wrap;html=1;shadow=0;fontSize=12;fontStyle=0;fontFamily=Helvetica;" vertex="1" parent="M_I6Mr65UwFwFkiHeHTS-63">
          <mxGeometry x="45" width="180" height="27" as="geometry" />
        </mxCell>
        <mxCell id="M_I6Mr65UwFwFkiHeHTS-66" value="2" style="rounded=0;whiteSpace=wrap;html=1;shadow=0;fontSize=11;fontStyle=0" vertex="1" parent="M_I6Mr65UwFwFkiHeHTS-63">
          <mxGeometry x="225" width="50" height="27" as="geometry" />
        </mxCell>
        <mxCell id="M_I6Mr65UwFwFkiHeHTS-67" value="" style="group" vertex="1" connectable="0" parent="M_I6Mr65UwFwFkiHeHTS-1">
          <mxGeometry x="690" y="728" width="335" height="27" as="geometry" />
        </mxCell>
        <mxCell id="M_I6Mr65UwFwFkiHeHTS-68" value="4" style="rounded=0;whiteSpace=wrap;html=1;shadow=0;fontSize=11;fontStyle=0" vertex="1" parent="M_I6Mr65UwFwFkiHeHTS-67">
          <mxGeometry width="45" height="27" as="geometry" />
        </mxCell>
        <mxCell id="M_I6Mr65UwFwFkiHeHTS-69" value="&lt;div class=&quot;prettyprint linenums&quot; style=&quot;font-size: 12px&quot;&gt;&lt;div class=&quot;prettyprint linenums&quot; style=&quot;font-size: 12px&quot;&gt;&lt;span style=&quot;color: rgb(38 , 38 , 38) ; font-family: &amp;#34;roboto&amp;#34; , sans-serif ; font-size: 13px ; text-align: left ; background-color: rgb(255 , 255 , 255)&quot;&gt;http://marjolaine.name/&lt;/span&gt;&lt;br style=&quot;font-size: 12px&quot;&gt;&lt;/div&gt;&lt;/div&gt;" style="rounded=0;whiteSpace=wrap;html=1;shadow=0;fontSize=12;fontStyle=0;fontFamily=Helvetica;" vertex="1" parent="M_I6Mr65UwFwFkiHeHTS-67">
          <mxGeometry x="45" width="180" height="27" as="geometry" />
        </mxCell>
        <mxCell id="M_I6Mr65UwFwFkiHeHTS-70" value="3" style="rounded=0;whiteSpace=wrap;html=1;shadow=0;fontSize=11;fontStyle=0;" vertex="1" parent="M_I6Mr65UwFwFkiHeHTS-67">
          <mxGeometry x="225" width="50" height="27" as="geometry" />
        </mxCell>
        <mxCell id="M_I6Mr65UwFwFkiHeHTS-71" value="" style="group;" vertex="1" connectable="0" parent="M_I6Mr65UwFwFkiHeHTS-1">
          <mxGeometry x="690" y="701" width="335" height="27" as="geometry" />
        </mxCell>
        <mxCell id="M_I6Mr65UwFwFkiHeHTS-72" value="3" style="rounded=0;whiteSpace=wrap;html=1;shadow=0;fontSize=11;fontStyle=0" vertex="1" parent="M_I6Mr65UwFwFkiHeHTS-71">
          <mxGeometry width="45" height="27" as="geometry" />
        </mxCell>
        <mxCell id="M_I6Mr65UwFwFkiHeHTS-73" value="&lt;div class=&quot;prettyprint linenums&quot; style=&quot;font-size: 12px&quot;&gt;&lt;div class=&quot;prettyprint linenums&quot; style=&quot;font-size: 12px&quot;&gt;&lt;span style=&quot;font-family: poppins, sans-serif; font-size: 13px; text-align: left; background-color: rgba(255, 255, 255, 0.075);&quot;&gt;https://kailyn.name&lt;/span&gt;&lt;br style=&quot;font-size: 12px&quot;&gt;&lt;/div&gt;&lt;/div&gt;" style="rounded=0;whiteSpace=wrap;html=1;shadow=0;fontSize=12;fontStyle=0;fontFamily=Helvetica;" vertex="1" parent="M_I6Mr65UwFwFkiHeHTS-71">
          <mxGeometry x="45" width="180" height="27" as="geometry" />
        </mxCell>
        <mxCell id="M_I6Mr65UwFwFkiHeHTS-74" value="5" style="rounded=0;whiteSpace=wrap;html=1;shadow=0;fontSize=11;fontStyle=0;" vertex="1" parent="M_I6Mr65UwFwFkiHeHTS-71">
          <mxGeometry x="225" width="50" height="27" as="geometry" />
        </mxCell>
        <mxCell id="M_I6Mr65UwFwFkiHeHTS-75" value="" style="group;" vertex="1" connectable="0" parent="M_I6Mr65UwFwFkiHeHTS-1">
          <mxGeometry x="690" y="674" width="335" height="27" as="geometry" />
        </mxCell>
        <mxCell id="M_I6Mr65UwFwFkiHeHTS-76" value="2" style="rounded=0;whiteSpace=wrap;html=1;shadow=0;fontSize=11;fontStyle=0" vertex="1" parent="M_I6Mr65UwFwFkiHeHTS-75">
          <mxGeometry width="45" height="27" as="geometry" />
        </mxCell>
        <mxCell id="M_I6Mr65UwFwFkiHeHTS-77" value="&lt;div class=&quot;prettyprint linenums&quot; style=&quot;font-size: 12px&quot;&gt;&lt;div class=&quot;prettyprint linenums&quot; style=&quot;font-size: 12px&quot;&gt;&lt;span style=&quot;font-family: poppins, sans-serif; font-size: 13px; text-align: left; background-color: rgba(255, 255, 255, 0.075);&quot;&gt;https://alayna.net&lt;/span&gt;&lt;br style=&quot;font-size: 12px&quot;&gt;&lt;/div&gt;&lt;/div&gt;" style="rounded=0;whiteSpace=wrap;html=1;shadow=0;fontSize=12;fontStyle=0;fontFamily=Helvetica;" vertex="1" parent="M_I6Mr65UwFwFkiHeHTS-75">
          <mxGeometry x="45" width="180" height="27" as="geometry" />
        </mxCell>
        <mxCell id="M_I6Mr65UwFwFkiHeHTS-78" value="3" style="rounded=0;whiteSpace=wrap;html=1;shadow=0;fontSize=11;fontStyle=0;" vertex="1" parent="M_I6Mr65UwFwFkiHeHTS-75">
          <mxGeometry x="225" width="50" height="27" as="geometry" />
        </mxCell>
        <mxCell id="M_I6Mr65UwFwFkiHeHTS-79" value="" style="group" vertex="1" connectable="0" parent="M_I6Mr65UwFwFkiHeHTS-1">
          <mxGeometry x="690" y="647" width="335" height="27" as="geometry" />
        </mxCell>
        <mxCell id="M_I6Mr65UwFwFkiHeHTS-80" value="1" style="rounded=0;whiteSpace=wrap;html=1;shadow=0;fontSize=11;fontStyle=0" vertex="1" parent="M_I6Mr65UwFwFkiHeHTS-79">
          <mxGeometry width="45" height="27" as="geometry" />
        </mxCell>
        <mxCell id="M_I6Mr65UwFwFkiHeHTS-81" value="&lt;div class=&quot;prettyprint linenums&quot; style=&quot;font-size: 12px&quot;&gt;&lt;div class=&quot;prettyprint linenums&quot; style=&quot;font-size: 12px&quot;&gt;&lt;span style=&quot;font-family: poppins, sans-serif; font-size: 13px; text-align: left; background-color: rgba(255, 255, 255, 0.075);&quot;&gt;https://santina.net&lt;/span&gt;&lt;br&gt;&lt;/div&gt;&lt;/div&gt;" style="rounded=0;whiteSpace=wrap;html=1;shadow=0;fontSize=12;fontStyle=0;fontFamily=Helvetica;" vertex="1" parent="M_I6Mr65UwFwFkiHeHTS-79">
          <mxGeometry x="45" width="180" height="27" as="geometry" />
        </mxCell>
        <mxCell id="M_I6Mr65UwFwFkiHeHTS-82" value="1" style="rounded=0;whiteSpace=wrap;html=1;shadow=0;fontSize=11;fontStyle=0;" vertex="1" parent="M_I6Mr65UwFwFkiHeHTS-79">
          <mxGeometry x="225" width="50" height="27" as="geometry" />
        </mxCell>
        <mxCell id="M_I6Mr65UwFwFkiHeHTS-83" value="comments" style="rounded=0;whiteSpace=wrap;html=1;shadow=1;fontSize=20;fillColor=#ffe6cc;strokeColor=#d79b00;" vertex="1" parent="M_I6Mr65UwFwFkiHeHTS-1">
          <mxGeometry x="341.25" y="860" width="610" height="25" as="geometry" />
        </mxCell>
        <mxCell id="M_I6Mr65UwFwFkiHeHTS-84" value="id" style="rounded=0;whiteSpace=wrap;html=1;shadow=1;fontSize=12;fillColor=#f5f5f5;strokeColor=#666666;fontColor=#333333;fontStyle=3" vertex="1" parent="M_I6Mr65UwFwFkiHeHTS-1">
          <mxGeometry x="341.25" y="885" width="45" height="27" as="geometry" />
        </mxCell>
        <mxCell id="M_I6Mr65UwFwFkiHeHTS-85" value="contents" style="rounded=0;whiteSpace=wrap;html=1;shadow=1;fontSize=12;fillColor=#f5f5f5;strokeColor=#666666;fontColor=#333333;fontStyle=3" vertex="1" parent="M_I6Mr65UwFwFkiHeHTS-1">
          <mxGeometry x="386.25" y="885" width="180" height="27" as="geometry" />
        </mxCell>
        <mxCell id="M_I6Mr65UwFwFkiHeHTS-86" value="user_id" style="rounded=0;whiteSpace=wrap;html=1;shadow=1;fontSize=12;fillColor=#f5f5f5;strokeColor=#666666;fontColor=#333333;fontStyle=3" vertex="1" parent="M_I6Mr65UwFwFkiHeHTS-1">
          <mxGeometry x="566.25" y="885" width="50" height="27" as="geometry" />
        </mxCell>
        <mxCell id="M_I6Mr65UwFwFkiHeHTS-87" value="photo_id" style="rounded=0;whiteSpace=wrap;html=1;shadow=1;fontSize=12;fillColor=#f5f5f5;strokeColor=#666666;fontColor=#333333;fontStyle=3" vertex="1" parent="M_I6Mr65UwFwFkiHeHTS-1">
          <mxGeometry x="616.25" y="885" width="60" height="27" as="geometry" />
        </mxCell>
        <mxCell id="M_I6Mr65UwFwFkiHeHTS-88" value="id" style="rounded=0;whiteSpace=wrap;html=1;shadow=1;fontSize=12;fillColor=#f5f5f5;strokeColor=#666666;fontColor=#333333;fontStyle=3" vertex="1" parent="M_I6Mr65UwFwFkiHeHTS-1">
          <mxGeometry x="676.25" y="885" width="45" height="27" as="geometry" />
        </mxCell>
        <mxCell id="M_I6Mr65UwFwFkiHeHTS-89" value="url" style="rounded=0;whiteSpace=wrap;html=1;shadow=1;fontSize=12;fillColor=#f5f5f5;strokeColor=#666666;fontColor=#333333;fontStyle=3" vertex="1" parent="M_I6Mr65UwFwFkiHeHTS-1">
          <mxGeometry x="721.25" y="885" width="180" height="27" as="geometry" />
        </mxCell>
        <mxCell id="M_I6Mr65UwFwFkiHeHTS-90" value="user_id" style="rounded=0;whiteSpace=wrap;html=1;shadow=1;fontSize=12;fillColor=#f5f5f5;strokeColor=#666666;fontColor=#333333;fontStyle=3" vertex="1" parent="M_I6Mr65UwFwFkiHeHTS-1">
          <mxGeometry x="901.25" y="885" width="50" height="27" as="geometry" />
        </mxCell>
        <mxCell id="M_I6Mr65UwFwFkiHeHTS-91" value="id" style="rounded=0;whiteSpace=wrap;html=1;shadow=1;fontSize=12;fillColor=#f5f5f5;strokeColor=#666666;fontColor=#333333;fontStyle=3" vertex="1" parent="M_I6Mr65UwFwFkiHeHTS-1">
          <mxGeometry x="1080" y="495" width="45" height="32" as="geometry" />
        </mxCell>
        <mxCell id="M_I6Mr65UwFwFkiHeHTS-92" value="contents" style="rounded=0;whiteSpace=wrap;html=1;shadow=1;fontSize=12;fillColor=#f5f5f5;strokeColor=#666666;fontColor=#333333;fontStyle=3" vertex="1" parent="M_I6Mr65UwFwFkiHeHTS-1">
          <mxGeometry x="1125" y="495" width="180" height="32" as="geometry" />
        </mxCell>
        <mxCell id="M_I6Mr65UwFwFkiHeHTS-93" value="user_id" style="rounded=0;whiteSpace=wrap;html=1;shadow=1;fontSize=12;fillColor=#f5f5f5;strokeColor=#666666;fontColor=#333333;fontStyle=3" vertex="1" parent="M_I6Mr65UwFwFkiHeHTS-1">
          <mxGeometry x="1305" y="495" width="50" height="32" as="geometry" />
        </mxCell>
        <mxCell id="M_I6Mr65UwFwFkiHeHTS-94" value="photo_id" style="rounded=0;whiteSpace=wrap;html=1;shadow=1;fontSize=12;fillColor=#f5f5f5;strokeColor=#666666;fontColor=#333333;fontStyle=3" vertex="1" parent="M_I6Mr65UwFwFkiHeHTS-1">
          <mxGeometry x="1355" y="495" width="60" height="32" as="geometry" />
        </mxCell>
        <mxCell id="M_I6Mr65UwFwFkiHeHTS-95" value="id" style="rounded=0;whiteSpace=wrap;html=1;shadow=1;fontSize=12;fillColor=#f5f5f5;strokeColor=#666666;fontColor=#333333;fontStyle=3" vertex="1" parent="M_I6Mr65UwFwFkiHeHTS-1">
          <mxGeometry x="1415" y="495" width="45" height="32" as="geometry" />
        </mxCell>
        <mxCell id="M_I6Mr65UwFwFkiHeHTS-96" value="url" style="rounded=0;whiteSpace=wrap;html=1;shadow=1;fontSize=12;fillColor=#f5f5f5;strokeColor=#666666;fontColor=#333333;fontStyle=3" vertex="1" parent="M_I6Mr65UwFwFkiHeHTS-1">
          <mxGeometry x="1460" y="495" width="180" height="32" as="geometry" />
        </mxCell>
        <mxCell id="M_I6Mr65UwFwFkiHeHTS-97" value="user_id" style="rounded=0;whiteSpace=wrap;html=1;shadow=1;fontSize=12;fillColor=#f5f5f5;strokeColor=#666666;fontColor=#333333;fontStyle=3" vertex="1" parent="M_I6Mr65UwFwFkiHeHTS-1">
          <mxGeometry x="1640" y="495" width="50" height="32" as="geometry" />
        </mxCell>
        <mxCell id="M_I6Mr65UwFwFkiHeHTS-98" value="" style="rounded=0;whiteSpace=wrap;html=1;shadow=1;fontSize=23;fontStyle=0" vertex="1" parent="M_I6Mr65UwFwFkiHeHTS-1">
          <mxGeometry x="1010" y="630" width="70" height="80" as="geometry" />
        </mxCell>
        <mxCell id="M_I6Mr65UwFwFkiHeHTS-99" value="" style="rounded=0;whiteSpace=wrap;html=1;shadow=1;fontSize=23;fontStyle=0" vertex="1" parent="M_I6Mr65UwFwFkiHeHTS-1">
          <mxGeometry x="1010" y="720" width="70" height="80" as="geometry" />
        </mxCell>
        <mxCell id="M_I6Mr65UwFwFkiHeHTS-100" value="" style="rounded=0;whiteSpace=wrap;html=1;shadow=1;fontSize=23;fontStyle=0" vertex="1" parent="M_I6Mr65UwFwFkiHeHTS-1">
          <mxGeometry x="1010" y="809" width="70" height="80" as="geometry" />
        </mxCell>
      </root>
    </mxGraphModel>
  </diagram>
</mxfile>
